<?xml version="1.0" encoding="UTF-8" standalone="no"?>
<svg
   xmlns:dc="http://purl.org/dc/elements/1.1/"
   xmlns:cc="http://creativecommons.org/ns#"
   xmlns:rdf="http://www.w3.org/1999/02/22-rdf-syntax-ns#"
   xmlns:svg="http://www.w3.org/2000/svg"
   xmlns="http://www.w3.org/2000/svg"
   xmlns:sodipodi="http://sodipodi.sourceforge.net/DTD/sodipodi-0.dtd"
   xmlns:inkscape="http://www.inkscape.org/namespaces/inkscape"
   viewBox="0 0 32 32"
   version="1.1"
   id="svg8"
   sodipodi:docname="configure.svg"
   inkscape:version="0.92.3 (2405546, 2018-03-11)">
  <metadata
     id="metadata14">
    <rdf:RDF>
      <cc:Work
         rdf:about="">
        <dc:format>image/svg+xml</dc:format>
        <dc:type
           rdf:resource="http://purl.org/dc/dcmitype/StillImage" />
        <dc:title />
      </cc:Work>
    </rdf:RDF>
  </metadata>
  <defs
     id="defs12" />
  <sodipodi:namedview
     pagecolor="#ffffff"
     bordercolor="#666666"
     borderopacity="1"
     objecttolerance="10"
     gridtolerance="10"
     guidetolerance="10"
     inkscape:pageopacity="0"
     inkscape:pageshadow="2"
     inkscape:window-width="1366"
     inkscape:window-height="704"
     id="namedview10"
     showgrid="true"
     inkscape:zoom="18.495922"
     inkscape:cx="26.598398"
     inkscape:cy="7.2430261"
     inkscape:window-x="0"
     inkscape:window-y="0"
     inkscape:window-maximized="1"
     inkscape:current-layer="svg8">
    <inkscape:grid
       type="xygrid"
       id="grid1434" />
  </sodipodi:namedview>
  <path
     style="opacity:1;fill:#922e9b;fill-opacity:1;stroke:none;stroke-width:3;stroke-linecap:round;stroke-linejoin:round;stroke-miterlimit:4;stroke-dasharray:none;stroke-dashoffset:0;stroke-opacity:1;paint-order:normal"
     d="m 24.5,18 a 1.0001,1.0001 0 0 0 -0.986328,0.835938 l -0.222656,1.332031 -1.097657,-0.785157 a 1.0001,1.0001 0 0 0 -1.289062,0.107422 l -0.861328,0.859375 a 1.0001,1.0001 0 0 0 -0.002,0.002 l -0.552735,0.554688 a 1.0001,1.0001 0 0 0 -0.105469,1.287109 l 0.785157,1.097657 -1.332031,0.222656 A 1.0001,1.0001 0 0 0 18,24.5 V 25.716797 26.5 a 1.0001,1.0001 0 0 0 0.835938,0.986328 l 1.332031,0.222656 -0.785157,1.097657 a 1.0001,1.0001 0 0 0 0.105469,1.287109 l 0.552735,0.554688 a 1.0001,1.0001 0 0 0 0.002,0.002 l 0.861328,0.859375 a 1.0001,1.0001 0 0 0 1.289062,0.107422 l 1.097657,-0.785157 0.222656,1.332031 A 1.0001,1.0001 0 0 0 24.5,33 H 25.716797 26.5 a 1.0001,1.0001 0 0 0 0.986328,-0.835938 l 0.222656,-1.332031 1.097657,0.785157 a 1.0001,1.0001 0 0 0 1.287109,-0.105469 l 0.554688,-0.552735 a 1.0001,1.0001 0 0 0 0.002,-0.002 l 0.859375,-0.861328 a 1.0001,1.0001 0 0 0 0.107422,-1.289062 l -0.785157,-1.097657 1.332031,-0.222656 A 1.0001,1.0001 0 0 0 33,26.5 V 25.716797 24.5 a 1.0001,1.0001 0 0 0 -0.835938,-0.986328 l -1.332031,-0.222656 0.785157,-1.097657 a 1.0001,1.0001 0 0 0 -0.107422,-1.289062 l -0.859375,-0.861328 a 1.0001,1.0001 0 0 0 -0.002,-0.002 L 30.09375,19.488281 a 1.0001,1.0001 0 0 0 -1.287109,-0.105469 l -1.097657,0.785157 -0.222656,-1.332031 A 1.0001,1.0001 0 0 0 26.5,18 h -0.783203 z"
     id="path1499" />
  <path
     style="opacity:1;fill:#1e8bcd;fill-opacity:1;stroke:none;stroke-width:3;stroke-linecap:round;stroke-linejoin:round;stroke-miterlimit:4;stroke-dasharray:none;stroke-dashoffset:0;stroke-opacity:1;paint-order:normal"
     d="M 24.5 19 L 24.128906 21.228516 A 4.5 4.5 0 0 0 23.445312 21.507812 L 21.611328 20.197266 L 20.75 21.056641 L 20.197266 21.611328 L 21.509766 23.447266 A 4.5 4.5 0 0 0 21.220703 24.128906 L 19 24.5 L 19 25.716797 L 19 26.5 L 21.228516 26.871094 A 4.5 4.5 0 0 0 21.507812 27.554688 L 20.197266 29.388672 L 20.75 29.943359 L 21.611328 30.802734 L 23.447266 29.490234 A 4.5 4.5 0 0 0 24.128906 29.779297 L 24.5 32 L 25.716797 32 L 26.5 32 L 26.871094 29.771484 A 4.5 4.5 0 0 0 27.554688 29.492188 L 29.388672 30.802734 L 29.943359 30.25 L 30.802734 29.388672 L 29.490234 27.552734 A 4.5 4.5 0 0 0 29.779297 26.871094 L 32 26.5 L 32 25.716797 L 32 24.5 L 29.771484 24.128906 A 4.5 4.5 0 0 0 29.492188 23.445312 L 30.802734 21.611328 L 29.943359 20.75 L 29.388672 20.197266 L 27.552734 21.509766 A 4.5 4.5 0 0 0 26.871094 21.220703 L 26.5 19 L 25.716797 19 L 24.5 19 z M 25.105469 20 L 25.894531 20 L 26.248047 22 L 26.248047 22.089844 A 3.5 3.5 0 0 1 27.384766 22.556641 L 27.445312 22.496094 L 29.109375 21.332031 L 29.667969 21.890625 L 28.503906 23.554688 L 28.441406 23.617188 A 3.5 3.5 0 0 1 28.912109 24.751953 L 29 24.751953 L 31 25.105469 L 31 25.894531 L 29 26.248047 L 28.910156 26.248047 A 3.5 3.5 0 0 1 28.443359 27.384766 L 28.503906 27.445312 L 29.667969 29.109375 L 29.109375 29.667969 L 27.445312 28.503906 L 27.382812 28.441406 A 3.5 3.5 0 0 1 26.248047 28.912109 L 26.248047 29 L 25.894531 31 L 25.105469 31 L 24.751953 29 L 24.751953 28.910156 A 3.5 3.5 0 0 1 23.615234 28.443359 L 23.554688 28.503906 L 21.890625 29.667969 L 21.332031 29.109375 L 22.496094 27.445312 L 22.558594 27.382812 A 3.5 3.5 0 0 1 22.087891 26.248047 L 22 26.248047 L 20 25.894531 L 20 25.105469 L 22 24.751953 L 22.089844 24.751953 A 3.5 3.5 0 0 1 22.556641 23.615234 L 22.496094 23.554688 L 21.332031 21.890625 L 21.890625 21.332031 L 23.554688 22.496094 L 23.617188 22.558594 A 3.5 3.5 0 0 1 24.751953 22.087891 L 24.751953 22 L 25.105469 20 z M 25.5 23 A 2.5 2.5 0 0 0 23 25.5 A 2.5 2.5 0 0 0 25.5 28 A 2.5 2.5 0 0 0 28 25.5 A 2.5 2.5 0 0 0 25.5 23 z M 25.5 24 A 1.5 1.5 0 0 1 27 25.5 A 1.5 1.5 0 0 1 25.5 27 A 1.5 1.5 0 0 1 24 25.5 A 1.5 1.5 0 0 1 25.5 24 z "
     id="path1467" />
  <path
     id="path1497"
     d="m 25.105469,20 h 0.789062 l 0.353516,2 v 0.08984 c 0.40347,0.08734 0.788306,0.245379 1.136719,0.466797 l 0.06055,-0.06055 1.664063,-1.164063 0.558594,0.558594 -1.164063,1.664063 -0.0625,0.0625 c 0.222578,0.347545 0.381933,0.731717 0.470703,1.134765 H 29 l 2,0.353516 v 0.789062 l -2,0.353516 h -0.08984 c -0.08734,0.40347 -0.245379,0.788306 -0.466797,1.136719 l 0.06055,0.06055 1.164063,1.664063 -0.558594,0.558594 -1.664063,-1.164063 -0.0625,-0.0625 c -0.347545,0.222578 -0.731717,0.381933 -1.134765,0.470703 V 29 l -0.353516,2 H 25.105476 L 24.75196,29 v -0.08984 c -0.40347,-0.08734 -0.788306,-0.245379 -1.136719,-0.466797 l -0.06055,0.06055 -1.664063,1.164063 -0.558594,-0.558594 1.164063,-1.664063 0.0625,-0.0625 C 22.336016,27.035267 22.176661,26.651095 22.087891,26.248047 H 22 l -2,-0.353516 v -0.789062 l 2,-0.353516 h 0.08984 c 0.08734,-0.40347 0.245379,-0.788306 0.466797,-1.136719 l -0.06055,-0.06055 -1.164063,-1.664063 0.558594,-0.558594 1.664063,1.164063 0.0625,0.0625 c 0.347545,-0.222578 0.731717,-0.381933 1.134765,-0.470703 V 22 Z M 25.5,23 C 24.119288,23 23,24.119288 23,25.5 23,26.880712 24.119288,28 25.5,28 26.880712,28 28,26.880712 28,25.5 28,24.119288 26.880712,23 25.5,23 Z"
     style="opacity:1;fill:#fafafa;fill-opacity:1;stroke:none;stroke-width:3;stroke-linecap:round;stroke-linejoin:round;stroke-miterlimit:4;stroke-dasharray:none;stroke-dashoffset:0;stroke-opacity:1;paint-order:normal"
     inkscape:connector-curvature="0"
     sodipodi:nodetypes="cccccccccccccccccccccccccccccccccccccccccccccccccsssss" />
</svg>
