<?xml version="1.0" encoding="UTF-8" standalone="no"?>
<svg
   xmlns:dc="http://purl.org/dc/elements/1.1/"
   xmlns:cc="http://creativecommons.org/ns#"
   xmlns:rdf="http://www.w3.org/1999/02/22-rdf-syntax-ns#"
   xmlns:svg="http://www.w3.org/2000/svg"
   xmlns="http://www.w3.org/2000/svg"
   xmlns:sodipodi="http://sodipodi.sourceforge.net/DTD/sodipodi-0.dtd"
   xmlns:inkscape="http://www.inkscape.org/namespaces/inkscape"
   viewBox="0 0 32 32"
   version="1.1"
   id="svg14"
   sodipodi:docname="edit.svg"
   inkscape:version="0.92.3 (2405546, 2018-03-11)">
  <metadata
     id="metadata20">
    <rdf:RDF>
      <cc:Work
         rdf:about="">
        <dc:format>image/svg+xml</dc:format>
        <dc:type
           rdf:resource="http://purl.org/dc/dcmitype/StillImage" />
        <dc:title />
      </cc:Work>
    </rdf:RDF>
  </metadata>
  <defs
     id="defs18" />
  <sodipodi:namedview
     pagecolor="#fafafafff"
     bordercolor="#666666"
     borderopacity="1"
     objecttolerance="10"
     gridtolerance="10"
     guidetolerance="10"
     inkscape:pageopacity="0"
     inkscape:pageshadow="2"
     inkscape:window-width="1366"
     inkscape:window-height="704"
     id="namedview16"
     showgrid="true"
     inkscape:zoom="16.987346"
     inkscape:cx="16.893536"
     inkscape:cy="16.572996"
     inkscape:window-x="0"
     inkscape:window-y="0"
     inkscape:window-maximized="1"
     inkscape:current-layer="svg14">
    <inkscape:grid
       type="xygrid"
       id="grid863" />
  </sodipodi:namedview>
  <path
     style="fill:#922e9b"
     d="m 26.990234,15 c -0.47634,0 -0.960481,0.191413 -1.316406,0.546875 l -0.04492,0.04492 -0.71289,0.699172 -8.513672,8.490234 c -0.12935,0.129785 -0.220559,0.292611 -0.263672,0.470703 l -1.109375,4.509766 c -0.18056,0.736892 0.492975,1.39863 1.226562,1.205078 l 4.441407,-1.179688 c 0.170685,-0.04524 0.326349,-0.134867 0.451172,-0.259765 l 7.300781,-7.28711 1.988281,-1.904296 c 0.0053,-0.0052 0.01048,-0.01036 0.01563,-0.01563 0.717861,-0.716871 0.717858,-1.917892 0,-2.634765 L 28.310547,15.546875 C 27.949209,15.186038 27.46662,15 26.990234,15 Z"
     id="path843"
     inkscape:connector-curvature="0"
     sodipodi:nodetypes="sccccccccccccccs" />
  <g
     style="fill:#fb983b"
     transform="matrix(1.1667513,0,0,1.1666667,3.1657358,3.1666671)"
     id="g18">
    <path
       style="fill:#0063b1"
       inkscape:connector-curvature="0"
       d="M 25.623047,17 17.109375,25.490234 16,30 20.441406,28.820312 27.75,21.525391 24.427734,18.201172 25.626953,17.003906 Z m -1.197266,2.519531 2.003907,2.00586 -5.751954,5.738281 -2.009765,-2.009766 z m -6.464843,6.441407 2.009765,2.009765 -0.01172,0.01172 -2.675781,0.710937 0.669922,-2.726562 z"
       transform="matrix(0.85708068,0,0,0.85714283,-2.713291,-2.714286)"
       id="path8" />
    <path
       style="fill:#0063b1"
       inkscape:connector-curvature="0"
       d="m 26.990234,16 c -0.221171,0 -0.439899,0.08465 -0.609375,0.253906 l -1.953125,1.947266 3.322266,3.324219 1.996094,-1.91211 c 0.338948,-0.338481 0.338948,-0.88222 0,-1.220703 L 27.603516,16.253906 C 27.43404,16.084665 27.211406,16 26.990234,16 Z m 0,0.998047 2.00586,2.003906 -1.232422,1.179688 -1.978516,-1.980469 z"
       transform="matrix(0.85708068,0,0,0.85714283,-2.713291,-2.714286)"
       id="path10" />
    <g
       style="fill:#83beec"
       id="g16">
      <path
         inkscape:connector-curvature="0"
         d="m 20.419922,11.855469 -1.033203,1.03125 1.695312,1.697265 1.056641,-1.011718 z"
         id="path12" />
      <path
         style="stroke-width:1.16670895"
         inkscape:connector-curvature="0"
         d="m 24.425781,19.519531 -5.757812,5.734375 2.009765,2.009766 5.751954,-5.738281 z m -6.464843,6.441407 -0.0078,0.0059 -0.669922,2.726562 2.675781,-0.710937 0.01172,-0.01172 z"
         transform="matrix(0.85708068,0,0,0.85714283,-2.713291,-2.714286)"
         id="path14" />
    </g>
  </g>
</svg>
