<?xml version="1.0" encoding="UTF-8" standalone="no"?>
<svg
   xmlns:dc="http://purl.org/dc/elements/1.1/"
   xmlns:cc="http://creativecommons.org/ns#"
   xmlns:rdf="http://www.w3.org/1999/02/22-rdf-syntax-ns#"
   xmlns:svg="http://www.w3.org/2000/svg"
   xmlns="http://www.w3.org/2000/svg"
   xmlns:sodipodi="http://sodipodi.sourceforge.net/DTD/sodipodi-0.dtd"
   xmlns:inkscape="http://www.inkscape.org/namespaces/inkscape"
   viewBox="0 0 24 24"
   version="1.1"
   id="svg24"
   sodipodi:docname="lc_apply.svg"
   inkscape:version="0.92.3 (2405546, 2018-03-11)">
  <metadata
     id="metadata30">
    <rdf:RDF>
      <cc:Work
         rdf:about="">
        <dc:format>image/svg+xml</dc:format>
        <dc:type
           rdf:resource="http://purl.org/dc/dcmitype/StillImage" />
        <dc:title />
      </cc:Work>
    </rdf:RDF>
  </metadata>
  <defs
     id="defs28" />
  <sodipodi:namedview
     pagecolor="#ffffff"
     bordercolor="#666666"
     borderopacity="1"
     objecttolerance="10"
     gridtolerance="10"
     guidetolerance="10"
     inkscape:pageopacity="0"
     inkscape:pageshadow="2"
     inkscape:window-width="1366"
     inkscape:window-height="704"
     id="namedview26"
     showgrid="true"
     inkscape:pagecheckerboard="true"
     inkscape:snap-global="true"
     inkscape:zoom="22.318059"
     inkscape:cx="5.2713526"
     inkscape:cy="11.708365"
     inkscape:window-x="0"
     inkscape:window-y="0"
     inkscape:window-maximized="1"
     inkscape:current-layer="svg24">
    <inkscape:grid
       type="xygrid"
       id="grid840" />
  </sodipodi:namedview>
  <path
     sodipodi:type="inkscape:offset"
     inkscape:radius="1"
     inkscape:original="M 22 11 L 13 20 L 10 17 L 9 18 L 13 22 L 23 12 L 22 11 z "
     style="fill:#922e9b;stroke:none;stroke-width:1px;stroke-linecap:butt;stroke-linejoin:miter;stroke-opacity:1"
     id="path907"
     d="m 21.984375,10 a 1.0001,1.0001 0 0 0 -0.691406,0.292969 L 13,18.585938 10.707031,16.292969 a 1.0001,1.0001 0 0 0 -1.4140622,0 l -1,1 a 1.0001,1.0001 0 0 0 0,1.414062 l 4.0000002,4 a 1.0001,1.0001 0 0 0 1.414062,0 l 10,-10 a 1.0001,1.0001 0 0 0 0,-1.414062 l -1,-1 A 1.0001,1.0001 0 0 0 21.984375,10 Z"
     transform="translate(4.6610184e-8,1.0000003)" />
  <path
     style="fill:#1e8bcd;stroke:none;stroke-width:1px;stroke-linecap:butt;stroke-linejoin:miter;stroke-opacity:1"
     d="M 10,18 9.0000001,19 13,23 23,13 22,12 13,21 Z"
     id="path849"
     inkscape:connector-curvature="0" />
</svg>
