<?xml version="1.0" encoding="UTF-8" standalone="no"?>
<?xml-stylesheet type="text/css" href="icons.css" ?><svg
   xmlns:dc="http://purl.org/dc/elements/1.1/"
   xmlns:cc="http://creativecommons.org/ns#"
   xmlns:rdf="http://www.w3.org/1999/02/22-rdf-syntax-ns#"
   xmlns:svg="http://www.w3.org/2000/svg"
   xmlns="http://www.w3.org/2000/svg"
   xmlns:sodipodi="http://sodipodi.sourceforge.net/DTD/sodipodi-0.dtd"
   xmlns:inkscape="http://www.inkscape.org/namespaces/inkscape"
   viewBox="0 0 24 24"
   version="1.1"
   id="svg11"
   sodipodi:docname="lc_configure2.svg"
   inkscape:version="0.92.5 (2060ec1f9f, 2020-04-08)">
  <metadata
     id="metadata17">
    <rdf:RDF>
      <cc:Work
         rdf:about="">
        <dc:format>image/svg+xml</dc:format>
        <dc:type
           rdf:resource="http://purl.org/dc/dcmitype/StillImage" />
        <dc:title></dc:title>
      </cc:Work>
    </rdf:RDF>
  </metadata>
  <defs
     id="defs15" />
  <sodipodi:namedview
     pagecolor="#ffffff"
     bordercolor="#666666"
     borderopacity="1"
     objecttolerance="10"
     gridtolerance="10"
     guidetolerance="10"
     inkscape:pageopacity="0"
     inkscape:pageshadow="2"
     inkscape:window-width="1920"
     inkscape:window-height="1002"
     id="namedview13"
     showgrid="true"
     inkscape:pagecheckerboard="true"
     inkscape:zoom="13.906433"
     inkscape:cx="24.223057"
     inkscape:cy="0.19644458"
     inkscape:window-x="0"
     inkscape:window-y="0"
     inkscape:window-maximized="1"
     inkscape:current-layer="svg11">
    <inkscape:grid
       type="xygrid"
       id="grid824" />
  </sodipodi:namedview>
  <g
     id="symbol-background"
     class="icn icn--background"
     fill="#fff"
     stroke="#fff"
     stroke-width="3px"
     stroke-linecap="round"
     stroke-linejoin="round">
    <path
       d="M 18 13.5 A 4.5 4.5 0 0 0 13.5 18 A 4.5 4.5 0 0 0 18 22.5 A 4.5 4.5 0 0 0 22.5 18 A 4.5 4.5 0 0 0 18 13.5 z "
       id="path5" />
  </g>
  <path
     style="fill:#1e8bcd;stroke:none;stroke-width:1px;stroke-linecap:butt;stroke-linejoin:miter;stroke-opacity:1"
     d="m 23,18 c -6.47e-4,-0.343279 -0.03664,-0.685584 -0.107422,-1.021484 l -2.320312,-0.464844 0.755859,-2.236328 C 20.814881,13.818677 20.212461,13.470923 19.558594,13.255858 L 18,15.029297 17.531251,14.496094 16.4375,13.253906 c -0.288253,0.09362 -0.567398,0.213248 -0.833984,0.357422 -0.335712,0.185464 -0.64898,0.408939 -0.933594,0.666016 l 0.757812,2.236328 -2.316406,0.464844 C 13.03924,17.314285 13.0019,17.656586 13,18 c 6.47e-4,0.343279 0.03664,0.685584 0.107422,1.021484 l 2.320312,0.464844 -0.755859,2.236328 c 0.513244,0.458667 1.115664,0.806421 1.769531,1.021486 l 1.558595,-1.773439 1.562499,1.775391 c 0.288253,-0.09362 0.567396,-0.213252 0.833984,-0.357422 0.335712,-0.185464 0.64897,-0.408939 0.933594,-0.666016 l -0.757812,-2.236328 2.316406,-0.464844 C 22.96076,18.685715 22.9981,18.343414 23,18 Z m -1,-0.179687 1e-6,0.359375 -1.625001,0.326171 a 1.0001,1.0001 0 0 0 -0.75,1.300782 l 0.529297,1.5625 0.0019,0.0059 -0.312499,0.179688 -1.091797,-1.244141 a 1.0001,1.0001 0 0 0 -1.503906,0 l -1.091797,1.244141 -0.3125,-0.179687 0.53125,-1.56836 a 1.0001,1.0001 0 0 0 -0.75,-1.300782 l -1.625,-0.326171 -10e-7,-0.359376 1.625001,-0.326171 a 1.0001,1.0001 0 0 0 0.75,-1.300782 l -0.53125,-1.568359 0.3125,-0.179688 1.091797,1.244141 a 1.0001,1.0001 0 0 0 0.865233,0.333985 1.0001,1.0001 0 0 0 0.638673,-0.333985 l 1.091796,-1.244141 0.312501,0.179688 -0.53125,1.568359 a 1.0001,1.0001 0 0 0 0.75,1.300782 z"
     id="path831"
     inkscape:connector-curvature="0" />
  <path
     style="opacity:1;fill:#1e8bcd;fill-opacity:1;stroke:none;stroke-width:1;stroke-linecap:round;stroke-linejoin:round;stroke-miterlimit:4;stroke-dasharray:none;stroke-opacity:0.49019608"
     d="m 19,18 a 1,1 0 0 1 -1,1 1,1 0 0 1 -1,-1 1,1 0 0 1 1,-1 1,1 0 0 1 1,1 z"
     id="path872" />
</svg>
