<?xml version="1.0" encoding="UTF-8" standalone="no"?>
<svg
   xmlns:dc="http://purl.org/dc/elements/1.1/"
   xmlns:cc="http://creativecommons.org/ns#"
   xmlns:rdf="http://www.w3.org/1999/02/22-rdf-syntax-ns#"
   xmlns:svg="http://www.w3.org/2000/svg"
   xmlns="http://www.w3.org/2000/svg"
   xmlns:sodipodi="http://sodipodi.sourceforge.net/DTD/sodipodi-0.dtd"
   xmlns:inkscape="http://www.inkscape.org/namespaces/inkscape"
   viewBox="0 0 24 24"
   version="1.1"
   id="svg8"
   sodipodi:docname="lc_delete.svg"
   inkscape:version="0.92.3 (2405546, 2018-03-11)">
  <metadata
     id="metadata14">
    <rdf:RDF>
      <cc:Work
         rdf:about="">
        <dc:format>image/svg+xml</dc:format>
        <dc:type
           rdf:resource="http://purl.org/dc/dcmitype/StillImage" />
        <dc:title></dc:title>
      </cc:Work>
    </rdf:RDF>
  </metadata>
  <defs
     id="defs12" />
  <sodipodi:namedview
     pagecolor="#fafafafff"
     bordercolor="#666666"
     borderopacity="1"
     objecttolerance="10"
     gridtolerance="10"
     guidetolerance="10"
     inkscape:pageopacity="0"
     inkscape:pageshadow="2"
     inkscape:window-width="1366"
     inkscape:window-height="704"
     id="namedview10"
     showgrid="true"
     inkscape:pagecheckerboard="true"
     inkscape:snap-global="false"
     inkscape:zoom="16"
     inkscape:cx="8.4590816"
     inkscape:cy="11.33439"
     inkscape:window-x="0"
     inkscape:window-y="0"
     inkscape:window-maximized="1"
     inkscape:current-layer="svg8">
    <inkscape:grid
       type="xygrid"
       id="grid821" />
  </sodipodi:namedview>
  <path
     sodipodi:type="inkscape:offset"
     inkscape:radius="0.99945819"
     inkscape:original="M 12.714844 12 L 12 12.714844 L 16.285156 17 L 12 21.285156 L 12.714844 22 L 17 17.714844 L 21.285156 22 L 22 21.285156 L 17.714844 17 L 22 12.714844 L 21.285156 12 L 17 16.285156 L 12.714844 12 z "
     style="opacity:1;fill:#a846b2;fill-opacity:1;stroke:none;stroke-width:3.03045797;stroke-linecap:round;stroke-linejoin:round;stroke-miterlimit:4;stroke-dasharray:none;stroke-dashoffset:0;stroke-opacity:1;paint-order:normal"
     id="path836"
     d="m 12.699219,11 a 0.99955814,0.99955814 0 0 0 -0.691407,0.292969 l -0.714843,0.714843 a 0.99955814,0.99955814 0 0 0 0,1.414063 L 14.871094,17 11.292969,20.578125 a 0.99955814,0.99955814 0 0 0 0,1.414063 l 0.714843,0.714843 a 0.99955814,0.99955814 0 0 0 1.414063,0 L 17,19.128906 l 3.578125,3.578125 a 0.99955814,0.99955814 0 0 0 1.414063,0 l 0.714843,-0.714843 a 0.99955814,0.99955814 0 0 0 0,-1.414063 L 19.128906,17 22.707031,13.421875 a 0.99955814,0.99955814 0 0 0 0,-1.414063 l -0.714843,-0.714843 a 0.99955814,0.99955814 0 0 0 -1.414063,0 L 17,14.871094 13.421875,11.292969 A 0.99955814,0.99955814 0 0 0 12.699219,11 Z"
     transform="translate(0.99996796,0.99996796)" />
  <path
     style="opacity:1;fill:#ed3d3b;fill-opacity:1;stroke:none;stroke-width:3.03045797;stroke-linecap:round;stroke-linejoin:round;stroke-miterlimit:4;stroke-dasharray:none;stroke-dashoffset:0;stroke-opacity:1;paint-order:normal"
     d="m 22.285683,12.999968 -4.285715,4.285714 -4.285715,-4.285714 -0.714285,0.714285 4.285714,4.285715 -4.285714,4.285715 0.714285,0.714285 4.285715,-4.285714 4.285715,4.285714 0.714285,-0.714285 -4.285714,-4.285715 4.285714,-4.285715 z"
     id="rect823"
     inkscape:connector-curvature="0"
     sodipodi:nodetypes="ccccccccccccc" />
</svg>
