<?xml version="1.0" encoding="UTF-8" standalone="no"?>
<svg
   xmlns:dc="http://purl.org/dc/elements/1.1/"
   xmlns:cc="http://creativecommons.org/ns#"
   xmlns:rdf="http://www.w3.org/1999/02/22-rdf-syntax-ns#"
   xmlns:svg="http://www.w3.org/2000/svg"
   xmlns="http://www.w3.org/2000/svg"
   xmlns:sodipodi="http://sodipodi.sourceforge.net/DTD/sodipodi-0.dtd"
   xmlns:inkscape="http://www.inkscape.org/namespaces/inkscape"
   viewBox="0 0 24 24"
   version="1.1"
   id="svg20"
   sodipodi:docname="lc_edit2.svg"
   inkscape:version="0.92.3 (2405546, 2018-03-11)">
  <metadata
     id="metadata26">
    <rdf:RDF>
      <cc:Work
         rdf:about="">
        <dc:format>image/svg+xml</dc:format>
        <dc:type
           rdf:resource="http://purl.org/dc/dcmitype/StillImage" />
        <dc:title></dc:title>
      </cc:Work>
    </rdf:RDF>
  </metadata>
  <defs
     id="defs24" />
  <sodipodi:namedview
     pagecolor="#ffffff"
     bordercolor="#666666"
     borderopacity="1"
     objecttolerance="10"
     gridtolerance="10"
     guidetolerance="10"
     inkscape:pageopacity="0"
     inkscape:pageshadow="2"
     inkscape:window-width="1366"
     inkscape:window-height="704"
     id="namedview22"
     showgrid="true"
     inkscape:pagecheckerboard="true"
     inkscape:zoom="8"
     inkscape:cx="-10.67388"
     inkscape:cy="-1.4481895"
     inkscape:window-x="0"
     inkscape:window-y="0"
     inkscape:window-maximized="1"
     inkscape:current-layer="svg20">
    <inkscape:grid
       type="xygrid"
       id="grid833" />
  </sodipodi:namedview>
  <path
     style="fill:#922e9b"
     d="m 20.419922,6.9960938 c -0.4426,0 -0.896892,0.1765975 -1.232422,0.5117187 L 17.513672,9.1757812 8.710938,17.958984 7.9980469,18.666016 7.2910156,19.373047 c -0.024017,0.02358 -0.046832,0.04835 -0.068359,0.07422 -0.072329,0.0885 -0.1225088,0.188573 -0.1601562,0.291015 -0.00652,0.01774 -0.012096,0.03473 -0.017578,0.05273 l -0.1835938,0.570312 -0.8359375,3.398438 c -0.1819527,0.740346 0.4957052,1.405117 1.2324219,1.208984 l 3.8066405,-1.011719 c 0.171326,-0.04507 0.327666,-0.134691 0.453125,-0.259765 L 21.603516,13.585938 c 0.05748,-0.03614 0.111138,-0.07802 0.160156,-0.125 l 1.710937,-1.638672 c 0.0053,-0.0052 0.01047,-0.01036 0.01563,-0.01563 0.671055,-0.670179 0.671053,-1.794665 0,-2.4648441 L 21.654297,7.5078125 C 21.31561,7.1695685 20.862567,6.9960936 20.419922,6.9960938 Z"
     id="path835"
     inkscape:connector-curvature="0"
     sodipodi:nodetypes="sccccccsccccccccccccs" />
  <g
     transform="translate(-1,-4)"
     id="g18"
     style="fill:#fb983b">
    <path
       d="m 20.419922,11 c -0.189562,0 -0.378184,0.07172 -0.523438,0.216797 l -1.673828,1.669922 2.847656,2.849609 1.710938,-1.638672 c 0.290506,-0.290127 0.290506,-0.756747 0,-1.046875 L 20.945312,11.216797 C 20.800058,11.071733 20.609484,11 20.419922,11 Z m 0,0.990234 1.582031,1.580078 -0.917969,0.88086 -1.5625,-1.5625 z"
       transform="translate(1,1)"
       id="path8"
       inkscape:connector-curvature="0"
       style="fill:#0063b1" />
    <path
       d="m 21.419922,12.990234 -0.898438,0.898438 1.5625,1.5625 0.917969,-0.88086 z"
       id="path10"
       inkscape:connector-curvature="0"
       style="fill:#83beec" />
    <g
       transform="translate(1,1)"
       id="g16">
      <path
         d="m 8.708984,22.376953 -0.002,-0.002 L 8,23.082031 l 0.002,0.002 -0.05078,0.05078 L 7,27 10.806641,25.988281 21.050781,15.716797 18.222656,12.886719 Z m 9.511719,-8.191406 1.53125,1.533203 -8.841797,8.861328 -1.550781,-1.552734 z m -9.509765,9.708984 1.34375,1.341797 -1.791016,0.476563 z"
         id="path12"
         inkscape:connector-curvature="0"
         style="fill:#0063b1"
         sodipodi:nodetypes="ccccccccccccccccccc" />
      <path
         d="m 18.220703,14.185547 1.53125,1.533203 -8.841797,8.861328 -1.550781,-1.552734 z m -9.509765,9.708984 1.34375,1.341797 -1.791016,0.476563 z"
         id="path14"
         inkscape:connector-curvature="0"
         style="fill:#83beec"
         sodipodi:nodetypes="ccccccccc" />
    </g>
  </g>
</svg>
