<?xml version="1.0" encoding="UTF-8" standalone="no"?>
<svg
   xmlns:dc="http://purl.org/dc/elements/1.1/"
   xmlns:cc="http://creativecommons.org/ns#"
   xmlns:rdf="http://www.w3.org/1999/02/22-rdf-syntax-ns#"
   xmlns:svg="http://www.w3.org/2000/svg"
   xmlns="http://www.w3.org/2000/svg"
   xmlns:sodipodi="http://sodipodi.sourceforge.net/DTD/sodipodi-0.dtd"
   xmlns:inkscape="http://www.inkscape.org/namespaces/inkscape"
   viewBox="0 0 24 24"
   version="1.1"
   id="svg20"
   sodipodi:docname="lc_edit.svg"
   inkscape:version="0.92.3 (2405546, 2018-03-11)">
  <metadata
     id="metadata26">
    <rdf:RDF>
      <cc:Work
         rdf:about="">
        <dc:format>image/svg+xml</dc:format>
        <dc:type
           rdf:resource="http://purl.org/dc/dcmitype/StillImage" />
        <dc:title></dc:title>
      </cc:Work>
    </rdf:RDF>
  </metadata>
  <defs
     id="defs24" />
  <sodipodi:namedview
     pagecolor="#ffffff"
     bordercolor="#666666"
     borderopacity="1"
     objecttolerance="10"
     gridtolerance="10"
     guidetolerance="10"
     inkscape:pageopacity="0"
     inkscape:pageshadow="2"
     inkscape:window-width="1366"
     inkscape:window-height="704"
     id="namedview22"
     showgrid="true"
     inkscape:pagecheckerboard="true"
     inkscape:snap-global="true"
     inkscape:zoom="16.941782"
     inkscape:cx="21.177199"
     inkscape:cy="7.7415464"
     inkscape:window-x="0"
     inkscape:window-y="0"
     inkscape:window-maximized="1"
     inkscape:current-layer="svg20">
    <inkscape:grid
       type="xygrid"
       id="grid833" />
  </sodipodi:namedview>
  <path
     style="fill:#922e9b"
     d="m 20.419922,9.9960938 c -0.4426,0 -0.896892,0.1765972 -1.232422,0.5117182 l -1.673828,1.667969 -4.802734,4.783203 -0.712891,0.707032 -0.707031,0.707031 c -0.02402,0.02358 -0.04683,0.04835 -0.06836,0.07422 -0.135697,0.16604 -0.210241,0.364388 -0.224073,0.565876 l -0.137257,0.348186 -0.835937,3.398438 c -0.1819524,0.740346 0.495705,1.405116 1.232421,1.208984 l 3.806641,-1.011719 c 0.171533,-0.04562 0.327893,-0.135933 0.453125,-0.261719 l 6.080078,-6.107421 c 0.05961,-0.03642 0.115248,-0.07897 0.166016,-0.126953 l 1.710937,-1.638672 c 0.0053,-0.0052 0.01048,-0.01036 0.01563,-0.01563 0.671055,-0.670179 0.671053,-1.794665 0,-2.464844 l -1.83594,-1.833981 C 21.31561,10.169569 20.862568,9.9960938 20.419922,9.9960938 Z"
     id="path835"
     inkscape:connector-curvature="0"
     sodipodi:nodetypes="sccccccccccccccccccs" />
  <g
     fill="#fb983b"
     transform="translate(-1 -1)"
     id="g18">
    <path
       d="m20.419922 11c-.189562 0-.378184.07172-.523438.216797l-1.673828 1.669922 2.847656 2.849609 1.710938-1.638672c.290506-.290127.290506-.756747 0-1.046875l-1.835938-1.833984c-.145254-.145064-.335828-.216797-.52539-.216797zm0 .990234 1.582031 1.580078-.917969.88086-1.5625-1.5625z"
       fill="#0063b1"
       transform="translate(1 1)"
       id="path8" />
    <path
       d="m21.419922 12.990234-.898438.898438 1.5625 1.5625.917969-.88086z"
       fill="#83beec"
       id="path10" />
    <g
       transform="translate(1 1)"
       id="g16">
      <path
         d="m12.708984 18.376953-.002-.002-.706984.707078.002.002-.05078.05078-.95122 3.865189 3.806641-1.011719 6.24414-6.271484-2.828125-2.830078zm5.511719-4.191406 1.53125 1.533203-4.841797 4.861328-1.550781-1.552734zm-5.509765 5.708984 1.34375 1.341797-1.791016.476563z"
         fill="#0063b1"
         id="path12" />
      <path
         d="m18.220703 14.185547 1.53125 1.533203-4.841797 4.861328-1.550781-1.552734zm-5.509765 5.708984 1.34375 1.341797-1.791016.476563z"
         fill="#83beec"
         id="path14" />
    </g>
  </g>
</svg>
