<?xml version="1.0" encoding="UTF-8" standalone="no"?>
<svg
   xmlns:dc="http://purl.org/dc/elements/1.1/"
   xmlns:cc="http://creativecommons.org/ns#"
   xmlns:rdf="http://www.w3.org/1999/02/22-rdf-syntax-ns#"
   xmlns:svg="http://www.w3.org/2000/svg"
   xmlns="http://www.w3.org/2000/svg"
   xmlns:sodipodi="http://sodipodi.sourceforge.net/DTD/sodipodi-0.dtd"
   xmlns:inkscape="http://www.inkscape.org/namespaces/inkscape"
   viewBox="0 0 24 24"
   version="1.1"
   id="svg53"
   sodipodi:docname="lc_import.svg"
   inkscape:version="0.92.3 (2405546, 2018-03-11)">
  <metadata
     id="metadata59">
    <rdf:RDF>
      <cc:Work
         rdf:about="">
        <dc:format>image/svg+xml</dc:format>
        <dc:type
           rdf:resource="http://purl.org/dc/dcmitype/StillImage" />
        <dc:title></dc:title>
      </cc:Work>
    </rdf:RDF>
  </metadata>
  <defs
     id="defs57" />
  <sodipodi:namedview
     pagecolor="#ffffff"
     bordercolor="#666666"
     borderopacity="1"
     objecttolerance="10"
     gridtolerance="10"
     guidetolerance="10"
     inkscape:pageopacity="0"
     inkscape:pageshadow="2"
     inkscape:window-width="1366"
     inkscape:window-height="704"
     id="namedview55"
     showgrid="true"
     inkscape:zoom="16"
     inkscape:cx="13.452578"
     inkscape:cy="7.4385386"
     inkscape:window-x="0"
     inkscape:window-y="0"
     inkscape:window-maximized="1"
     inkscape:current-layer="svg53">
    <inkscape:grid
       type="xygrid"
       id="grid875" />
  </sodipodi:namedview>
  <linearGradient
     id="a"
     gradientTransform="matrix(1.3333333 0 0 1 1 7)"
     gradientUnits="userSpaceOnUse"
     x1="12"
     x2="12"
     y1="3"
     y2="5">
    <stop
       offset="0"
       stop-color="#c8c8cb"
       id="stop2" />
    <stop
       offset="1"
       stop-color="#98989d"
       id="stop4" />
  </linearGradient>
  <linearGradient
     id="b"
     gradientTransform="matrix(-1 0 0 1 18 0)"
     gradientUnits="userSpaceOnUse"
     x1="18"
     x2="18"
     y1="-1.000001"
     y2="18.999999">
    <stop
       offset="0"
       stop-color="#848489"
       id="stop7" />
    <stop
       offset="1"
       stop-color="#616165"
       id="stop9" />
  </linearGradient>
  <linearGradient
     id="c"
     gradientUnits="userSpaceOnUse"
     x1="3"
     x2="3"
     y1="18.99863"
     y2="8.99863"
     gradientTransform="translate(6,3)">
    <stop
       offset="0"
       stop-color="#0040dd"
       id="stop12" />
    <stop
       offset="1"
       stop-color="#0a84ff"
       id="stop14" />
  </linearGradient>
  <linearGradient
     id="d"
     gradientUnits="userSpaceOnUse"
     x1="63"
     x2="63"
     y1="35"
     y2="20">
    <stop
       offset="0"
       stop-color="#e9e9e9"
       id="stop17" />
    <stop
       offset=".2857143"
       stop-color="#f2f2f2"
       id="stop19" />
    <stop
       offset="1"
       stop-color="#fbfbfb"
       id="stop21" />
  </linearGradient>
  <filter
     id="e"
     color-interpolation-filters="sRGB"
     height="1.094553"
     width="1.097492"
     x="-.048746"
     y="-.047277">
    <feGaussianBlur
       stdDeviation=".36559322"
       id="feGaussianBlur24" />
  </filter>
  <g
     transform="translate(0 -6)"
     id="g49">
    <path
       sodipodi:type="inkscape:offset"
       inkscape:radius="0.99611098"
       inkscape:original="M 8.5058594 5.9960938 C 8.3780504 5.9960938 8.2502787 6.0446428 8.1523438 6.1425781 C 7.9564756 6.3384471 7.9564756 6.6556935 8.1523438 6.8515625 L 11.292969 10 L 0.5 10 C 0.223 10 0 10.223 0 10.5 C 0 10.777 0.223 11 0.5 11 L 11.292969 11 L 8.1523438 14.148438 C 7.9564756 14.344307 7.9564758 14.661553 8.1523438 14.857422 C 8.2502787 14.955352 8.3780504 15.003906 8.5058594 15.003906 C 8.6336674 15.003906 8.7633981 14.955356 8.8613281 14.857422 L 12.853516 10.853516 C 12.900536 10.806506 12.937586 10.75028 12.962891 10.6875 C 12.986231 10.629596 13 10.56645 13 10.5 C 13 10.43355 12.986231 10.370404 12.962891 10.3125 C 12.937591 10.24972 12.900531 10.193497 12.853516 10.146484 L 8.8613281 6.1425781 C 8.7633981 6.0446481 8.6336674 5.9960936 8.5058594 5.9960938 z "
       style="opacity:1;fill:#922e9b;fill-opacity:1;stroke:none;stroke-width:0.5;stroke-linecap:round;stroke-linejoin:round;stroke-miterlimit:4;stroke-dasharray:none;stroke-dashoffset:0;stroke-opacity:1;paint-order:normal"
       id="path1500"
       d="M 8.5058594,5 C 8.125798,5 7.7351263,5.1496382 7.4472656,5.4375 c -0.5761465,0.5761489 -0.5761465,1.5429917 0,2.1191406 L 8.8925781,9.0039062 H 0.5 c -0.81161552,0 -1.49609375,0.6844783 -1.49609375,1.4960938 0,0.811616 0.68447823,1.496094 1.49609375,1.496094 h 8.3925781 l -1.4453125,1.449218 c -0.5747816,0.576308 -0.5756903,1.541495 0,2.117188 C 7.7351131,15.850333 8.125772,16 8.5058594,16 8.885927,16 9.273846,15.855072 9.5664062,15.5625 a 0.99621059,0.99621059 0 0 0 0,-0.002 l 3.9921878,-4.001953 v -0.002 c 0.142282,-0.142575 0.254082,-0.312399 0.328125,-0.496094 0.06643,-0.164815 0.109375,-0.356495 0.109375,-0.560547 0,-0.204052 -0.04294,-0.395732 -0.109375,-0.5605469 C 13.812633,9.755616 13.700761,9.5858432 13.558594,9.4433594 v -0.00195 L 9.5664062,5.4394531 a 0.99621059,0.99621059 0 0 0 0,-0.00195 C 9.2738576,5.1449514 8.8859514,4.9999994 8.5058594,5 Z"
       transform="translate(0,6)" />
    <path
       style="opacity:1;fill:#1e8bcd;fill-opacity:1;stroke:none;stroke-width:0.5;stroke-linecap:round;stroke-linejoin:round;stroke-miterlimit:4;stroke-dasharray:none;stroke-dashoffset:0;stroke-opacity:1;paint-order:normal"
       d="M 8.5058594 5.9960938 C 8.3780504 5.9960938 8.2502787 6.0446431 8.1523438 6.1425781 C 7.9564757 6.3384471 7.9564757 6.6556935 8.1523438 6.8515625 L 11.292969 10 L 0.5 10 C 0.223 10 0 10.223 0 10.5 C 0 10.777 0.223 11 0.5 11 L 11.292969 11 L 8.1523438 14.148438 C 7.9564757 14.344307 7.9564758 14.661553 8.1523438 14.857422 C 8.2502787 14.955356 8.3780504 15.003906 8.5058594 15.003906 C 8.6336674 15.003906 8.7633981 14.955352 8.8613281 14.857422 L 12.853516 10.853516 C 12.900531 10.806503 12.937591 10.75028 12.962891 10.6875 C 12.986231 10.629596 13 10.56645 13 10.5 C 13 10.43355 12.986231 10.370404 12.962891 10.3125 C 12.937591 10.24972 12.900531 10.193497 12.853516 10.146484 L 8.8613281 6.1425781 C 8.7633981 6.0446481 8.6336674 5.9960937 8.5058594 5.9960938 z "
       transform="translate(0,6)"
       id="rect856" />
  </g>
</svg>
