<?xml version="1.0" encoding="UTF-8" standalone="no"?>
<svg
   xmlns:dc="http://purl.org/dc/elements/1.1/"
   xmlns:cc="http://creativecommons.org/ns#"
   xmlns:rdf="http://www.w3.org/1999/02/22-rdf-syntax-ns#"
   xmlns:svg="http://www.w3.org/2000/svg"
   xmlns="http://www.w3.org/2000/svg"
   xmlns:sodipodi="http://sodipodi.sourceforge.net/DTD/sodipodi-0.dtd"
   xmlns:inkscape="http://www.inkscape.org/namespaces/inkscape"
   viewBox="0 0 24 24"
   version="1.1"
   id="svg10"
   sodipodi:docname="lc_lock.svg"
   inkscape:version="0.92.3 (2405546, 2018-03-11)">
  <metadata
     id="metadata16">
    <rdf:RDF>
      <cc:Work
         rdf:about="">
        <dc:format>image/svg+xml</dc:format>
        <dc:type
           rdf:resource="http://purl.org/dc/dcmitype/StillImage" />
        <dc:title />
      </cc:Work>
    </rdf:RDF>
  </metadata>
  <defs
     id="defs14" />
  <sodipodi:namedview
     pagecolor="#ffffff"
     bordercolor="#666666"
     borderopacity="1"
     objecttolerance="10"
     gridtolerance="10"
     guidetolerance="10"
     inkscape:pageopacity="0"
     inkscape:pageshadow="2"
     inkscape:window-width="1366"
     inkscape:window-height="704"
     id="namedview12"
     showgrid="true"
     inkscape:pagecheckerboard="true"
     inkscape:snap-smooth-nodes="true"
     inkscape:zoom="22.581272"
     inkscape:cx="9.6146317"
     inkscape:cy="5.7653836"
     inkscape:window-x="0"
     inkscape:window-y="0"
     inkscape:window-maximized="1"
     inkscape:current-layer="svg10">
    <inkscape:grid
       type="xygrid"
       id="grid823" />
  </sodipodi:namedview>
  <path
     style="fill:#922e9b"
     d="m 18,10 c -2.197294,0 -4,1.802706 -4,4 v 1 c -1.090703,0 -2,0.909297 -2,2 v 5 c 0,1.090703 0.909297,2 2,2 h 8 c 1.090703,0 2,-0.909297 2,-2 v -5 c 0,-1.085491 -0.900244,-2.000229 -2,-1.994141 V 15 14 c 0,-2.197294 -1.802706,-4 -4,-4 z"
     id="path863"
     inkscape:connector-curvature="0"
     sodipodi:nodetypes="sscssssssccss" />
  <g
     id="g861">
    <path
       sodipodi:nodetypes="sscsssssssscssssccss"
       style="fill:#ed8733"
       inkscape:connector-curvature="0"
       id="path8"
       d="m 18,11 c -1.656854,0 -3,1.343146 -3,3 v 2 h -1 c -0.554,0 -1,0.446 -1,1 v 5 c 0,0.554 0.446,1 1,1 h 8 c 0.554,0 1,-0.446 1,-1 v -5 c 0,-0.554 -0.446052,-1.007599 -1,-1 h -1 v -2 c 0,-1.656854 -1.343146,-3 -3,-3 z m 0,1 c 1.104569,0 2,0.895431 2,2 v 2 h -4 v -2 c 0,-1.104569 0.895431,-2 2,-2 z" />
    <path
       id="rect844"
       d="m 14,17 h 8 v 5 h -8 z"
       style="opacity:1;fill:#f8db8f;fill-opacity:1;stroke:none;stroke-width:1;stroke-linecap:round;stroke-linejoin:round;stroke-miterlimit:4;stroke-dasharray:none;stroke-dashoffset:0;stroke-opacity:1;paint-order:normal" />
    <path
       sodipodi:nodetypes="sscccccss"
       inkscape:connector-curvature="0"
       id="path852"
       d="m 18,17 c -1.104569,0 -2,0.895431 -2,2 v 3 h 3 v -1 h 1 v -1 -1 c 0,-1.104569 -0.895431,-2 -2,-2 z"
       style="opacity:1;fill:#ed8733;fill-opacity:1;stroke:none;stroke-width:1;stroke-linecap:round;stroke-linejoin:round;stroke-miterlimit:4;stroke-dasharray:none;stroke-dashoffset:0;stroke-opacity:1;paint-order:normal" />
    <path
       sodipodi:nodetypes="ssccccss"
       inkscape:connector-curvature="0"
       id="path847"
       d="m 18,18 c -0.552285,0 -1,0.447715 -1,1 v 2 h 1 v -1 l 1,-0.0038 V 19 c 0,-0.552285 -0.447715,-1 -1,-1 z"
       style="opacity:1;fill:#fafafa;fill-opacity:1;stroke:none;stroke-width:1;stroke-linecap:round;stroke-linejoin:round;stroke-miterlimit:4;stroke-dasharray:none;stroke-dashoffset:0;stroke-opacity:1;paint-order:normal" />
  </g>
</svg>
