<?xml version="1.0" encoding="UTF-8" standalone="no"?>
<svg
   xmlns:dc="http://purl.org/dc/elements/1.1/"
   xmlns:cc="http://creativecommons.org/ns#"
   xmlns:rdf="http://www.w3.org/1999/02/22-rdf-syntax-ns#"
   xmlns:svg="http://www.w3.org/2000/svg"
   xmlns="http://www.w3.org/2000/svg"
   xmlns:sodipodi="http://sodipodi.sourceforge.net/DTD/sodipodi-0.dtd"
   xmlns:inkscape="http://www.inkscape.org/namespaces/inkscape"
   viewBox="0 0 24 24"
   version="1.1"
   id="svg20"
   sodipodi:docname="lc_new.svg"
   inkscape:version="0.92.3 (2405546, 2018-03-11)">
  <metadata
     id="metadata26">
    <rdf:RDF>
      <cc:Work
         rdf:about="">
        <dc:format>image/svg+xml</dc:format>
        <dc:type
           rdf:resource="http://purl.org/dc/dcmitype/StillImage" />
        <dc:title></dc:title>
      </cc:Work>
    </rdf:RDF>
  </metadata>
  <defs
     id="defs24" />
  <sodipodi:namedview
     pagecolor="#ffffff"
     bordercolor="#666666"
     borderopacity="1"
     objecttolerance="10"
     gridtolerance="10"
     guidetolerance="10"
     inkscape:pageopacity="0"
     inkscape:pageshadow="2"
     inkscape:window-width="1366"
     inkscape:window-height="704"
     id="namedview22"
     showgrid="true"
     inkscape:zoom="32"
     inkscape:cx="6.1760574"
     inkscape:cy="19.131665"
     inkscape:window-x="0"
     inkscape:window-y="0"
     inkscape:window-maximized="1"
     inkscape:current-layer="svg20">
    <inkscape:grid
       type="xygrid"
       id="grid833" />
  </sodipodi:namedview>
  <path
     sodipodi:type="inkscape:offset"
     inkscape:radius="1"
     inkscape:original="M 4.5 0 C 4.223 0 4 0.223 4 0.5 L 4 2.0507812 A 2.5 2.5 0 0 0 3.1210938 2.4160156 L 0.85546875 0.15039062 C 0.65960017 -0.045477935 0.34430608 -0.045477935 0.1484375 0.15039062 C -0.0474311 0.3462592 -0.0474311 0.66155328 0.1484375 0.85742188 L 2.4140625 3.1230469 A 2.5 2.5 0 0 0 2.0546875 4 L 0.5 4 C 0.223 4 0 4.223 0 4.5 C 0 4.777 0.223 5 0.5 5 L 2.0507812 5 A 2.5 2.5 0 0 0 2.4160156 5.8769531 L 0.1484375 8.1445312 C -0.047431 8.3404 -0.047431 8.6556939 0.1484375 8.8515625 C 0.34430607 9.047431 0.65960017 9.047431 0.85546875 8.8515625 L 3.1230469 6.5839844 A 2.5 2.5 0 0 0 4 6.9453125 L 4 8.5 C 4 8.777 4.223 9 4.5 9 C 4.777 9 5 8.777 5 8.5 L 5 6.9492188 A 2.5 2.5 0 0 0 5.875 6.5839844 L 8.1425781 8.8515625 C 8.3384467 9.0474311 8.6537408 9.0474311 8.8496094 8.8515625 C 9.045478 8.6556939 9.045478 8.3404001 8.8496094 8.1445312 L 6.5839844 5.8789062 A 2.5 2.5 0 0 0 6.9453125 5 L 8.5 5 C 8.777 5 9 4.777 9 4.5 C 9 4.223 8.777 4 8.5 4 L 6.9492188 4 A 2.5 2.5 0 0 0 6.5839844 3.1230469 L 8.8496094 0.85742188 C 9.045478 0.6615533 9.045478 0.34625922 8.8496094 0.15039062 C 8.6537408 -0.045477935 8.3384467 -0.045477935 8.1425781 0.15039062 L 5.8769531 2.4160156 A 2.5 2.5 0 0 0 5 2.0546875 L 5 0.5 C 5 0.223 4.777 0 4.5 0 z "
     style="opacity:1;fill:#922e9b;fill-opacity:1;stroke:none;stroke-width:1;stroke-linecap:round;stroke-linejoin:round;stroke-miterlimit:4;stroke-dasharray:none;stroke-dashoffset:0;stroke-opacity:1;paint-order:normal"
     id="path920"
     d="M 4.5,-1 C 3.6862972,-1 3,-0.31370277 3,0.5 v 0.38085938 l -1.4375,-1.4375 c -0.57528387,-0.57528378 -1.54580988,-0.57528378 -2.12109375,0 -0.57528385,0.57528381 -0.57528385,1.54580993 0,2.12109372 L 0.87695312,3 H 0.5 C -0.31370277,3 -1,3.6862972 -1,4.5 -1,5.3137028 -0.31370277,6 0.5,6 h 0.37890625 l -1.4375,1.4375 c -0.57528285,0.5752837 -0.57528345,1.5458101 0,2.1210938 0.57528394,0.5752832 1.54580981,0.5752832 2.12109375,0 L 3,8.1210938 V 8.5 C 3,9.3137028 3.6862972,10 4.5,10 5.3137028,10 6,9.3137028 6,8.5 V 8.1230469 l 1.4355469,1.4355469 c 0.5752838,0.5752842 1.5458099,0.5752842 2.1210937,0 0.5752834,-0.5752835 0.5752824,-1.5458103 0,-2.1210938 L 8.1191406,6 H 8.5 C 9.3137028,6 10,5.3137028 10,4.5 10,3.6862972 9.3137028,3 8.5,3 H 8.1210938 L 9.5566406,1.5644531 c 0.5752834,-0.57528379 0.5752834,-1.54580991 0,-2.12109372 -0.5752839,-0.57528378 -1.5458098,-0.57528378 -2.1210937,0 L 6,0.87890625 V 0.5 C 6,-0.31370277 5.3137028,-1 4.5,-1 Z" />
  <g
     id="g918"
     transform="translate(1)">
    <path
       id="rect835"
       d="M 3.5,0 C 3.223,0 3,0.223 3,0.5 V 2.0507812 A 2.5,2.5 0 0 0 2.1210938,2.4160156 L -0.14453125,0.15039062 c -0.19586858,-0.19586857 -0.51116267,-0.19586857 -0.70703125,0 -0.1958686,0.19586858 -0.1958686,0.51116268 0,0.70703126 L 1.4140625,3.1230469 A 2.5,2.5 0 0 0 1.0546875,4 H -0.5 C -0.777,4 -1,4.223 -1,4.5 -1,4.777 -0.777,5 -0.5,5 h 1.5507812 a 2.5,2.5 0 0 0 0.3652344,0.8769531 l -2.2675781,2.2675781 c -0.1958685,0.1958687 -0.1958685,0.5111627 0,0.7070313 0.19586857,0.1958685 0.51116267,0.1958685 0.70703125,0 L 2.1230469,6.5839844 A 2.5,2.5 0 0 0 3,6.9453125 V 8.5 C 3,8.777 3.223,9 3.5,9 3.777,9 4,8.777 4,8.5 V 6.9492188 A 2.5,2.5 0 0 0 4.875,6.5839844 l 2.2675781,2.2675781 c 0.1958686,0.1958686 0.5111627,0.1958686 0.7070313,0 0.1958686,-0.1958686 0.1958686,-0.5111626 0,-0.7070313 L 5.5839844,5.8789062 A 2.5,2.5 0 0 0 5.9453125,5 H 7.5 C 7.777,5 8,4.777 8,4.5 8,4.223 7.777,4 7.5,4 H 5.9492188 A 2.5,2.5 0 0 0 5.5839844,3.1230469 l 2.265625,-2.26562502 c 0.1958686,-0.19586858 0.1958686,-0.51116268 0,-0.70703126 -0.1958686,-0.19586857 -0.5111627,-0.19586857 -0.7070313,0 L 4.8769531,2.4160156 A 2.5,2.5 0 0 0 4,2.0546875 V 0.5 C 4,0.223 3.777,0 3.5,0 Z m 0,3 A 1.5,1.5 0 0 1 5,4.5 1.5,1.5 0 0 1 3.5,6 1.5,1.5 0 0 1 2,4.5 1.5,1.5 0 0 1 2.4394531,3.4414062 1.5,1.5 0 0 1 2.4414062,3.4394531 1.5,1.5 0 0 1 3.5,3 Z"
       style="opacity:1;fill:#fb983b;fill-opacity:1;stroke:none;stroke-width:1;stroke-linecap:round;stroke-linejoin:round;stroke-miterlimit:4;stroke-dasharray:none;stroke-dashoffset:0;stroke-opacity:1;paint-order:normal"
       inkscape:connector-curvature="0" />
    <circle
       r="1.5"
       cy="4.5"
       cx="3.5"
       id="path907"
       style="opacity:1;fill:#fafafa;fill-opacity:1;stroke:none;stroke-width:1;stroke-linecap:round;stroke-linejoin:round;stroke-miterlimit:4;stroke-dasharray:none;stroke-dashoffset:0;stroke-opacity:1;paint-order:normal" />
  </g>
</svg>
