<?xml version="1.0" encoding="UTF-8" standalone="no"?>
<svg
   xmlns:dc="http://purl.org/dc/elements/1.1/"
   xmlns:cc="http://creativecommons.org/ns#"
   xmlns:rdf="http://www.w3.org/1999/02/22-rdf-syntax-ns#"
   xmlns:svg="http://www.w3.org/2000/svg"
   xmlns="http://www.w3.org/2000/svg"
   xmlns:sodipodi="http://sodipodi.sourceforge.net/DTD/sodipodi-0.dtd"
   xmlns:inkscape="http://www.inkscape.org/namespaces/inkscape"
   viewBox="0 0 24 24"
   version="1.1"
   id="svg32"
   sodipodi:docname="lc_open.svg"
   inkscape:version="0.92.5 (2060ec1f9f, 2020-04-08)">
  <metadata
     id="metadata38">
    <rdf:RDF>
      <cc:Work
         rdf:about="">
        <dc:format>image/svg+xml</dc:format>
        <dc:type
           rdf:resource="http://purl.org/dc/dcmitype/StillImage" />
        <dc:title></dc:title>
      </cc:Work>
    </rdf:RDF>
  </metadata>
  <defs
     id="defs36" />
  <sodipodi:namedview
     pagecolor="#ffffff"
     bordercolor="#666666"
     borderopacity="1"
     objecttolerance="10"
     gridtolerance="10"
     guidetolerance="10"
     inkscape:pageopacity="0"
     inkscape:pageshadow="2"
     inkscape:window-width="1920"
     inkscape:window-height="1002"
     id="namedview34"
     showgrid="true"
     inkscape:zoom="27.812867"
     inkscape:cx="13.198773"
     inkscape:cy="12.50443"
     inkscape:window-x="0"
     inkscape:window-y="0"
     inkscape:window-maximized="1"
     inkscape:current-layer="svg32">
    <inkscape:grid
       type="xygrid"
       id="grid845" />
  </sodipodi:namedview>
  <path
     style="fill:#a846b2;fill-rule:evenodd"
     d="m 10,10 c -1.0926316,1.09e-4 -1.9998908,0.907369 -2,2 v 9 c 8.9e-5,0.891608 0.6177726,1.627454 1.4042969,1.878906 C 9.568423,22.940426 9.7729995,22.999773 9.9980469,23 H 10 20 20.710938 c 0.814342,-7.57e-4 1.553219,-0.501637 1.855468,-1.257812 0.0013,-0.002 0.0026,-0.0039 0.0039,-0.0059 0.764172,-1.948687 1.59987,-3.900556 2.337891,-5.919922 0.0064,-0.01806 0.01225,-0.0363 0.01758,-0.05469 0.15578,-0.515754 -0.101625,-1.193456 -0.410156,-1.451172 -0.154266,-0.128858 -0.29261,-0.193957 -0.412109,-0.238281 -0.05975,-0.02216 -0.105551,-0.03784 -0.191407,-0.05469 -0.02146,-0.0042 -0.04629,-0.0074 -0.08398,-0.01172 -0.02094,-0.0024 -0.06578,-0.002 -0.117187,-0.002 V 14 H 22 v -1 c -1.09e-4,-1.092632 -0.907368,-1.999891 -2,-2 H 14.472656 L 12.894531,10.210938 C 12.616809,10.072165 12.310468,9.999926 12,10 Z"
     id="path852"
     inkscape:connector-curvature="0"
     sodipodi:nodetypes="ccccccccccccccccccccccccc" />
  <path
     style="fill:#ed8733;fill-rule:evenodd"
     inkscape:connector-curvature="0"
     id="path8"
     d="m 10,11 c -0.5522619,5.5e-5 -0.9999448,0.447738 -1,1 v 9 c 5.52e-5,0.552262 0.4477381,0.999945 1,1 h 10 c 0.552262,-5.5e-5 0.999945,-0.447738 1,-1 v -8 c -5.5e-5,-0.552262 -0.447738,-0.999945 -1,-1 H 14.236328 L 12.447266,11.105469 C 12.308385,11.036073 12.155254,10.999963 12,11 Z" />
  <path
     style="fill:#fafafa;fill-rule:evenodd"
     inkscape:connector-curvature="0"
     id="path10"
     d="m 12,12 2,1 h 6 v 8 H 10 v -9 z" />
  <path
     style="fill:#ed8733;fill-rule:evenodd"
     inkscape:connector-curvature="0"
     id="path12"
     d="m 12.5,15 c -0.408698,3.8e-4 -0.776043,0.249401 -0.927734,0.628906 l -2,5 C 9.3100343,21.285373 9.2930951,21.999287 10,22 h 10.711864 c 0.408698,-3.8e-4 0.776043,-0.249401 0.927734,-0.628906 0.771674,-1.967819 1.602589,-3.912608 2.328218,-5.898067 C 24.089919,15.06877 23.683495,14.984665 23.711864,15 Z" />
  <path
     style="fill:#f8db8f;fill-rule:evenodd"
     inkscape:connector-curvature="0"
     id="path14"
     d="m 12.5,16 -2,5 h 10.211864 l 2,-5 z" />
</svg>
