<?xml version="1.0" encoding="UTF-8" standalone="no"?>
<svg
   xmlns:dc="http://purl.org/dc/elements/1.1/"
   xmlns:cc="http://creativecommons.org/ns#"
   xmlns:rdf="http://www.w3.org/1999/02/22-rdf-syntax-ns#"
   xmlns:svg="http://www.w3.org/2000/svg"
   xmlns="http://www.w3.org/2000/svg"
   xmlns:sodipodi="http://sodipodi.sourceforge.net/DTD/sodipodi-0.dtd"
   xmlns:inkscape="http://www.inkscape.org/namespaces/inkscape"
   viewBox="0 0 24 24"
   version="1.1"
   id="svg41"
   sodipodi:docname="lc_rename.svg"
   inkscape:version="0.92.3 (2405546, 2018-03-11)">
  <metadata
     id="metadata47">
    <rdf:RDF>
      <cc:Work
         rdf:about="">
        <dc:format>image/svg+xml</dc:format>
        <dc:type
           rdf:resource="http://purl.org/dc/dcmitype/StillImage" />
        <dc:title></dc:title>
      </cc:Work>
    </rdf:RDF>
  </metadata>
  <defs
     id="defs45" />
  <sodipodi:namedview
     pagecolor="#fafafafff"
     bordercolor="#666666"
     borderopacity="1"
     objecttolerance="10"
     gridtolerance="10"
     guidetolerance="10"
     inkscape:pageopacity="0"
     inkscape:pageshadow="2"
     inkscape:window-width="1366"
     inkscape:window-height="704"
     id="namedview43"
     showgrid="true"
     inkscape:pagecheckerboard="true"
     inkscape:zoom="33.883563"
     inkscape:cx="12.775584"
     inkscape:cy="15.516372"
     inkscape:window-x="0"
     inkscape:window-y="0"
     inkscape:window-maximized="1"
     inkscape:current-layer="svg41">
    <inkscape:grid
       type="xygrid"
       id="grid864" />
  </sodipodi:namedview>
  <linearGradient
     id="a"
     gradientUnits="userSpaceOnUse"
     x1="92.5"
     x2="92.5"
     y1="15"
     y2="3">
    <stop
       offset="0"
       stop-color="#0040dd"
       id="stop2" />
    <stop
       offset="1"
       stop-color="#0a84ff"
       id="stop4" />
  </linearGradient>
  <linearGradient
     id="b"
     gradientUnits="userSpaceOnUse"
     x1="12"
     x2="12"
     y1="3"
     y2="21">
    <stop
       offset="0"
       stop-color="#efefef"
       id="stop7" />
    <stop
       offset=".33333334"
       stop-color="#fafafa"
       id="stop9" />
    <stop
       offset=".8888889"
       stop-color="#fafafa"
       id="stop11" />
    <stop
       offset="1"
       stop-color="#f5f5f5"
       id="stop13" />
  </linearGradient>
  <filter
     id="c"
     color-interpolation-filters="sRGB"
     height="1.094553"
     width="1.097492"
     x="-.048746"
     y="-.047277">
    <feGaussianBlur
       stdDeviation=".36559322"
       id="feGaussianBlur16" />
  </filter>
  <path
     sodipodi:type="inkscape:offset"
     inkscape:radius="1"
     inkscape:original="M 15 5 A 1.0001 1.0001 0 0 0 14 6 L 14 7 A 1.0001 1.0001 0 0 0 15 8 L 16 8 L 16 9 L 16 19 L 16 20 L 15 20 A 1.0001 1.0001 0 0 0 14 21 L 14 22 A 1.0001 1.0001 0 0 0 15 23 L 17 23 A 1.0001 1.0001 0 0 0 17.5 22.865234 A 1.0001 1.0001 0 0 0 18 23 L 20 23 A 1.0001 1.0001 0 0 0 21 22 L 21 21 A 1.0001 1.0001 0 0 0 20 20 L 19 20 L 19 19 L 19 9 L 19 8 L 20 8 A 1.0001 1.0001 0 0 0 21 7 L 21 6 A 1.0001 1.0001 0 0 0 20 5 L 18 5 A 1.0001 1.0001 0 0 0 17.5 5.1347656 A 1.0001 1.0001 0 0 0 17 5 L 15 5 z "
     style="fill:#922e9b;fill-opacity:1"
     id="path868"
     d="m 15,4 c -1.047117,1.047e-4 -1.999895,0.9528834 -2,2 v 1 c 1.05e-4,1.0471166 0.952883,1.9998953 2,2 v 10 c -1.047117,1.05e-4 -1.999895,0.952883 -2,2 v 1 c 1.05e-4,1.047117 0.952883,1.999895 2,2 h 2 a 1.0001,1.0001 0 0 0 0.002,0 C 17.175912,23.999757 17.331999,23.910346 17.5,23.865234 17.668001,23.910346 17.824088,23.999757 17.998047,24 A 1.0001,1.0001 0 0 0 18,24 h 2 c 1.047117,-1.05e-4 1.999895,-0.952883 2,-2 v -1 c -1.05e-4,-1.047117 -0.952883,-1.999895 -2,-2 V 9 c 1.047117,-1.047e-4 1.999895,-0.9528834 2,-2 V 6 C 21.999895,4.9528834 21.047117,4.0001047 20,4 h -2 a 1.0001,1.0001 0 0 0 -0.002,0 C 17.824088,4.0002428 17.668001,4.089654 17.5,4.1347656 17.331999,4.089654 17.175912,4.0002428 17.001953,4 A 1.0001,1.0001 0 0 0 17,4 Z" />
  <path
     style="fill:#3a3a38;fill-opacity:1"
     d="M 15 5 A 1.0001 1.0001 0 0 0 14 6 L 14 7 A 1.0001 1.0001 0 0 0 15 8 L 16 8 L 16 9 L 16 19 L 16 20 L 15 20 A 1.0001 1.0001 0 0 0 14 21 L 14 22 A 1.0001 1.0001 0 0 0 15 23 L 17 23 A 1.0001 1.0001 0 0 0 17.5 22.865234 A 1.0001 1.0001 0 0 0 18 23 L 20 23 A 1.0001 1.0001 0 0 0 21 22 L 21 21 A 1.0001 1.0001 0 0 0 20 20 L 19 20 L 19 19 L 19 9 L 19 8 L 20 8 A 1.0001 1.0001 0 0 0 21 7 L 21 6 A 1.0001 1.0001 0 0 0 20 5 L 18 5 A 1.0001 1.0001 0 0 0 17.5 5.1347656 A 1.0001 1.0001 0 0 0 17 5 L 15 5 z "
     id="path37" />
  <path
     d="m15 6v1h2v-1zm2 1v14h1v-14zm1 0h2v-1h-2zm0 14v1h2v-1zm-1 0h-2v1h2z"
     fill="url(#a)"
     id="path39"
     style="fill:#fafafa" />
</svg>
