<?xml version="1.0" encoding="UTF-8" standalone="no"?>
<svg
   xmlns:dc="http://purl.org/dc/elements/1.1/"
   xmlns:cc="http://creativecommons.org/ns#"
   xmlns:rdf="http://www.w3.org/1999/02/22-rdf-syntax-ns#"
   xmlns:svg="http://www.w3.org/2000/svg"
   xmlns="http://www.w3.org/2000/svg"
   xmlns:sodipodi="http://sodipodi.sourceforge.net/DTD/sodipodi-0.dtd"
   xmlns:inkscape="http://www.inkscape.org/namespaces/inkscape"
   viewBox="0 0 24 24"
   version="1.1"
   id="svg12"
   sodipodi:docname="lc_select.svg"
   inkscape:version="0.92.3 (2405546, 2018-03-11)">
  <metadata
     id="metadata18">
    <rdf:RDF>
      <cc:Work
         rdf:about="">
        <dc:format>image/svg+xml</dc:format>
        <dc:type
           rdf:resource="http://purl.org/dc/dcmitype/StillImage" />
      </cc:Work>
    </rdf:RDF>
  </metadata>
  <defs
     id="defs16" />
  <sodipodi:namedview
     pagecolor="#ffffff"
     bordercolor="#666666"
     borderopacity="1"
     objecttolerance="10"
     gridtolerance="10"
     guidetolerance="10"
     inkscape:pageopacity="0"
     inkscape:pageshadow="2"
     inkscape:window-width="1366"
     inkscape:window-height="704"
     id="namedview14"
     showgrid="true"
     inkscape:snap-global="false"
     inkscape:zoom="16"
     inkscape:cx="10.000329"
     inkscape:cy="12.908076"
     inkscape:window-x="0"
     inkscape:window-y="0"
     inkscape:window-maximized="1"
     inkscape:current-layer="svg12">
    <inkscape:grid
       type="xygrid"
       id="grid834" />
  </sodipodi:namedview>
  <path
     style="fill:#922e9b;fill-rule:evenodd;stroke:none;stroke-linejoin:round"
     d="M 13.472656,8.0019531 A 1.498017,1.498017 0 0 0 12.001953,9.5 v 13 a 1.498017,1.498017 0 0 0 2.597656,1.017578 l 1.664063,-1.798828 0.765625,1.628906 -0.05664,-0.138672 c 0.276207,0.783522 0.975384,1.323149 1.617188,1.517578 0.641803,0.19443 1.260044,0.154053 1.84375,-0.03516 C 21.0173,24.502198 21.601048,24.143142 22,23.509766 c 0.398952,-0.633377 0.492207,-1.543954 0.222656,-2.308594 a 1.498017,1.498017 0 0 0 -0.06445,-0.154297 l -0.992187,-2.048828 h 2.185546 a 1.498017,1.498017 0 0 0 0.94336,-2.660156 L 14.443359,8.3378906 A 1.498017,1.498017 0 0 0 13.472656,8.0019531 Z"
     id="path844"
     inkscape:connector-curvature="0" />
  <path
     style="fill:#3a3a38;fill-rule:evenodd;stroke:none;stroke-linejoin:round"
     d="M 13.490234,9.0019531 A 0.49916258,0.49916258 0 0 0 13,9.5 v 13 a 0.49916258,0.49916258 0 0 0 0.867188,0.339844 l 2.669921,-2.886719 1.396485,2.970703 -0.01953,-0.04687 c 0.163359,0.463401 0.556257,0.7688 0.964844,0.892578 0.408588,0.123778 0.843466,0.103168 1.246094,-0.02734 0.402628,-0.130512 0.78484,-0.377526 1.029297,-0.765626 0.244456,-0.388099 0.311868,-0.918809 0.126953,-1.443359 a 0.49916258,0.49916258 0 0 0 -0.02148,-0.05078 L 19.572266,18 h 3.779296 a 0.49916258,0.49916258 0 0 0 0.314454,-0.886719 L 13.814453,9.1132812 A 0.49916258,0.49916258 0 0 0 13.490234,9.0019531 Z"
     id="path10-5"
     inkscape:connector-curvature="0" />
  <path
     style="fill:#fafafa;fill-rule:evenodd;stroke:none;stroke-linejoin:round"
     d="m 14.011719,10.574219 v 10.61914 l 2.287109,-2.472656 a 0.51155848,0.51155848 0 0 1 0.837891,0.130859 l 1.710937,3.642579 a 0.51155848,0.51155848 0 0 1 0.01953,0.04687 c 0.04917,0.139478 0.132087,0.20943 0.304687,0.261718 0.1726,0.05229 0.42318,0.04963 0.642578,-0.02148 0.219398,-0.07112 0.396249,-0.203842 0.484375,-0.34375 0.08692,-0.13799 0.123466,-0.286409 0.0293,-0.560547 l -2.013672,-4.154297 a 0.51155848,0.51155848 0 0 1 0.460938,-0.734375 h 3.134765 z"
     id="path838"
     inkscape:connector-curvature="0" />
</svg>
