<?xml version="1.0" encoding="UTF-8" standalone="no"?>
<svg
   xmlns:dc="http://purl.org/dc/elements/1.1/"
   xmlns:cc="http://creativecommons.org/ns#"
   xmlns:rdf="http://www.w3.org/1999/02/22-rdf-syntax-ns#"
   xmlns:svg="http://www.w3.org/2000/svg"
   xmlns="http://www.w3.org/2000/svg"
   xmlns:sodipodi="http://sodipodi.sourceforge.net/DTD/sodipodi-0.dtd"
   xmlns:inkscape="http://www.inkscape.org/namespaces/inkscape"
   viewBox="0 0 24 24"
   version="1.1"
   id="svg22"
   sodipodi:docname="lc_style.svg"
   inkscape:version="0.92.3 (2405546, 2018-03-11)">
  <metadata
     id="metadata28">
    <rdf:RDF>
      <cc:Work
         rdf:about="">
        <dc:format>image/svg+xml</dc:format>
        <dc:type
           rdf:resource="http://purl.org/dc/dcmitype/StillImage" />
        <dc:title></dc:title>
      </cc:Work>
    </rdf:RDF>
  </metadata>
  <defs
     id="defs26" />
  <sodipodi:namedview
     pagecolor="#ffffff"
     bordercolor="#666666"
     borderopacity="1"
     objecttolerance="10"
     gridtolerance="10"
     guidetolerance="10"
     inkscape:pageopacity="0"
     inkscape:pageshadow="2"
     inkscape:window-width="1366"
     inkscape:window-height="704"
     id="namedview24"
     showgrid="true"
     inkscape:zoom="21.292102"
     inkscape:cx="12.666766"
     inkscape:cy="15.359715"
     inkscape:window-x="0"
     inkscape:window-y="0"
     inkscape:window-maximized="1"
     inkscape:current-layer="svg22">
    <inkscape:grid
       type="xygrid"
       id="grid835" />
  </sodipodi:namedview>
  <g
     id="g890">
    <path
       id="path837"
       d="m 21.941406,7 c -0.355698,0.010478 -0.702408,0.1157182 -1.003906,0.3046875 -4.215115,2.6348059 -5.933258,5.2329415 -8.851562,8.7695315 -0.849898,0.145103 -1.839703,0.435558 -2.7167974,1.148437 -0.8415362,0.683978 -1.2406722,1.343169 -1.6464844,1.853516 a 1.0005291,1.0005291 0 0 0 -0.039062,0.05469 1.0005291,1.0005291 0 0 0 -0.019531,0.02734 l -1.2519531,1.607422 a 1.0005291,1.0005291 0 0 0 -0.00195,0 c -0.9864069,1.270451 -0.020536,3.245562 1.5878907,3.248047 a 1.0005291,1.0005291 0 0 0 0.00195,0 h 3 a 1.0005291,1.0005291 0 0 0 0.01953,0 c 0.01867,-3.64e-4 0.04673,-4.58e-4 0.07422,-0.002 0.0021,-10e-5 0.0037,-0.0019 0.0059,-0.002 2.007457,-0.09555 3.856122,-0.827961 5.119141,-2.082032 0.142322,-0.141685 0.263056,-0.303104 0.357422,-0.480468 0.32569,-0.610544 0.306786,-1.187868 0.287109,-1.716797 0.155329,-0.07647 0.342589,-0.07599 0.47461,-0.191407 3.627511,-3.161475 4.371484,-4.528131 6.322265,-7.421874 C 23.882024,11.78687 24.000296,11.397757 24,11 V 9 C 23.999709,7.8855378 23.055413,6.9681177 21.941406,7 Z"
       style="fill:#922e9b" />
    <path
       id="path12"
       fill="#3a3a38"
       d="m21.970703 8c-.177888.00524-.351159.057831-.501953.1523438-4.136759 2.5854742-5.700584 5.0450262-8.737621 8.7080372-.210813.253601-.283141.594786-.193359.91211.124699.438291.05849.586853.729808.897431.67132.310578 1.530176.423588 2.802734.361328.225038-.01109.439749-.0978.609376-.246094 3.574573-3.115338 4.182424-4.307327 6.15039-7.226562.11091-.165166.17007-.359644.169922-.558594v-2c-.000147-.5637669-.465761-1.0161281-1.029297-1z" />
    <path
       id="path14"
       fill="#fafafa"
       d="m22 9v2c-2 2.966753-2.5 4-5.979176 7.032197-2.365328.115723-2.378568-.032197-2.520824-.532197 3.032664-3.657737 4.5-6 8.5-8.5z" />
    <path
       id="path16"
       fill="#fafafa"
       d="m12.521484 18.03125c-.323926.050728-.668149.136039-.99414.259766-.326113.124095-.634239.287343-.888672.49414-.314064.255263-.429433.449978-.638672.714844l4.261719 1.419922c.192081-.135176.38609-.269973.537109-.419922.19996-.374848.180051-.969421.017578-1.433594v-.001953c-.054182-.154767-.124006-.293704-.207031-.40625-.150368-.173668-.346757-.299663-.558594-.390625h-.001953c-.212443-.091014-.440245-.147122-.654297-.18164-.428371-.068693-.799057-.052112-.873047-.054688z" />
    <path
       id="path18"
       fill="#0063b1"
       d="m12.515625 17.017578c-.05035.000165-.100621.0041-.150391.01172-.773679.12116-1.638455.378043-2.365234.96875-.7182932.583809-1.0383516 1.127975-1.4941406 1.701172-.00197.0032-.00392.0065-.00586.0098l-1.2988275 1.669886c-.5164462.665161-.0432845 1.633465.7988281 1.634766h3c.01564-.000305.03126-.000925.04687-.002 1.790411-.084 3.417955-.751558 4.466797-1.792969.07164-.07132.132206-.152947.179687-.242188.28179-.528248.298157-1.043096.242188-1.53125-.05597-.488151-.191681-.954835-.511719-1.388671-.000664-.0013-.0013-.0026-.002-.0039-.411673-.551823-1.022934-.934666-1.613281-1.029296-.491722-.02811-.819751-.01448-1.292969-.0059zm.0059 1.013672c.147979.0052 1.48492-.06945 2.087891.626953.332098.450185.456066 1.341999.189453 1.841797-.151019.149949-.345028.284746-.537109.419922l-4.26176-1.419922c.209239-.264866.324608-.459581.638672-.714844.508867-.413594 1.23496-.65245 1.882812-.753906zm-3.1093746 2.152344 3.3242186 1.476562c-.545471.17759-1.125964.311206-1.736369.339844h-3l1.2988281-1.669922c.044164-.05554.072599-.09372.1132813-.146484z" />
    <path
       id="path20"
       fill="#83beec"
       d="m9.4121094 20.183594c-.040682.05276-.069117.09094-.1132813.146484l-1.2988281 1.669922h3c.610405-.02864 1.190857-.162254 1.736328-.339844z" />
  </g>
</svg>
