<?xml version="1.0" encoding="UTF-8" standalone="no"?>
<svg
   xmlns:dc="http://purl.org/dc/elements/1.1/"
   xmlns:cc="http://creativecommons.org/ns#"
   xmlns:rdf="http://www.w3.org/1999/02/22-rdf-syntax-ns#"
   xmlns:svg="http://www.w3.org/2000/svg"
   xmlns="http://www.w3.org/2000/svg"
   xmlns:sodipodi="http://sodipodi.sourceforge.net/DTD/sodipodi-0.dtd"
   xmlns:inkscape="http://www.inkscape.org/namespaces/inkscape"
   viewBox="0 0 32 32"
   version="1.1"
   id="svg36"
   sodipodi:docname="lock.svg"
   inkscape:version="0.92.3 (2405546, 2018-03-11)">
  <metadata
     id="metadata42">
    <rdf:RDF>
      <cc:Work
         rdf:about="">
        <dc:format>image/svg+xml</dc:format>
        <dc:type
           rdf:resource="http://purl.org/dc/dcmitype/StillImage" />
        <dc:title></dc:title>
      </cc:Work>
    </rdf:RDF>
  </metadata>
  <defs
     id="defs40" />
  <sodipodi:namedview
     pagecolor="#ffffff"
     bordercolor="#666666"
     borderopacity="1"
     objecttolerance="10"
     gridtolerance="10"
     guidetolerance="10"
     inkscape:pageopacity="0"
     inkscape:pageshadow="2"
     inkscape:window-width="1366"
     inkscape:window-height="704"
     id="namedview38"
     showgrid="true"
     inkscape:pagecheckerboard="true"
     inkscape:zoom="22.583684"
     inkscape:cx="24.272423"
     inkscape:cy="15.373576"
     inkscape:window-x="0"
     inkscape:window-y="0"
     inkscape:window-maximized="1"
     inkscape:current-layer="svg36">
    <inkscape:grid
       type="xygrid"
       id="grid861" />
  </sodipodi:namedview>
  <path
     style="fill:#922e9b"
     d="M 23.5,12 C 21.026563,12 19,14.026563 19,16.5 V 19 h -1 c -1.090703,0 -2,0.909297 -2,2 v 8 c 0,1.090703 0.909297,2 2,2 h 11 c 1.090703,0 2,-0.909297 2,-2 v -8 c 0,-1.090703 -0.909297,-2 -2,-2 H 28 V 16.5 C 28,14.026563 25.973437,12 23.5,12 Z m 0,3 c 0.840272,0 1.5,0.659728 1.5,1.5 V 19 H 22 V 16.5 C 22,15.659728 22.659728,15 23.5,15 Z"
     id="path872" />
  <g
     id="g870">
    <path
       sodipodi:nodetypes="sscsssssssscssssccss"
       style="fill:#ed8733"
       inkscape:connector-curvature="0"
       id="path8"
       d="M 23.5,13 C 21.567003,13 20,14.567003 20,16.5 V 20 h -2 c -0.554,0 -1,0.446 -1,1 v 8 c 0,0.554 0.446,1 1,1 h 11 c 0.554,0 1,-0.446 1,-1 v -8 c 0,-0.554 -0.446,-1 -1,-1 H 27 V 16.5 C 27,14.567003 25.432997,13 23.5,13 Z m 0,1 c 1.380712,0 2.5,1.119288 2.5,2.5 V 20 H 21 V 16.5 C 21,15.119288 22.119288,14 23.5,14 Z" />
    <path
       id="rect838"
       d="m 18,21 h 11 v 8 H 18 Z"
       style="opacity:1;fill:#f8db8f;fill-opacity:1;stroke:none;stroke-width:1;stroke-linecap:round;stroke-linejoin:round;stroke-miterlimit:4;stroke-dasharray:none;stroke-dashoffset:0;stroke-opacity:1;paint-order:normal"
       inkscape:connector-curvature="0" />
    <path
       id="path846"
       d="m 23.5,21 a 2.5,2.5 0 0 0 -2.5,2.5 2.5,2.5 0 0 0 1,1.996094 V 28 h 3 V 25.498047 A 2.5,2.5 0 0 0 26,23.5 2.5,2.5 0 0 0 23.5,21 Z"
       style="opacity:1;fill:#ed8733;fill-opacity:1;stroke:none;stroke-width:1;stroke-linecap:round;stroke-linejoin:round;stroke-miterlimit:4;stroke-dasharray:none;stroke-dashoffset:0;stroke-opacity:1;paint-order:normal"
       inkscape:connector-curvature="0" />
    <path
       id="path841"
       d="m 23.5,22 a 1.5,1.5 0 0 0 -1.5,1.5 1.5,1.5 0 0 0 1,1.412109 V 27 h 1 V 24.912109 A 1.5,1.5 0 0 0 25,23.5 1.5,1.5 0 0 0 23.5,22 Z"
       style="opacity:1;fill:#fafafa;fill-opacity:1;stroke:none;stroke-width:1;stroke-linecap:round;stroke-linejoin:round;stroke-miterlimit:4;stroke-dasharray:none;stroke-dashoffset:0;stroke-opacity:1;paint-order:normal"
       inkscape:connector-curvature="0" />
  </g>
</svg>
