<?xml version="1.0" encoding="UTF-8" standalone="no"?>
<!-- Created with Inkscape (http://www.inkscape.org/) -->

<svg
   xmlns:dc="http://purl.org/dc/elements/1.1/"
   xmlns:cc="http://creativecommons.org/ns#"
   xmlns:rdf="http://www.w3.org/1999/02/22-rdf-syntax-ns#"
   xmlns:svg="http://www.w3.org/2000/svg"
   xmlns="http://www.w3.org/2000/svg"
   xmlns:sodipodi="http://sodipodi.sourceforge.net/DTD/sodipodi-0.dtd"
   xmlns:inkscape="http://www.inkscape.org/namespaces/inkscape"
   width="32"
   height="32"
   viewBox="0 0 8.4666665 8.4666669"
   version="1.1"
   id="svg931"
   inkscape:version="0.92.3 (2405546, 2018-03-11)"
   sodipodi:docname="new.svg">
  <defs
     id="defs925" />
  <sodipodi:namedview
     id="base"
     pagecolor="#ffffff"
     bordercolor="#666666"
     borderopacity="1.0"
     inkscape:pageopacity="0.0"
     inkscape:pageshadow="2"
     inkscape:zoom="21.434174"
     inkscape:cx="8.2107925"
     inkscape:cy="21.21535"
     inkscape:document-units="mm"
     inkscape:current-layer="layer1"
     showgrid="false"
     units="px"
     inkscape:window-width="1366"
     inkscape:window-height="704"
     inkscape:window-x="0"
     inkscape:window-y="0"
     inkscape:window-maximized="1" />
  <metadata
     id="metadata928">
    <rdf:RDF>
      <cc:Work
         rdf:about="">
        <dc:format>image/svg+xml</dc:format>
        <dc:type
           rdf:resource="http://purl.org/dc/dcmitype/StillImage" />
        <dc:title></dc:title>
      </cc:Work>
    </rdf:RDF>
  </metadata>
  <g
     inkscape:label="Layer 1"
     inkscape:groupmode="layer"
     id="layer1"
     transform="translate(0,-288.53332)">
    <path
       transform="matrix(0.26458333,0,0,0.26458333,0,288.53333)"
       sodipodi:type="inkscape:offset"
       inkscape:radius="1.0000305"
       inkscape:original="M 1.5078125 1 C 1.3819984 0.9980044 1.2569774 1.0438039 1.1621094 1.1386719 L 1.140625 1.1601562 C 0.95089103 1.3498922 0.95451733 1.6615532 1.1503906 1.8574219 L 3.6992188 4.40625 A 3.5 3.5 0 0 0 3.0390625 6 L 1.5 6 C 1.223 6 1 6.223 1 6.5 C 1 6.777 1.223 7 1.5 7 L 3.0410156 7 A 3.5 3.5 0 0 0 3.6992188 8.59375 L 1.1621094 11.130859 C 0.96624069 11.326728 0.9458498 11.623584 1.1171875 11.794922 L 1.2050781 11.882812 C 1.3764157 12.054151 1.673272 12.033755 1.8691406 11.837891 L 4.40625 9.3007812 A 3.5 3.5 0 0 0 6 9.9628906 L 6 11.5 C 6 11.777 6.223 12 6.5 12 C 6.777 12 7 11.777 7 11.5 L 7 9.9589844 A 3.5 3.5 0 0 0 8.59375 9.2988281 L 11.132812 11.837891 C 11.328684 12.033756 11.623584 12.054155 11.794922 11.882812 L 11.882812 11.794922 C 12.054156 11.623584 12.035714 11.326728 11.839844 11.130859 L 9.3007812 8.5917969 A 3.5 3.5 0 0 0 9.9609375 7 L 11.5 7 C 11.777 7 12 6.777 12 6.5 C 12 6.223 11.777 6 11.5 6 L 9.9589844 6 A 3.5 3.5 0 0 0 9.3007812 4.40625 L 11.849609 1.8574219 C 12.045478 1.6615532 12.051061 1.3498921 11.861328 1.1601562 L 11.839844 1.1386719 C 11.650103 0.94893554 11.338447 0.95452204 11.142578 1.1503906 L 8.59375 3.6992188 A 3.5 3.5 0 0 0 7 3.0390625 L 7 1.5 C 7 1.223 6.777 1 6.5 1 C 6.223 1 6 1.223 6 1.5 L 6 3.0410156 A 3.5 3.5 0 0 0 4.40625 3.6992188 L 1.8574219 1.1503906 C 1.7594874 1.0524561 1.6336266 1.0019956 1.5078125 1 z "
       style="opacity:1;fill:#922e9b;fill-opacity:1;stroke:none;stroke-width:1;stroke-linecap:round;stroke-linejoin:round;stroke-miterlimit:4;stroke-dasharray:none;stroke-dashoffset:0;stroke-opacity:1;paint-order:normal"
       id="path899"
       d="M 1.5234375,0 C 1.1445201,-0.0060102 0.74678022,0.13993853 0.45507812,0.43164062 L 0.43359375,0.453125 c -0.58141403,0.5814203 -0.5568027,1.544773 0.009766,2.1113281 L 2.5429688,4.6640625 C 2.4915786,4.7751488 2.446555,4.8851289 2.4042969,5 H 1.5 C 0.68628085,5 0,5.6862809 0,6.5 0,7.3137191 0.68628085,8 1.5,8 h 0.9042969 c 0.042147,0.1149424 0.087385,0.2247721 0.1386719,0.3359375 L 0.45507812,10.423828 c -0.52856752,0.528568 -0.65269535,1.470351 -0.0449219,2.078125 l 0.0878906,0.08789 C 1.105827,13.197629 2.047606,13.073475 2.5761719,12.544922 L 4.6640625,10.457031 C 4.7753518,10.508614 4.8849037,10.555242 5,10.597656 V 11.5 C 5,12.313719 5.6862809,13 6.5,13 7.3137191,13 8,12.313719 8,11.5 v -0.90625 c 0.1148711,-0.04226 0.2248512,-0.08728 0.3359375,-0.138672 l 2.0898435,2.089844 c 0.526208,0.526189 1.471085,0.650027 2.076172,0.04492 l 0.08789,-0.08789 c 0.605105,-0.605084 0.487946,-1.547212 -0.04297,-2.078125 L 10.457031,8.3339844 C 10.508134,8.2234686 10.553638,8.1142616 10.595703,8 H 11.5 C 12.313719,8 13,7.3137191 13,6.5 13,5.6862809 12.313719,5 11.5,5 H 10.595703 C 10.553557,4.8850576 10.508318,4.7752279 10.457031,4.6640625 l 2.09961,-2.0996094 c 0.564205,-0.5642044 0.595562,-1.5274758 0.01172,-2.1113281 l -0.02148,-0.0214844 c -0.583847,-0.58383238 -1.547134,-0.5524745 -2.111328,0.0117188 L 8.3359375,2.5429688 C 8.2248512,2.4915786 8.1148711,2.446555 8,2.4042969 V 1.5 C 8,0.68628085 7.3137191,0 6.5,0 5.6862809,0 5,0.68628085 5,1.5 V 2.4042969 C 4.8850576,2.4464434 4.7752279,2.4916818 4.6640625,2.5429688 L 2.5644531,0.44335938 C 2.2850446,0.16395089 1.9059656,0.00606747 1.5234375,0 Z" />
    <path
       inkscape:connector-curvature="0"
       style="opacity:1;fill:#ed8733;fill-opacity:1;stroke:none;stroke-width:0.26458332;stroke-linecap:round;stroke-linejoin:round;stroke-miterlimit:4;stroke-dasharray:none;stroke-dashoffset:0;stroke-opacity:1;paint-order:normal"
       d="m 0.39894206,288.79792 c -0.0332883,-5.3e-4 -0.0663668,0.0116 -0.0914673,0.0367 l -0.005684,0.006 c -0.0502004,0.0502 -0.0492398,0.13266 0.002585,0.18449 l 0.67437588,0.67437 a 0.92604167,0.92604167 0 0 0 -0.17466635,0.42168 H 0.396875 c -0.0732896,0 -0.13229167,0.059 -0.13229167,0.1323 0,0.0733 0.0590021,0.13229 0.13229167,0.13229 h 0.40772704 a 0.92604167,0.92604167 0 0 0 0.1741496,0.42168 l -0.67127686,0.67127 c -0.0518236,0.0518 -0.0572187,0.13037 -0.0118856,0.1757 l 0.0232545,0.0233 c 0.0453331,0.0453 0.1238763,0.0399 0.17569987,-0.0119 L 1.1658203,290.99417 A 0.92604167,0.92604167 0 0 0 1.5875,291.16935 v 0.40669 c 0,0.0733 0.059002,0.13229 0.1322917,0.13229 0.07329,0 0.1322916,-0.059 0.1322916,-0.13229 v -0.40773 a 0.92604167,0.92604167 0 0 0 0.4216797,-0.17466 l 0.6717935,0.67179 c 0.051824,0.0518 0.1298501,0.0572 0.1751833,0.0119 l 0.023254,-0.0233 c 0.045334,-0.0453 0.040455,-0.12387 -0.011369,-0.1757 l -0.6717931,-0.67179 a 0.92604167,0.92604167 0 0 0 0.1746663,-0.42116 h 0.4072103 c 0.07329,0 0.1322917,-0.059 0.1322917,-0.13229 0,-0.0733 -0.059002,-0.1323 -0.1322917,-0.1323 h -0.407727 a 0.92604167,0.92604167 0 0 0 -0.1741496,-0.42168 l 0.6743773,-0.67437 c 0.051824,-0.0518 0.053301,-0.13429 0.0031,-0.18449 l -0.00568,-0.006 c -0.050202,-0.0502 -0.1326626,-0.0487 -0.1844863,0.003 l -0.6743797,0.67438 a 0.92604167,0.92604167 0 0 0 -0.4216797,-0.17467 v -0.40721 c 0,-0.0733 -0.059002,-0.13229 -0.1322916,-0.13229 -0.07329,0 -0.1322917,0.059 -0.1322917,0.13229 v 0.40773 a 0.92604167,0.92604167 0 0 0 -0.4216797,0.17415 l -0.67437742,-0.67438 c -0.0259118,-0.0259 -0.0592125,-0.0393 -0.0925008,-0.0398 z m 1.32084964,0.79375 a 0.66145833,0.66145833 0 0 1 0.6614583,0.66146 0.66145833,0.66145833 0 0 1 -0.6614583,0.66145 0.66145833,0.66145833 0 0 1 -0.6614584,-0.66145 0.66145833,0.66145833 0 0 1 0.1912028,-0.46458 l 0.00568,-0.006 a 0.66145833,0.66145833 0 0 1 0.4645756,-0.19068 z"
       id="path874" />
    <circle
       style="opacity:1;fill:#fafafa;fill-opacity:1;stroke:none;stroke-width:0.26458332;stroke-linecap:round;stroke-linejoin:round;stroke-miterlimit:4;stroke-dasharray:none;stroke-dashoffset:0;stroke-opacity:1;paint-order:normal"
       id="path896"
       cx="1.7197917"
       cy="290.25311"
       r="0.66145831" />
  </g>
</svg>
