<?xml version="1.0" encoding="UTF-8" standalone="no"?>
<svg
   xmlns:dc="http://purl.org/dc/elements/1.1/"
   xmlns:cc="http://creativecommons.org/ns#"
   xmlns:rdf="http://www.w3.org/1999/02/22-rdf-syntax-ns#"
   xmlns:svg="http://www.w3.org/2000/svg"
   xmlns="http://www.w3.org/2000/svg"
   xmlns:sodipodi="http://sodipodi.sourceforge.net/DTD/sodipodi-0.dtd"
   xmlns:inkscape="http://www.inkscape.org/namespaces/inkscape"
   viewBox="0 0 32 32"
   version="1.1"
   id="svg38"
   sodipodi:docname="next.svg"
   inkscape:version="0.92.3 (2405546, 2018-03-11)">
  <metadata
     id="metadata44">
    <rdf:RDF>
      <cc:Work
         rdf:about="">
        <dc:format>image/svg+xml</dc:format>
        <dc:type
           rdf:resource="http://purl.org/dc/dcmitype/StillImage" />
        <dc:title />
      </cc:Work>
    </rdf:RDF>
  </metadata>
  <defs
     id="defs42" />
  <sodipodi:namedview
     pagecolor="#ffffff"
     bordercolor="#666666"
     borderopacity="1"
     objecttolerance="10"
     gridtolerance="10"
     guidetolerance="10"
     inkscape:pageopacity="0"
     inkscape:pageshadow="2"
     inkscape:window-width="1366"
     inkscape:window-height="704"
     id="namedview40"
     showgrid="true"
     inkscape:pagecheckerboard="true"
     inkscape:snap-global="false"
     inkscape:zoom="32"
     inkscape:cx="23.110994"
     inkscape:cy="8.5098594"
     inkscape:window-x="0"
     inkscape:window-y="0"
     inkscape:window-maximized="1"
     inkscape:current-layer="svg38"
     inkscape:snap-smooth-nodes="true">
    <inkscape:grid
       type="xygrid"
       id="grid857" />
  </sodipodi:namedview>
  <path
     style="opacity:1;fill:#922e9b;fill-opacity:1;stroke:none;stroke-width:0.5;stroke-linecap:round;stroke-linejoin:round;stroke-miterlimit:4;stroke-dasharray:none;stroke-dashoffset:0;stroke-opacity:1;paint-order:normal"
     d="m 23.501953,16.001953 c -0.380716,0 -0.772198,0.149151 -1.060547,0.4375 -0.574787,0.574782 -0.574784,1.546312 0,2.121094 l 2.441406,2.441406 H 13.5 c -0.812993,0 -1.498047,0.685054 -1.498047,1.498047 0,0.812993 0.685054,1.498047 1.498047,1.498047 h 11.382812 l -2.441406,2.443359 c -0.573419,0.574952 -0.574331,1.544813 0,2.119141 0.288349,0.288349 0.679831,0.4375 1.060547,0.4375 0.380716,0 0.772194,-0.149145 1.060547,-0.4375 a 0.99877682,0.99877682 0 0 0 0,-0.002 l 4.998047,-4.998047 v -0.002 c 0.142414,-0.142731 0.253913,-0.313897 0.328125,-0.498047 0.06655,-0.165091 0.109375,-0.356141 0.109375,-0.560547 0,-0.204406 -0.04283,-0.395456 -0.109375,-0.560547 -0.07417,-0.184008 -0.185596,-0.355225 -0.328125,-0.498047 v -0.002 L 24.5625,16.441406 a 0.99877682,0.99877682 0 0 0 0,-0.002 c -0.288349,-0.288349 -0.679831,-0.4375 -1.060547,-0.4375 z"
     id="path2023" />
  <path
     inkscape:connector-curvature="0"
     style="opacity:1;fill:#1e8bcd;fill-opacity:1;stroke:none;stroke-width:0.5;stroke-linecap:round;stroke-linejoin:round;stroke-miterlimit:4;stroke-dasharray:none;stroke-dashoffset:0;stroke-opacity:1;paint-order:normal"
     d="m 23.501953,17 c 0.12781,0 0.255582,0.04855 0.353516,0.146484 l 4.998047,5 c 0.04702,0.04701 0.08407,0.103236 0.109375,0.166016 C 28.986231,22.370404 29,22.43355 29,22.5 c 0,0.06645 -0.01377,0.129596 -0.03711,0.1875 -0.0253,0.06278 -0.06236,0.119003 -0.109375,0.166016 l -4.998047,5 C 23.757535,27.95145 23.629763,28 23.501953,28 c -0.127809,0 -0.255581,-0.04855 -0.353515,-0.146484 -0.195869,-0.195868 -0.195869,-0.511163 0,-0.707032 L 27.292969,23 H 13.5 C 13.223,23 13,22.777 13,22.5 13,22.223 13.223,22 13.5,22 h 13.792969 l -4.144531,-4.146484 c -0.19587,-0.195869 -0.19587,-0.511164 0,-0.707032 C 23.246372,17.04855 23.374144,17 23.501953,17 Z"
     id="rect865-3"
     sodipodi:nodetypes="scccscccscccssscccs" />
</svg>
