<?xml version="1.0" encoding="UTF-8" standalone="no"?>
<svg
   xmlns:dc="http://purl.org/dc/elements/1.1/"
   xmlns:cc="http://creativecommons.org/ns#"
   xmlns:rdf="http://www.w3.org/1999/02/22-rdf-syntax-ns#"
   xmlns:svg="http://www.w3.org/2000/svg"
   xmlns="http://www.w3.org/2000/svg"
   xmlns:sodipodi="http://sodipodi.sourceforge.net/DTD/sodipodi-0.dtd"
   xmlns:inkscape="http://www.inkscape.org/namespaces/inkscape"
   viewBox="0 0 32 32"
   version="1.1"
   id="svg38"
   sodipodi:docname="next.svg"
   inkscape:version="0.92.3 (2405546, 2018-03-11)">
  <metadata
     id="metadata44">
    <rdf:RDF>
      <cc:Work
         rdf:about="">
        <dc:format>image/svg+xml</dc:format>
        <dc:type
           rdf:resource="http://purl.org/dc/dcmitype/StillImage" />
        <dc:title></dc:title>
      </cc:Work>
    </rdf:RDF>
  </metadata>
  <defs
     id="defs42" />
  <sodipodi:namedview
     pagecolor="#ffffff"
     bordercolor="#666666"
     borderopacity="1"
     objecttolerance="10"
     gridtolerance="10"
     guidetolerance="10"
     inkscape:pageopacity="0"
     inkscape:pageshadow="2"
     inkscape:window-width="1366"
     inkscape:window-height="704"
     id="namedview40"
     showgrid="true"
     inkscape:pagecheckerboard="true"
     inkscape:snap-global="true"
     inkscape:zoom="22.627417"
     inkscape:cx="22.669348"
     inkscape:cy="14.640635"
     inkscape:window-x="0"
     inkscape:window-y="0"
     inkscape:window-maximized="1"
     inkscape:current-layer="svg38">
    <inkscape:grid
       type="xygrid"
       id="grid857" />
  </sodipodi:namedview>
  <path
     sodipodi:type="inkscape:offset"
     inkscape:radius="1.0000477"
     inkscape:original="M 23.509766 17 C 23.381957 17 23.254184 17.04855 23.15625 17.146484 C 22.960381 17.342352 22.960381 17.657647 23.15625 17.853516 L 27.292969 22 L 13.5 22 C 13.223 22 13 22.223 13 22.5 C 13 22.777 13.223 23 13.5 23 L 27.292969 23 L 23.15625 27.146484 C 22.960381 27.342353 22.960381 27.657648 23.15625 27.853516 C 23.254184 27.95145 23.381957 28 23.509766 28 C 23.637576 28 23.765347 27.95145 23.863281 27.853516 L 28.853516 22.853516 C 28.900536 22.806506 28.937596 22.75028 28.962891 22.6875 C 28.986231 22.629596 29 22.56645 29 22.5 C 29 22.43355 28.986231 22.370404 28.962891 22.3125 C 28.937591 22.24972 28.900531 22.193497 28.853516 22.146484 L 23.863281 17.146484 C 23.765347 17.048549 23.637576 17 23.509766 17 z "
     style="opacity:1;fill:#922e9b;fill-opacity:1;stroke:none;stroke-width:0.5;stroke-linecap:round;stroke-linejoin:round;stroke-miterlimit:4;stroke-dasharray:none;stroke-dashoffset:0;stroke-opacity:1;paint-order:normal"
     id="path878"
     d="m 23.509766,16 c -0.381064,0 -0.771935,0.15084 -1.060547,0.439453 -0.575306,0.575303 -0.575303,1.545791 0,2.121094 L 24.882812,21 H 13.5 c -0.813728,0 -1.5,0.686272 -1.5,1.5 0,0.813728 0.686272,1.5 1.5,1.5 h 11.382812 l -2.433593,2.439453 c -0.575303,0.575303 -0.575306,1.545791 0,2.121094 C 22.737831,28.84916 23.128702,29 23.509766,29 c 0.381062,0 0.771939,-0.150845 1.060546,-0.439453 l 4.990235,-5 c 0.14317,-0.14314 0.255595,-0.315141 0.330078,-0.5 C 29.957229,22.895309 30,22.704596 30,22.5 c 0,-0.204596 -0.04277,-0.395309 -0.109375,-0.560547 -0.07448,-0.184822 -0.186974,-0.356902 -0.330078,-0.5 l -4.990235,-5 C 24.281702,16.15084 23.890823,16 23.509766,16 Z" />
  <path
     style="opacity:1;fill:#1e8bcd;fill-opacity:1;stroke:none;stroke-width:0.5;stroke-linecap:round;stroke-linejoin:round;stroke-miterlimit:4;stroke-dasharray:none;stroke-dashoffset:0;stroke-opacity:1;paint-order:normal"
     d="M 23.509766 17 C 23.381957 17 23.254184 17.048549 23.15625 17.146484 C 22.960381 17.342352 22.960381 17.657647 23.15625 17.853516 L 27.292969 22 L 13.5 22 C 13.223 22 13 22.223 13 22.5 C 13 22.777 13.223 23 13.5 23 L 27.292969 23 L 23.15625 27.146484 C 22.960381 27.342353 22.960381 27.657648 23.15625 27.853516 C 23.254184 27.95145 23.381957 28 23.509766 28 C 23.637576 28 23.765347 27.951451 23.863281 27.853516 L 28.853516 22.853516 C 28.900531 22.806503 28.937591 22.75028 28.962891 22.6875 C 28.986231 22.629596 29 22.56645 29 22.5 C 29 22.43355 28.986231 22.370404 28.962891 22.3125 C 28.937591 22.24972 28.900531 22.193497 28.853516 22.146484 L 23.863281 17.146484 C 23.765346 17.048549 23.637576 17 23.509766 17 z "
     id="rect865" />
</svg>
