<?xml version="1.0" encoding="UTF-8" standalone="no"?>
<svg
   xmlns:dc="http://purl.org/dc/elements/1.1/"
   xmlns:cc="http://creativecommons.org/ns#"
   xmlns:rdf="http://www.w3.org/1999/02/22-rdf-syntax-ns#"
   xmlns:svg="http://www.w3.org/2000/svg"
   xmlns="http://www.w3.org/2000/svg"
   xmlns:sodipodi="http://sodipodi.sourceforge.net/DTD/sodipodi-0.dtd"
   xmlns:inkscape="http://www.inkscape.org/namespaces/inkscape"
   viewBox="0 0 32 32"
   version="1.1"
   id="svg54"
   sodipodi:docname="open.svg"
   inkscape:version="0.92.5 (2060ec1f9f, 2020-04-08)">
  <metadata
     id="metadata60">
    <rdf:RDF>
      <cc:Work
         rdf:about="">
        <dc:format>image/svg+xml</dc:format>
        <dc:type
           rdf:resource="http://purl.org/dc/dcmitype/StillImage" />
        <dc:title></dc:title>
      </cc:Work>
    </rdf:RDF>
  </metadata>
  <defs
     id="defs58" />
  <sodipodi:namedview
     pagecolor="#ffffff"
     bordercolor="#666666"
     borderopacity="1"
     objecttolerance="10"
     gridtolerance="10"
     guidetolerance="10"
     inkscape:pageopacity="0"
     inkscape:pageshadow="2"
     inkscape:window-width="1920"
     inkscape:window-height="1002"
     id="namedview56"
     showgrid="true"
     inkscape:zoom="20.85965"
     inkscape:cx="16.819021"
     inkscape:cy="12.964292"
     inkscape:window-x="0"
     inkscape:window-y="0"
     inkscape:window-maximized="1"
     inkscape:current-layer="svg54">
    <inkscape:grid
       type="xygrid"
       id="grid877" />
  </sodipodi:namedview>
  <path
     style="fill:#922e9b;fill-rule:evenodd"
     d="m 17,16 c -1.092632,1.09e-4 -1.999891,0.907368 -2,2 v 12 a 1.0001,1.0001 0 0 0 1,1 h 1 12 a 1.0001,1.0001 0 0 0 0.931641,-0.634766 l 2.74414,-7.007812 a 1.0001,1.0001 0 0 0 0.02539,-0.07813 c 0.07444,-0.248127 0.137903,-0.441571 0.18164,-0.679688 0.04374,-0.238116 0.106656,-0.655385 -0.208984,-1.076171 C 32.358189,21.102651 31.947345,21.047653 31.707031,21.021484 31.466718,20.995316 31.260488,21 31,21 h -1 v -1 c -1.09e-4,-1.092632 -0.907368,-1.999891 -2,-2 H 23.632812 L 20.125,16.384766 20.414062,16.585938 C 20.039329,16.211154 19.529987,16.000102 19,16 Z"
     id="path867" />
  <g
     fill-rule="evenodd"
     transform="translate(16 16)"
     id="g52">
    <path
       d="m3 2.0000002 4 2.0000002 5-.0000002v7.9999998h-11v-10z"
       fill="#fafafa"
       id="path44" />
    <path
       d="m0 14h1 12l2.744141-7.0078125c.297854-.992847.298232-.9921875-.744141-.9921875h-1-1-8.9785156c-1.0211864 0-1.0208091-.0005516-1.2792969.9902344l-1.7421875 4.6757816z"
       fill="#ed8733"
       id="path46" />
    <path
       d="m3 1c.265199.0000511.519519.1054325.707031.2929688l3.7070315 1.7070312h4.5859375c.552262.0000552.999945.4477379 1 1v7h-1v-.333984-5.666016-1h-5l-4-2h-2v12h-1v-12c.000055-.5522619.447738-.9999448 1-1z"
       fill="#ed8733"
       id="path48" />
    <path
       d="m4.0214844 7c-.1271747 0-.1609225.00219-.2441406.00391-.022899.080791-.035762.1133336-.068359.2382813a1.0001 1.0001 0 0 1 -.029297.097656l-1.7421878 4.6757777a1.0001 1.0001 0 0 1 -.017578.04492l-.4023439.939455h10.8007809l2.347657-6h-.666016-1z"
       fill="#f8db8f"
       id="path50" />
  </g>
</svg>
