<?xml version="1.0" encoding="UTF-8" standalone="no"?>
<svg
   xmlns:dc="http://purl.org/dc/elements/1.1/"
   xmlns:cc="http://creativecommons.org/ns#"
   xmlns:rdf="http://www.w3.org/1999/02/22-rdf-syntax-ns#"
   xmlns:svg="http://www.w3.org/2000/svg"
   xmlns="http://www.w3.org/2000/svg"
   xmlns:xlink="http://www.w3.org/1999/xlink"
   xmlns:sodipodi="http://sodipodi.sourceforge.net/DTD/sodipodi-0.dtd"
   xmlns:inkscape="http://www.inkscape.org/namespaces/inkscape"
   viewBox="0 0 32 32"
   version="1.1"
   id="svg43"
   sodipodi:docname="rename.svg"
   inkscape:version="0.92.3 (2405546, 2018-03-11)">
  <metadata
     id="metadata49">
    <rdf:RDF>
      <cc:Work
         rdf:about="">
        <dc:format>image/svg+xml</dc:format>
        <dc:type
           rdf:resource="http://purl.org/dc/dcmitype/StillImage" />
        <dc:title></dc:title>
      </cc:Work>
    </rdf:RDF>
  </metadata>
  <defs
     id="defs47" />
  <sodipodi:namedview
     pagecolor="#fafafafff"
     bordercolor="#666666"
     borderopacity="1"
     objecttolerance="10"
     gridtolerance="10"
     guidetolerance="10"
     inkscape:pageopacity="0"
     inkscape:pageshadow="2"
     inkscape:window-width="1366"
     inkscape:window-height="704"
     id="namedview45"
     showgrid="true"
     inkscape:pagecheckerboard="true"
     inkscape:zoom="17.969473"
     inkscape:cx="21.912813"
     inkscape:cy="20.352413"
     inkscape:window-x="0"
     inkscape:window-y="0"
     inkscape:window-maximized="1"
     inkscape:current-layer="svg43">
    <inkscape:grid
       type="xygrid"
       id="grid864" />
  </sodipodi:namedview>
  <linearGradient
     id="a"
     gradientUnits="userSpaceOnUse"
     x1="15"
     x2="15"
     xlink:href="#d"
     y1="9"
     y2="33" />
  <linearGradient
     id="b"
     gradientUnits="userSpaceOnUse"
     x1="24"
     x2="24"
     xlink:href="#d"
     y1="9"
     y2="33" />
  <linearGradient
     id="c"
     gradientUnits="userSpaceOnUse"
     x1="174"
     x2="174"
     y1="15"
     y2="-9">
    <stop
       offset="0"
       stop-color="#0040dd"
       id="stop4" />
    <stop
       offset="1"
       stop-color="#0a84ff"
       id="stop6" />
  </linearGradient>
  <linearGradient
     id="d"
     gradientUnits="userSpaceOnUse"
     x1="15"
     x2="15"
     y1="4"
     y2="28">
    <stop
       offset="0"
       stop-color="#efefef"
       id="stop9" />
    <stop
       offset=".33333334"
       stop-color="#fafafa"
       id="stop11" />
    <stop
       offset=".8888889"
       stop-color="#fafafa"
       id="stop13" />
    <stop
       offset="1"
       stop-color="#f5f5f5"
       id="stop15" />
  </linearGradient>
  <filter
     id="e"
     color-interpolation-filters="sRGB"
     height="1.116265"
     width="1.123983"
     x="-.061992"
     y="-.058132">
    <feGaussianBlur
       stdDeviation=".61991525"
       id="feGaussianBlur18" />
  </filter>
  <path
     sodipodi:type="inkscape:offset"
     inkscape:radius="1"
     inkscape:original="M 22 6 A 1.0001 1.0001 0 0 0 21 7 L 21 8 A 1.0001 1.0001 0 0 0 22 9 L 23 9 L 23 12 L 23 24 L 23 27 L 22 27 A 1.0001 1.0001 0 0 0 21 28 L 21 29 A 1.0001 1.0001 0 0 0 22 30 L 24 30 A 1.0001 1.0001 0 0 0 24.5 29.865234 A 1.0001 1.0001 0 0 0 25 30 L 27 30 A 1.0001 1.0001 0 0 0 28 29 L 28 28 A 1.0001 1.0001 0 0 0 27 27 L 26 27 L 26 24 L 26 12 L 26 9 L 27 9 A 1.0001 1.0001 0 0 0 28 8 L 28 7 A 1.0001 1.0001 0 0 0 27 6 L 25 6 A 1.0001 1.0001 0 0 0 24.5 6.1347656 A 1.0001 1.0001 0 0 0 24 6 L 22 6 z "
     style="fill:#922e9b;fill-opacity:0.99236642"
     id="path870"
     d="m 22,5 c -1.047117,1.047e-4 -1.999895,0.9528834 -2,2 v 1 c 1.05e-4,1.0471166 0.952883,1.9998953 2,2 v 2 12 2 c -1.047117,1.05e-4 -1.999895,0.952883 -2,2 v 1 c 1.05e-4,1.047117 0.952883,1.999895 2,2 h 2 a 1.0001,1.0001 0 0 0 0.002,0 C 24.175912,30.999757 24.331999,30.910346 24.5,30.865234 24.668001,30.910346 24.824088,30.999757 24.998047,31 A 1.0001,1.0001 0 0 0 25,31 h 2 c 1.047117,-1.05e-4 1.999895,-0.952883 2,-2 v -1 c -1.05e-4,-1.047117 -0.952883,-1.999895 -2,-2 V 24 12 10 c 1.047117,-1.047e-4 1.999895,-0.9528834 2,-2 V 7 C 28.999895,5.9528834 28.047117,5.0001047 27,5 h -2 a 1.0001,1.0001 0 0 0 -0.002,0 C 24.824088,5.0002428 24.668001,5.089654 24.5,5.1347656 24.331999,5.089654 24.175912,5.0002428 24.001953,5 A 1.0001,1.0001 0 0 0 24,5 Z" />
  <path
     style="fill:#3a3a38;fill-opacity:0.99236643"
     d="M 22 6 A 1.0001 1.0001 0 0 0 21 7 L 21 8 A 1.0001 1.0001 0 0 0 22 9 L 23 9 L 23 12 L 23 24 L 23 27 L 22 27 A 1.0001 1.0001 0 0 0 21 28 L 21 29 A 1.0001 1.0001 0 0 0 22 30 L 24 30 A 1.0001 1.0001 0 0 0 24.5 29.865234 A 1.0001 1.0001 0 0 0 25 30 L 27 30 A 1.0001 1.0001 0 0 0 28 29 L 28 28 A 1.0001 1.0001 0 0 0 27 27 L 26 27 L 26 24 L 26 12 L 26 9 L 27 9 A 1.0001 1.0001 0 0 0 28 8 L 28 7 A 1.0001 1.0001 0 0 0 27 6 L 25 6 A 1.0001 1.0001 0 0 0 24.5 6.1347656 A 1.0001 1.0001 0 0 0 24 6 L 22 6 z "
     id="path39" />
  <path
     d="m22 7v1h2v-1zm2 1v20h1v-20zm1 0h2v-1h-2zm0 20v1h2v-1zm-1 0h-2v1h2z"
     fill="url(#c)"
     stroke-width="2"
     id="path41"
     style="fill:#fafafa" />
</svg>
