<?xml version="1.0" encoding="UTF-8" standalone="no"?>
<svg
   xmlns:dc="http://purl.org/dc/elements/1.1/"
   xmlns:cc="http://creativecommons.org/ns#"
   xmlns:rdf="http://www.w3.org/1999/02/22-rdf-syntax-ns#"
   xmlns:svg="http://www.w3.org/2000/svg"
   xmlns="http://www.w3.org/2000/svg"
   xmlns:sodipodi="http://sodipodi.sourceforge.net/DTD/sodipodi-0.dtd"
   xmlns:inkscape="http://www.inkscape.org/namespaces/inkscape"
   viewBox="0 0 16 16"
   version="1.1"
   id="svg12"
   sodipodi:docname="sc_apply2.svg"
   inkscape:version="0.92.5 (2060ec1f9f, 2020-04-08)"><metadata
   id="metadata18">
  <rdf:RDF>
    <cc:Work
       rdf:about="">
      <dc:format>image/svg+xml</dc:format>
      <dc:type
         rdf:resource="http://purl.org/dc/dcmitype/StillImage" />
      <dc:title></dc:title>
    </cc:Work>
  </rdf:RDF>
</metadata>
<defs
   id="defs16" />
<sodipodi:namedview
   pagecolor="#ffffff"
   bordercolor="#666666"
   borderopacity="1"
   objecttolerance="10"
   gridtolerance="10"
   guidetolerance="10"
   inkscape:pageopacity="0"
   inkscape:pageshadow="2"
   inkscape:window-width="1366"
   inkscape:window-height="699"
   id="namedview14"
   showgrid="true"
   inkscape:zoom="29.5"
   inkscape:cx="11.004185"
   inkscape:cy="2.4049249"
   inkscape:window-x="0"
   inkscape:window-y="0"
   inkscape:window-maximized="1"
   inkscape:current-layer="svg12">
  <inkscape:grid
     type="xygrid"
     id="grid828" />
</sodipodi:namedview>
/&amp;amp;gt;<path
   sodipodi:type="inkscape:offset"
   inkscape:radius="0.99121308"
   inkscape:original="M 16 8.0898438 L 15.292969 8.7929688 L 9.5 14.585938 L 6.7070312 11.792969 L 6 12.5 L 8.7929688 15.292969 L 9.5 16 L 10.207031 15.292969 L 16 9.5 L 16 8.0898438 z "
   style="fill:#a846b2;fill-opacity:1;stroke:none"
   id="path847"
   d="m 15.970703,7.0996094 a 0.9913122,0.9913122 0 0 0 -0.669922,0.2871094 l -0.707031,0.703125 a 0.9913122,0.9913122 0 0 0 -0.002,0.00195 L 9.5,13.183594 7.4082031,11.091797 a 0.9913122,0.9913122 0 0 0 -1.4023437,0 l -0.7070313,0.707031 a 0.9913122,0.9913122 0 0 0 0,1.402344 l 2.7929688,2.792969 0.7070312,0.707031 a 0.9913122,0.9913122 0 0 0 1.4023439,0 l 0.707031,-0.707031 5.792969,-5.792969 A 0.9913122,0.9913122 0 0 0 16.992188,9.5 V 8.0898438 A 0.9913122,0.9913122 0 0 0 15.970703,7.0996094 Z" />
<path
   style="fill:#18ab50;fill-opacity:1;stroke:none"
   d="M 15.292893,8.7928932 9.5,14.585787 6.7071067,11.792894 6,12.5 8.7928932,15.292893 9.5,16 10.207107,15.292893 16,9.5 V 8.0898438 Z"
   id="rect832"
   inkscape:connector-curvature="0"
   sodipodi:nodetypes="cccccccccc" />
</svg>
