<?xml version="1.0" encoding="UTF-8" standalone="no"?>
<svg
   xmlns:dc="http://purl.org/dc/elements/1.1/"
   xmlns:cc="http://creativecommons.org/ns#"
   xmlns:rdf="http://www.w3.org/1999/02/22-rdf-syntax-ns#"
   xmlns:svg="http://www.w3.org/2000/svg"
   xmlns="http://www.w3.org/2000/svg"
   xmlns:sodipodi="http://sodipodi.sourceforge.net/DTD/sodipodi-0.dtd"
   xmlns:inkscape="http://www.inkscape.org/namespaces/inkscape"
   viewBox="0 0 16 16"
   version="1.1"
   id="svg8"
   sodipodi:docname="sc_back.svg"
   inkscape:version="0.92.3 (2405546, 2018-03-11)"><metadata
   id="metadata14">
  <rdf:RDF>
    <cc:Work
       rdf:about="">
      <dc:format>image/svg+xml</dc:format>
      <dc:type
         rdf:resource="http://purl.org/dc/dcmitype/StillImage" />
      <dc:title></dc:title>
    </cc:Work>
  </rdf:RDF>
</metadata>
<defs
   id="defs12" />
<sodipodi:namedview
   pagecolor="#ffffff"
   bordercolor="#666666"
   borderopacity="1"
   objecttolerance="10"
   gridtolerance="10"
   guidetolerance="10"
   inkscape:pageopacity="0"
   inkscape:pageshadow="2"
   inkscape:window-width="1366"
   inkscape:window-height="704"
   id="namedview10"
   showgrid="true"
   inkscape:pagecheckerboard="true"
   inkscape:snap-global="false"
   inkscape:zoom="19.492727"
   inkscape:cx="8.1922651"
   inkscape:cy="10.546034"
   inkscape:window-x="0"
   inkscape:window-y="0"
   inkscape:window-maximized="1"
   inkscape:current-layer="svg8">
  <inkscape:grid
     type="xygrid"
     id="grid821" />
</sodipodi:namedview>
/&amp;gt;<path
   sodipodi:type="inkscape:offset"
   inkscape:radius="0.99133027"
   inkscape:original="M 10.498047 -0.009765625 A 0.50005 0.50005 0 0 0 10.154297 0.140625 L 6.1972656 4.0976562 A 0.50005 0.50005 0 0 0 6.1953125 4.890625 A 0.50005 0.50005 0 0 0 6.2011719 4.8945312 L 10.154297 8.8476562 A 0.50005 0.50005 0 1 0 10.861328 8.140625 L 7.7148438 4.9941406 L 15.5 5 A 0.50005 0.50005 0 1 0 15.5 4 L 7.7148438 3.9941406 L 10.861328 0.84765625 A 0.50005 0.50005 0 0 0 10.498047 -0.009765625 z "
   style="fill:#922e9b;fill-rule:evenodd"
   id="path831"
   d="m 10.470703,-1 c -0.382223,0.0106397 -0.7581659,0.17377198 -1.0253905,0.44726562 L 5.4960938,3.3964844 5.5957031,3.3105469 C 4.8762261,3.8606741 4.8744728,5.1034299 5.5839844,5.6640625 L 5.5,5.5957031 9.4394531,9.5351562 c 0.5478258,0.5705858 1.5715379,0.5808058 2.1308589,0.021484 0.559322,-0.5593217 0.549102,-1.5830337 -0.02148,-2.1308594 l -1.4375,-1.4375 5.375,0.00391 C 16.274164,6.0033295 16.998047,5.287915 16.998047,4.5 c 0,-0.787915 -0.723883,-1.5033295 -1.511719,-1.4921875 l -5.378906,-0.00391 1.447266,-1.4472656 C 11.980346,1.1404908 12.116998,0.45632151 11.884766,-0.09179687 11.652533,-0.63991526 11.065766,-1.0163192 10.470703,-1 Z" />
<path
   d="M 10.498047,-0.00976563 A 0.50005,0.50005 0 0 0 10.154297,0.140625 L 6.1972656,4.0976562 a 0.50005,0.50005 0 0 0 -0.00195,0.7929688 0.50005,0.50005 0 0 0 0.00586,0.00391 L 10.154301,8.84766 A 0.50005,0.50005 0 1 0 10.861328,8.140625 L 7.7148438,4.9941406 15.5,5 a 0.50005,0.50005 0 1 0 0,-1 L 7.7148438,3.9941406 10.861328,0.84765625 a 0.50005,0.50005 0 0 0 -0.363281,-0.85742188 z"
   id="path6"
   inkscape:connector-curvature="0"
   style="fill:#1e8bcd;fill-rule:evenodd" />
</svg>
