<?xml version="1.0" encoding="UTF-8" standalone="no"?>
<svg
   xmlns:dc="http://purl.org/dc/elements/1.1/"
   xmlns:cc="http://creativecommons.org/ns#"
   xmlns:rdf="http://www.w3.org/1999/02/22-rdf-syntax-ns#"
   xmlns:svg="http://www.w3.org/2000/svg"
   xmlns="http://www.w3.org/2000/svg"
   xmlns:sodipodi="http://sodipodi.sourceforge.net/DTD/sodipodi-0.dtd"
   xmlns:inkscape="http://www.inkscape.org/namespaces/inkscape"
   viewBox="0 0 16 16"
   version="1.1"
   id="svg6"
   sodipodi:docname="sc_configure.svg"
   inkscape:version="0.92.3 (2405546, 2018-03-11)"><metadata
   id="metadata12">
  <rdf:RDF>
    <cc:Work
       rdf:about="">
      <dc:format>image/svg+xml</dc:format>
      <dc:type
         rdf:resource="http://purl.org/dc/dcmitype/StillImage" />
      <dc:title></dc:title>
    </cc:Work>
  </rdf:RDF>
</metadata>
<defs
   id="defs10">
  <clipPath
     clipPathUnits="userSpaceOnUse"
     id="clipPath1460">
    <circle
       style="opacity:1;fill:#fafafa;fill-opacity:1;stroke:none;stroke-width:3;stroke-linecap:round;stroke-linejoin:round;stroke-miterlimit:4;stroke-dasharray:none;stroke-dashoffset:0;stroke-opacity:1;paint-order:normal"
       id="circle1462"
       cx="-11.5"
       cy="10.5"
       r="7.5" />
  </clipPath>
</defs>
<sodipodi:namedview
   pagecolor="#fafafafff"
   bordercolor="#666666"
   borderopacity="1"
   objecttolerance="10"
   gridtolerance="10"
   guidetolerance="10"
   inkscape:pageopacity="0"
   inkscape:pageshadow="2"
   inkscape:window-width="1366"
   inkscape:window-height="704"
   id="namedview8"
   showgrid="true"
   inkscape:zoom="35.938946"
   inkscape:cx="9.9257517"
   inkscape:cy="6.3926781"
   inkscape:window-x="0"
   inkscape:window-y="0"
   inkscape:window-maximized="1"
   inkscape:current-layer="svg6">
  <inkscape:grid
     type="xygrid"
     id="grid1445" />
</sodipodi:namedview>
/&gt;<path
   sodipodi:type="inkscape:offset"
   inkscape:radius="1"
   inkscape:original="M 10.5 7 L 10.087891 9.0566406 L 8.1035156 8.3847656 L 7.8535156 8.8164062 L 7.3535156 9.6835938 L 7.1035156 10.115234 L 8.6777344 11.5 L 7.1035156 12.884766 L 7.3535156 13.316406 L 7.8535156 14.183594 L 8.1035156 14.615234 L 10.087891 13.943359 L 10.5 16 L 11 16 L 12 16 L 12.5 16 L 12.912109 13.943359 L 14.896484 14.615234 L 15.146484 14.183594 L 15.646484 13.316406 L 15.896484 12.884766 L 14.322266 11.5 L 15.896484 10.115234 L 15.646484 9.6835938 L 15.146484 8.8164062 L 14.896484 8.3847656 L 12.912109 9.0566406 L 12.5 7 L 12 7 L 11 7 L 10.5 7 z "
   style="opacity:1;fill:#922e9b;fill-opacity:1;stroke:none;stroke-width:3;stroke-linecap:round;stroke-linejoin:round;stroke-miterlimit:4;stroke-dasharray:none;stroke-dashoffset:0;stroke-opacity:1;paint-order:normal"
   id="path1486"
   d="M 10.5,6 A 1.0001,1.0001 0 0 0 9.5195312,6.8027344 L 9.3300781,7.7441406 8.4238281,7.4375 A 1.0001,1.0001 0 0 0 7.2382812,7.8828125 l -0.25,0.4316406 a 1.0001,1.0001 0 0 0 -0.00195,0.00195 l -0.4980469,0.8671876 -0.25,0.4296874 A 1.0001,1.0001 0 0 0 6.4433594,10.865234 L 7.1640625,11.5 6.4433594,12.134766 a 1.0001,1.0001 0 0 0 -0.2050782,1.251953 l 0.25,0.429687 0.4980469,0.867188 a 1.0001,1.0001 0 0 0 0.00195,0.002 l 0.25,0.431641 A 1.0001,1.0001 0 0 0 8.4238281,15.5625 l 0.90625,-0.306641 0.1894531,0.941407 A 1.0001,1.0001 0 0 0 10.5,17 h 0.5 1 0.5 a 1.0001,1.0001 0 0 0 0.980469,-0.802734 l 0.189453,-0.941407 0.90625,0.306641 a 1.0001,1.0001 0 0 0 1.185547,-0.445312 l 0.25,-0.431641 a 1.0001,1.0001 0 0 0 0.002,-0.002 l 0.498047,-0.867188 0.25,-0.429687 A 1.0001,1.0001 0 0 0 16.556641,12.134766 L 15.835938,11.5 16.556641,10.865234 a 1.0001,1.0001 0 0 0 0.205078,-1.2519528 l -0.25,-0.4296874 -0.498047,-0.8671876 a 1.0001,1.0001 0 0 0 -0.002,-0.00195 l -0.25,-0.4316406 A 1.0001,1.0001 0 0 0 14.576172,7.4375 L 13.669922,7.7441406 13.480469,6.8027344 A 1.0001,1.0001 0 0 0 12.5,6 H 12 11 Z" />
<path
   style="opacity:1;fill:#1e8bcd;fill-opacity:1;stroke:none;stroke-width:3;stroke-linecap:round;stroke-linejoin:round;stroke-miterlimit:4;stroke-dasharray:none;stroke-dashoffset:0;stroke-opacity:1;paint-order:normal"
   d="m 10.5,7 -0.412109,2.056641 -1.9843754,-0.6718754 -0.25,0.4316406 -0.5,0.8671878 -0.25,0.43164 1.5742188,1.384766 -1.5742188,1.384766 0.25,0.43164 0.5,0.867188 0.25,0.43164 L 10.087891,13.943359 10.5,16 h 0.5 1 0.5 l 0.412109,-2.056641 1.984375,0.671875 0.25,-0.43164 0.5,-0.867188 0.25,-0.43164 L 14.322266,11.5 l 1.574218,-1.384766 -0.25,-0.43164 -0.5,-0.8671878 -0.25,-0.4316406 L 12.912109,9.056641 12.5,7 H 12 11 Z m 0.875,1 h 0.25 L 12,9.5 h 0.654297 l 0.328125,0.566406 1.486328,-0.423828 0.125,0.214844 -1.111328,1.076172 0.328125,0.566406 -0.328125,0.566406 1.111328,1.076172 -0.125,0.214844 L 12.982422,12.933594 12.654297,13.5 H 12 L 11.625,15 h -0.25 L 11,13.5 H 10.345703 L 10.017578,12.933594 8.53125,13.357422 8.40625,13.142578 9.5175781,12.066406 9.1894531,11.5 9.5175781,10.933594 8.40625,9.857422 8.53125,9.642578 10.017578,10.066406 10.345703,9.5 H 11 Z M 11.5,10 A 1.5,1.5 0 0 0 10,11.5 1.5,1.5 0 0 0 11.5,13 1.5,1.5 0 0 0 13,11.5 1.5,1.5 0 0 0 11.5,10 Z m 0,1 A 0.5,0.5 0 0 1 12,11.5 0.5,0.5 0 0 1 11.5,12 0.5,0.5 0 0 1 11,11.5 0.5,0.5 0 0 1 11.5,11 Z"
   id="path1464"
   inkscape:connector-curvature="0" />
<path
   inkscape:connector-curvature="0"
   id="path1482"
   d="m 11.375,8 h 0.25 L 12,9.5 h 0.654297 l 0.328125,0.566406 1.486328,-0.423828 0.125,0.214844 -1.111328,1.076172 0.328125,0.566406 -0.328125,0.566406 1.111328,1.076172 -0.125,0.214844 L 12.982422,12.933594 12.654297,13.5 H 12 L 11.625,15 h -0.25 L 11,13.5 H 10.345703 L 10.017578,12.933594 8.53125,13.357422 8.40625,13.142578 9.5175781,12.066406 9.1894531,11.5 9.5175781,10.933594 8.40625,9.857422 8.53125,9.642578 10.017578,10.066406 10.345703,9.5 H 11 Z M 11.5,10 C 10.671573,10 10,10.671573 10,11.5 10,12.328427 10.671573,13 11.5,13 12.328427,13 13,12.328427 13,11.5 13,10.671573 12.328427,10 11.5,10 Z"
   style="opacity:1;fill:#fafafa;fill-opacity:1;stroke:none;stroke-width:3;stroke-linecap:round;stroke-linejoin:round;stroke-miterlimit:4;stroke-dasharray:none;stroke-dashoffset:0;stroke-opacity:1;paint-order:normal"
   sodipodi:nodetypes="cccccccccccccccccccccccccccccccsssss" />
</svg>
