<?xml version="1.0" encoding="UTF-8" standalone="no"?>
<svg
   xmlns:dc="http://purl.org/dc/elements/1.1/"
   xmlns:cc="http://creativecommons.org/ns#"
   xmlns:rdf="http://www.w3.org/1999/02/22-rdf-syntax-ns#"
   xmlns:svg="http://www.w3.org/2000/svg"
   xmlns="http://www.w3.org/2000/svg"
   xmlns:sodipodi="http://sodipodi.sourceforge.net/DTD/sodipodi-0.dtd"
   xmlns:inkscape="http://www.inkscape.org/namespaces/inkscape"
   viewBox="0 0 16 16"
   version="1.1"
   id="svg18"
   sodipodi:docname="sc_down.svg"
   inkscape:version="0.92.3 (2405546, 2018-03-11)">
  <metadata
     id="metadata24">
    <rdf:RDF>
      <cc:Work
         rdf:about="">
        <dc:format>image/svg+xml</dc:format>
        <dc:type
           rdf:resource="http://purl.org/dc/dcmitype/StillImage" />
        <dc:title></dc:title>
      </cc:Work>
    </rdf:RDF>
  </metadata>
  <defs
     id="defs22" />
  <sodipodi:namedview
     pagecolor="#ffffff"
     bordercolor="#666666"
     borderopacity="1"
     objecttolerance="10"
     gridtolerance="10"
     guidetolerance="10"
     inkscape:pageopacity="0"
     inkscape:pageshadow="2"
     inkscape:window-width="1366"
     inkscape:window-height="704"
     id="namedview20"
     showgrid="true"
     inkscape:pagecheckerboard="true"
     inkscape:zoom="128"
     inkscape:cx="11.83593"
     inkscape:cy="15.365861"
     inkscape:window-x="0"
     inkscape:window-y="0"
     inkscape:window-maximized="1"
     inkscape:current-layer="svg18"
     inkscape:snap-smooth-nodes="true">
    <inkscape:grid
       type="xygrid"
       id="grid834" />
  </sodipodi:namedview>
  <path
     style="fill:#922e9b;fill-rule:evenodd"
     d="m 11.5,-1 c -0.322449,0 -0.683047,0.0848391 -1.003906,0.359375 -0.32086,0.27453592 -0.5161125,0.76301289 -0.494141,1.19140625 L 10,0.5 10.001953,4.8886719 9.5742188,4.4609375 C 9.2804174,4.1655099 8.8342469,3.9892612 8.4335938,4.0117188 8.0329406,4.0341763 7.6993166,4.2102429 7.453125,4.4550781 7.2069334,4.6999133 7.0285762,5.0330697 7.0039062,5.4335938 c -0.02467,0.400524 0.1495581,0.8471505 0.4433594,1.1425781 l 2.9101564,2.9199219 -0.04883,-0.052734 C 10.592567,9.7733859 11.082146,9.9901499 11.474609,10 a 1.0001,1.0001 0 0 0 0.05078,0 c 0.392463,-0.00985 0.882042,-0.2266141 1.166015,-0.5566406 l -0.04883,0.052734 2.910156,-2.9199219 C 15.846536,6.2807443 16.020764,5.8341177 15.996094,5.4335938 15.971424,5.0330698 15.793067,4.6999134 15.546875,4.4550781 15.300683,4.2102429 14.967059,4.0341763 14.566406,4.0117188 14.165753,3.9892612 13.719583,4.16551 13.425781,4.4609375 L 12.998047,4.8886719 13,0.5 l -0.002,0.0507813 C 13.020012,0.12239411 12.824764,-0.36608905 12.503906,-0.640625 12.183049,-0.91516095 11.822449,-1 11.5,-1 Z"
     id="path828" />
  <path
     style="fill:#18ab50;fill-rule:evenodd"
     d="M 11.5 0 C 11.241511 0 10.98204 0.14982333 11 0.5 L 11.001953 7.3105469 L 8.8652344 5.1660156 C 8.3951804 4.6933598 7.686196 5.3984379 8.15625 5.8710938 L 11.066406 8.7910156 C 11.191073 8.9359006 11.335047 8.99586 11.5 9 C 11.664953 8.99586 11.808927 8.9359006 11.933594 8.7910156 L 14.84375 5.8710938 C 15.313804 5.3984379 14.60482 4.6933598 14.134766 5.1660156 L 11.998047 7.3105469 L 12 0.5 C 12.017955 0.14982333 11.758489 0 11.5 0 z "
     id="path6-6" />
</svg>
