<?xml version="1.0" encoding="UTF-8" standalone="no"?>
<svg
   xmlns:dc="http://purl.org/dc/elements/1.1/"
   xmlns:cc="http://creativecommons.org/ns#"
   xmlns:rdf="http://www.w3.org/1999/02/22-rdf-syntax-ns#"
   xmlns:svg="http://www.w3.org/2000/svg"
   xmlns="http://www.w3.org/2000/svg"
   xmlns:sodipodi="http://sodipodi.sourceforge.net/DTD/sodipodi-0.dtd"
   xmlns:inkscape="http://www.inkscape.org/namespaces/inkscape"
   viewBox="0 0 16 16"
   version="1.1"
   id="svg8"
   sodipodi:docname="sc_delete.svg"
   inkscape:version="0.92.3 (2405546, 2018-03-11)">
  <metadata
     id="metadata14">
    <rdf:RDF>
      <cc:Work
         rdf:about="">
        <dc:format>image/svg+xml</dc:format>
        <dc:type
           rdf:resource="http://purl.org/dc/dcmitype/StillImage" />
        <dc:title></dc:title>
      </cc:Work>
    </rdf:RDF>
  </metadata>
  <defs
     id="defs12" />
  <sodipodi:namedview
     pagecolor="#ffffff"
     bordercolor="#666666"
     borderopacity="1"
     objecttolerance="10"
     gridtolerance="10"
     guidetolerance="10"
     inkscape:pageopacity="0"
     inkscape:pageshadow="2"
     inkscape:window-width="1366"
     inkscape:window-height="704"
     id="namedview10"
     showgrid="true"
     inkscape:pagecheckerboard="true"
     inkscape:snap-global="false"
     inkscape:zoom="22.627417"
     inkscape:cx="11.707815"
     inkscape:cy="3.1947242"
     inkscape:window-x="0"
     inkscape:window-y="0"
     inkscape:window-maximized="1"
     inkscape:current-layer="svg8">
    <inkscape:grid
       type="xygrid"
       id="grid821" />
  </sodipodi:namedview>
  <path
     style="opacity:1;fill:#922e9b;fill-opacity:1;stroke:none;stroke-width:3.33728909;stroke-linecap:round;stroke-linejoin:round;stroke-miterlimit:4;stroke-dasharray:none;stroke-dashoffset:0;stroke-opacity:1;paint-order:normal"
     d="M 7.734375,6 A 1.0007407,1.0007407 0 0 0 7.0429688,6.2929688 l -0.75,0.75 a 1.0007407,1.0007407 0 0 0 0,1.4140624 L 9.3359375,11.5 6.2929688,14.542969 a 1.0007407,1.0007407 0 0 0 0,1.414062 l 0.75,0.75 a 1.0007407,1.0007407 0 0 0 1.4140624,0 L 11.5,13.664062 l 3.042969,3.042969 a 1.0007407,1.0007407 0 0 0 1.414062,0 l 0.75,-0.75 a 1.0007407,1.0007407 0 0 0 0,-1.414062 L 13.664062,11.5 16.707031,8.4570312 a 1.0007407,1.0007407 0 0 0 0,-1.4140624 l -0.75,-0.75 a 1.0007407,1.0007407 0 0 0 -1.414062,0 L 11.5,9.3359375 8.4570312,6.2929688 A 1.0007407,1.0007407 0 0 0 7.734375,6 Z"
     id="path836" />
  <path
     style="opacity:1;fill:#ed3d3b;fill-opacity:1;stroke:none;stroke-width:3.33728909;stroke-linecap:round;stroke-linejoin:round;stroke-miterlimit:4;stroke-dasharray:none;stroke-dashoffset:0;stroke-opacity:1;paint-order:normal"
     d="M 15.25,7 11.5,10.75 7.75,7 7,7.75 10.75,11.5 7,15.25 7.75,16 11.5,12.25 15.25,16 16,15.25 12.25,11.5 16,7.75 Z"
     id="rect823"
     inkscape:connector-curvature="0" />
</svg>
