<?xml version="1.0" encoding="UTF-8" standalone="no"?>
<svg
   xmlns:dc="http://purl.org/dc/elements/1.1/"
   xmlns:cc="http://creativecommons.org/ns#"
   xmlns:rdf="http://www.w3.org/1999/02/22-rdf-syntax-ns#"
   xmlns:svg="http://www.w3.org/2000/svg"
   xmlns="http://www.w3.org/2000/svg"
   xmlns:sodipodi="http://sodipodi.sourceforge.net/DTD/sodipodi-0.dtd"
   xmlns:inkscape="http://www.inkscape.org/namespaces/inkscape"
   viewBox="0 0 16 16"
   version="1.1"
   id="svg14"
   sodipodi:docname="sc_edit.svg"
   inkscape:version="0.92.3 (2405546, 2018-03-11)"><metadata
   id="metadata20">
  <rdf:RDF>
    <cc:Work
       rdf:about="">
      <dc:format>image/svg+xml</dc:format>
      <dc:type
         rdf:resource="http://purl.org/dc/dcmitype/StillImage" />
      <dc:title></dc:title>
    </cc:Work>
  </rdf:RDF>
</metadata>
<defs
   id="defs18" />
<sodipodi:namedview
   pagecolor="#ffffff"
   bordercolor="#666666"
   borderopacity="1"
   objecttolerance="10"
   gridtolerance="10"
   guidetolerance="10"
   inkscape:pageopacity="0"
   inkscape:pageshadow="2"
   inkscape:window-width="1366"
   inkscape:window-height="704"
   id="namedview16"
   showgrid="true"
   inkscape:zoom="16"
   inkscape:cx="2.47806"
   inkscape:cy="1.2622287"
   inkscape:window-x="0"
   inkscape:window-y="0"
   inkscape:window-maximized="1"
   inkscape:current-layer="svg14">
  <inkscape:grid
     type="xygrid"
     id="grid827" />
</sodipodi:namedview>

/&amp;gt;<g
   style="fill:#fb983b"
   id="g16">
  <path
     style="fill:#0063b1"
     inkscape:connector-curvature="0"
     d="m 13.804688,7.0683594 c 0.171006,-0.1739438 -0.174941,0.1601863 -1.386719,1.3476562 l 0.01563,0.015625 C 13.053313,7.8173789 13.66796,7.2074349 13.804688,7.0683594 Z M 12.433594,8.4316406 C 10.728038,10.122177 8.0155332,12.801064 7.7148438,13.101562 L 7,16 9.8554688,15.242188 14.539062,10.539062 Z m -0.002,1.0078125 1.099609,1.0996089 -4.0449219,4.0625 -1.5039062,0.400391 0.3789062,-1.535156 C 8.7272202,13.102745 10.793066,11.061879 12.431641,9.4394531 Z"
     id="path6-3" />
  <path
     style="fill:#0063b1"
     inkscape:connector-curvature="0"
     d="m 14.066406,7 c -0.142171,0 -0.283638,0.053302 -0.392578,0.1621094 l -1.255859,1.2539062 2.134765,2.1367184 1.283204,-1.2304684 c 0.21788,-0.2175952 0.21788,-0.5675602 0,-0.7851562 l -1.376954,-1.375 C 14.350043,7.0533114 14.208578,7 14.066406,7 Z m 0,0.9941406 L 15,8.9257812 14.566406,9.3417969 13.642578,8.4160156 Z"
     id="path8" />
  <g
     style="fill:#83beec"
     id="g14">
    <path
       inkscape:connector-curvature="0"
       d="M 14.066406,7.9941406 13.642578,8.4160156 14.566406,9.3417969 15,8.9257812 Z"
       id="path10" />
    <path
       inkscape:connector-curvature="0"
       d="M 12.431641,9.4394531 C 10.793066,11.061879 8.7272202,13.102745 8.3613281,13.466797 l -0.3789062,1.535156 1.5039062,-0.400391 4.0449219,-4.0625 z"
       id="path12" />
  </g>
</g>
<path
   style="opacity:1;fill:#00ffff;fill-opacity:1;stroke:none;stroke-width:3;stroke-linecap:round;stroke-linejoin:round;stroke-miterlimit:4;stroke-dasharray:none;stroke-dashoffset:0;stroke-opacity:1;paint-order:normal"
   d="m 14.066406,6 c -0.392112,0 -0.799928,0.1557769 -1.099609,0.4550781 l -1.251953,1.25 -0.552735,0.5371094 -0.0078,0.00977 -4.1464845,4.1425779 C 6.879077,12.523234 6.7879106,12.684632 6.7441406,12.861328 L 6.0292969,15.759766 C 6.0091159,15.841341 6.0042067,15.9213 6.0039062,16 h 4.4921878 c 0.02213,-0.01869 0.04784,-0.03209 0.06836,-0.05273 l 4.121094,-4.148438 0.550781,-0.517578 0.0078,-0.0059 L 16,10.550781 V 7.2871094 L 15.166016,6.4550781 C 14.866382,6.155876 14.458564,6 14.066406,6 Z"
   id="rect829"
   inkscape:connector-curvature="0"
   sodipodi:nodetypes="sccccccccccccccccs" />
</svg>
