<?xml version="1.0" encoding="UTF-8" standalone="no"?>
<svg
   xmlns:dc="http://purl.org/dc/elements/1.1/"
   xmlns:cc="http://creativecommons.org/ns#"
   xmlns:rdf="http://www.w3.org/1999/02/22-rdf-syntax-ns#"
   xmlns:svg="http://www.w3.org/2000/svg"
   xmlns="http://www.w3.org/2000/svg"
   xmlns:sodipodi="http://sodipodi.sourceforge.net/DTD/sodipodi-0.dtd"
   xmlns:inkscape="http://www.inkscape.org/namespaces/inkscape"
   viewBox="0 0 16 16"
   version="1.1"
   id="svg8"
   sodipodi:docname="sc_import.svg"
   inkscape:version="0.92.3 (2405546, 2018-03-11)"><metadata
   id="metadata14">
  <rdf:RDF>
    <cc:Work
       rdf:about="">
      <dc:format>image/svg+xml</dc:format>
      <dc:type
         rdf:resource="http://purl.org/dc/dcmitype/StillImage" />
      <dc:title></dc:title>
    </cc:Work>
  </rdf:RDF>
</metadata>
<defs
   id="defs12" />
<sodipodi:namedview
   pagecolor="#ffffff"
   bordercolor="#666666"
   borderopacity="1"
   objecttolerance="10"
   gridtolerance="10"
   guidetolerance="10"
   inkscape:pageopacity="0"
   inkscape:pageshadow="2"
   inkscape:window-width="1366"
   inkscape:window-height="704"
   id="namedview10"
   showgrid="true"
   inkscape:snap-global="false"
   inkscape:zoom="38.985455"
   inkscape:cx="9.7722811"
   inkscape:cy="5.6187299"
   inkscape:window-x="0"
   inkscape:window-y="0"
   inkscape:window-maximized="1"
   inkscape:current-layer="svg8">
  <inkscape:grid
     type="xygrid"
     id="grid823" />
</sodipodi:namedview>
/&amp;gt;<path
   sodipodi:type="inkscape:offset"
   inkscape:radius="0.99462646"
   inkscape:original="M 8.4980469 7 A 0.49967901 0.49967901 0 0 0 8.1542969 7.1523438 L 5.2382812 10.068359 A 0.49967901 0.49967901 0 0 0 5.234375 10.939453 L 8.1542969 13.849609 A 0.4999497 0.4999497 0 0 0 8.859375 13.140625 L 6.7148438 11.003906 L 15.5 11.003906 A 0.49967901 0.49967901 0 1 0 15.5 10.005859 L 6.7109375 10.005859 L 8.859375 7.8574219 A 0.49967901 0.49967901 0 0 0 8.4980469 7 z "
   style="fill:#922e9b;fill-rule:evenodd"
   id="path821"
   d="M 8.4667969,6.0058594 C 8.0827195,6.017938 7.7063738,6.1845054 7.4394531,6.4609375 L 4.5351562,9.3652344 4.7539062,9.1992188 C 4.2931396,9.45558 3.9886926,9.9707696 3.9863281,10.498047 c -0.00236,0.527277 0.2974105,1.046157 0.7558594,1.306641 L 4.5332031,11.644531 7.453125,14.554688 a 0.99472593,0.99472593 0 0 0 0.00195,0.002 c 0.5553355,0.549721 1.5603207,0.546247 2.1113281,-0.0078 C 10.117414,13.994768 10.115281,12.98979 9.5625,12.4375 a 0.99472593,0.99472593 0 0 0 -0.00195,-0.002 l -0.4394531,-0.4375 h 6.3281252 c 0.806873,0.04137 1.570312,-0.686208 1.570312,-1.494141 0,-0.807933 -0.763439,-1.5335579 -1.570312,-1.4921872 H 9.1113281 L 9.5527344,8.5703125 C 9.9798857,8.1541564 10.120261,7.4694768 9.8886719,6.9199219 9.6570827,6.3703669 9.0688246,5.990776 8.4726562,6.0058594 a 0.99472593,0.99472593 0 0 0 -0.00586,0 z" />
<path
   d="m8.4980469 7a.49967901.49967901 0 0 0 -.34375.1523438l-2.9160157 2.9160152a.49967901.49967901 0 0 0 -.0039062.871094l2.9199219 2.910156a.49994836.49994836 0 0 0 .7050781-.708984l-2.1445312-2.136719h8.7851562a.49967901.49967901 0 1 0 0-.998047h-8.7890625l2.1484375-2.1484371a.49967901.49967901 0 0 0 -.3613281-.8574219z"
   fill="#1e8bcd"
   fill-rule="evenodd"
   id="path6" />
</svg>
