<?xml version="1.0" encoding="UTF-8" standalone="no"?>
<svg
   xmlns:dc="http://purl.org/dc/elements/1.1/"
   xmlns:cc="http://creativecommons.org/ns#"
   xmlns:rdf="http://www.w3.org/1999/02/22-rdf-syntax-ns#"
   xmlns:svg="http://www.w3.org/2000/svg"
   xmlns="http://www.w3.org/2000/svg"
   xmlns:sodipodi="http://sodipodi.sourceforge.net/DTD/sodipodi-0.dtd"
   xmlns:inkscape="http://www.inkscape.org/namespaces/inkscape"
   viewBox="0 0 16 16"
   version="1.1"
   id="svg8"
   sodipodi:docname="sc_import.svg"
   inkscape:version="0.92.3 (2405546, 2018-03-11)"><metadata
   id="metadata14">
  <rdf:RDF>
    <cc:Work
       rdf:about="">
      <dc:format>image/svg+xml</dc:format>
      <dc:type
         rdf:resource="http://purl.org/dc/dcmitype/StillImage" />
      <dc:title />
    </cc:Work>
  </rdf:RDF>
</metadata>
<defs
   id="defs12" />
<sodipodi:namedview
   pagecolor="#ffffff"
   bordercolor="#666666"
   borderopacity="1"
   objecttolerance="10"
   gridtolerance="10"
   guidetolerance="10"
   inkscape:pageopacity="0"
   inkscape:pageshadow="2"
   inkscape:window-width="1366"
   inkscape:window-height="704"
   id="namedview10"
   showgrid="true"
   inkscape:snap-global="true"
   inkscape:zoom="16"
   inkscape:cx="12.995147"
   inkscape:cy="2.9079623"
   inkscape:window-x="0"
   inkscape:window-y="0"
   inkscape:window-maximized="1"
   inkscape:current-layer="svg8">
  <inkscape:grid
     type="xygrid"
     id="grid823" />
</sodipodi:namedview>

/&amp;gt;<path
   style="fill:#922e9b"
   d="M 8.578125,6.0019531 C 8.1734467,5.9769857 7.7294487,6.1511504 7.4335938,6.4453125 a 1.0002221,1.0002221 0 0 0 -0.00195,0.00195 L 4.5410156,9.3398438 C 4.3480689,9.525843 4.0071849,9.9735989 4.0058594,10.5 c 0.00133,0.526401 0.3422095,0.974157 0.5351562,1.160156 l 2.890625,2.892578 a 1.0002221,1.0002221 0 0 0 0.00195,0.002 c 0.2954877,0.293796 0.7420556,0.46807 1.1425781,0.443359 0.4005224,-0.02471 0.7336783,-0.203025 0.9785156,-0.449219 0.2448373,-0.246193 0.4208968,-0.579768 0.4433594,-0.980469 0.022416,-0.399872 -0.1528813,-0.844855 -0.4472657,-1.138671 l -0.00195,-0.002 L 9.125,12.003906 h 6.349609 l -0.05078,-0.002 c 0.845286,0.04359 1.573998,-0.656866 1.572266,-1.501953 0.0017,-0.845087 -0.726996,-1.5455354 -1.572266,-1.5019531 l 0.05078,-0.00195 H 9.125 l 0.4238281,-0.4238282 0.00195,-0.00195 C 9.9923444,8.1294083 10.090629,7.3746431 9.859375,6.8828125 9.6277927,6.3902828 9.1796017,6.0390622 8.578125,6.0019531 Z"
   id="path1610" />
<path
   style="fill:#1e8bcd"
   d="M 8.515625 7 C 8.390442 6.9922766 8.2568358 7.0368091 8.1386719 7.1542969 L 5.234375 10.060547 C 5.092487 10.197326 4.99801 10.318646 5 10.5 C 4.99801 10.681354 5.092487 10.802674 5.234375 10.939453 L 8.1386719 13.845703 C 8.6113274 14.315654 9.3164055 13.60667 8.84375 13.136719 L 6.7148438 11.003906 L 15.474609 11.003906 C 15.762234 11.01874 16.002819 10.787993 16 10.5 C 16.002819 10.212007 15.762234 9.9812638 15.474609 9.9960938 L 6.7148438 9.9960938 L 8.84375 7.8632812 C 9.1982416 7.510818 8.891174 7.0231701 8.515625 7 z "
   id="path6" />
</svg>
