<?xml version="1.0" encoding="UTF-8" standalone="no"?>
<svg
   xmlns:dc="http://purl.org/dc/elements/1.1/"
   xmlns:cc="http://creativecommons.org/ns#"
   xmlns:rdf="http://www.w3.org/1999/02/22-rdf-syntax-ns#"
   xmlns:svg="http://www.w3.org/2000/svg"
   xmlns="http://www.w3.org/2000/svg"
   xmlns:sodipodi="http://sodipodi.sourceforge.net/DTD/sodipodi-0.dtd"
   xmlns:inkscape="http://www.inkscape.org/namespaces/inkscape"
   viewBox="0 0 16 16"
   version="1.1"
   id="svg10"
   sodipodi:docname="sc_lock.svg"
   inkscape:version="0.92.3 (2405546, 2018-03-11)"><metadata
   id="metadata16">
  <rdf:RDF>
    <cc:Work
       rdf:about="">
      <dc:format>image/svg+xml</dc:format>
      <dc:type
         rdf:resource="http://purl.org/dc/dcmitype/StillImage" />
      <dc:title />
    </cc:Work>
  </rdf:RDF>
</metadata>
<defs
   id="defs14" />
<sodipodi:namedview
   pagecolor="#ffffff"
   bordercolor="#666666"
   borderopacity="1"
   objecttolerance="10"
   gridtolerance="10"
   guidetolerance="10"
   inkscape:pageopacity="0"
   inkscape:pageshadow="2"
   inkscape:window-width="1366"
   inkscape:window-height="704"
   id="namedview12"
   showgrid="true"
   inkscape:pagecheckerboard="true"
   inkscape:zoom="29.235967"
   inkscape:cx="9.8747385"
   inkscape:cy="5.2903911"
   inkscape:window-x="0"
   inkscape:window-y="0"
   inkscape:window-maximized="1"
   inkscape:current-layer="svg10"
   inkscape:snap-smooth-nodes="true">
  <inkscape:grid
     type="xygrid"
     id="grid823" />
</sodipodi:namedview>

/&amp;amp;gt;<path
   sodipodi:nodetypes="ssscssssssscsss"
   inkscape:connector-curvature="0"
   id="path872"
   d="M 12,5 C 10.952802,5 9.9123555,5.4313945 9.171875,6.171875 8.4313945,6.9123555 8,7.9528024 8,9 V 9.4199219 C 7.4387688,9.777173 7,10.29652 7,11 v 4 c 0,1.090703 0.9092972,2 2,2 h 6 c 1.090703,0 2,-0.909297 2,-2 V 11 C 17,10.445146 16.723794,9.9148565 16.371094,9.5976562 16.255793,9.4939604 16.122754,9.4851781 16,9.4121094 V 9 C 16,7.9528024 15.568605,6.9123555 14.828125,6.171875 14.087645,5.4313945 13.047198,5 12,5 Z"
   style="fill:#922e9b" />
<path
   style="fill:#ed8733"
   d="M 12,6 A 3,3 0 0 0 9,9 v 1 c -0.554,0 -1,0.446 -1,1 v 4 c 0,0.554 0.446,1 1,1 h 6 c 0.554,0 1,-0.446 1,-1 v -4 c 0,-0.554 -0.461794,-0.86866 -1,-1 V 9 A 3,3 0 0 0 12,6 Z m 0,1 a 2,2 0 0 1 2,2 v 1 H 10 V 9 a 2,2 0 0 1 2,-2 z"
   id="path6"
   inkscape:connector-curvature="0" />
<path
   d="m 9,11 h 6 v 4 H 9 Z"
   id="path8"
   inkscape:connector-curvature="0"
   style="fill:#f8db8f" />
</svg>
