<?xml version="1.0" encoding="UTF-8" standalone="no"?>
<svg
   xmlns:dc="http://purl.org/dc/elements/1.1/"
   xmlns:cc="http://creativecommons.org/ns#"
   xmlns:rdf="http://www.w3.org/1999/02/22-rdf-syntax-ns#"
   xmlns:svg="http://www.w3.org/2000/svg"
   xmlns="http://www.w3.org/2000/svg"
   xmlns:sodipodi="http://sodipodi.sourceforge.net/DTD/sodipodi-0.dtd"
   xmlns:inkscape="http://www.inkscape.org/namespaces/inkscape"
   viewBox="0 0 16 16"
   version="1.1"
   id="svg6"
   sodipodi:docname="sc_next.svg"
   inkscape:version="0.92.3 (2405546, 2018-03-11)"><metadata
   id="metadata12">
  <rdf:RDF>
    <cc:Work
       rdf:about="">
      <dc:format>image/svg+xml</dc:format>
      <dc:type
         rdf:resource="http://purl.org/dc/dcmitype/StillImage" />
      <dc:title />
    </cc:Work>
  </rdf:RDF>
</metadata>
<defs
   id="defs10" />
<sodipodi:namedview
   pagecolor="#ffffff"
   bordercolor="#666666"
   borderopacity="1"
   objecttolerance="10"
   gridtolerance="10"
   guidetolerance="10"
   inkscape:pageopacity="0"
   inkscape:pageshadow="2"
   inkscape:window-width="1366"
   inkscape:window-height="704"
   id="namedview8"
   showgrid="true"
   inkscape:snap-global="true"
   inkscape:zoom="256"
   inkscape:cx="12.188711"
   inkscape:cy="7.2907453"
   inkscape:window-x="0"
   inkscape:window-y="0"
   inkscape:window-maximized="1"
   inkscape:current-layer="svg6"
   inkscape:snap-smooth-nodes="true">
  <inkscape:grid
     type="xygrid"
     id="grid822" />
</sodipodi:namedview>

/&amp;gt;<path
   style="fill:#922e9b;fill-rule:evenodd"
   d="M 12.541016,8 C 11.905034,7.983896 11.338611,8.4018045 11.121094,8.9179688 10.903576,9.434133 11.001356,10.130274 11.457031,10.574219 L 11.884766,11 H 9.5253906 l 0.050781,0.002 C 9.1465874,10.97999 8.6786858,11.16286 8.3964844,11.46875 8.1142829,11.77464 8,12.144781 8,12.5 c 0,0.355219 0.1142815,0.72534 0.3964844,1.03125 0.2822028,0.30591 0.7500414,0.48882 1.1796875,0.466797 L 9.5253906,14 h 2.3593754 l -0.427735,0.425781 c -0.455675,0.443945 -0.553455,1.140086 -0.335937,1.65625 0.217517,0.516164 0.78394,0.934073 1.419922,0.917969 a 1.0002221,1.0002221 0 0 0 0.0059,0 c 0.389914,-0.01229 0.760216,-0.176359 1.03125,-0.457031 l 2.876953,-2.875 C 16.718803,13.423404 16.996583,12.870935 17,12.509766 a 1.0002221,1.0002221 0 0 0 0,-0.01953 c -0.0034,-0.361168 -0.28106,-0.915541 -0.544922,-1.160156 L 13.578125,8.4570312 C 13.307091,8.1763587 12.936789,8.0122925 12.546875,8 a 1.0002221,1.0002221 0 0 0 -0.0059,0 z"
   id="path1550" />
<path
   inkscape:connector-curvature="0"
   style="fill:#1e8bcd;fill-rule:evenodd"
   d="m 12.515625,8.9998199 c -0.454318,-0.011504 -0.686847,0.5402829 -0.361328,0.8574219 l 2.148437,2.1445312 -4.7773434,-0.002 C 9.1752141,11.98187 9,12.241331 9,12.49982 c 0,0.258489 0.1752141,0.51795 0.5253906,0.5 l 4.7773434,-0.0019 -2.148437,2.144531 c -0.325519,0.317139 -0.09299,0.868926 0.361328,0.857422 0.130048,-0.0041 0.25337,-0.05875 0.34375,-0.152344 l 2.916016,-2.912112 C 15.94868,12.774718 15.9984,12.668938 16,12.49982 15.9984,12.330702 15.94868,12.224922 15.775391,12.064273 L 12.859375,9.1521637 c -0.09038,-0.093594 -0.213702,-0.1482439 -0.34375,-0.1523438 z"
   id="path4-3" />
</svg>
