<?xml version="1.0" encoding="UTF-8" standalone="no"?>
<svg
   xmlns:dc="http://purl.org/dc/elements/1.1/"
   xmlns:cc="http://creativecommons.org/ns#"
   xmlns:rdf="http://www.w3.org/1999/02/22-rdf-syntax-ns#"
   xmlns:svg="http://www.w3.org/2000/svg"
   xmlns="http://www.w3.org/2000/svg"
   xmlns:sodipodi="http://sodipodi.sourceforge.net/DTD/sodipodi-0.dtd"
   xmlns:inkscape="http://www.inkscape.org/namespaces/inkscape"
   viewBox="0 0 16 16"
   version="1.1"
   id="svg32"
   sodipodi:docname="sc_open.svg"
   inkscape:version="0.92.5 (2060ec1f9f, 2020-04-08)"><metadata
   id="metadata38">
  <rdf:RDF>
    <cc:Work
       rdf:about="">
      <dc:format>image/svg+xml</dc:format>
      <dc:type
         rdf:resource="http://purl.org/dc/dcmitype/StillImage" />
      <dc:title></dc:title>
    </cc:Work>
  </rdf:RDF>
</metadata>
<defs
   id="defs36" />
<sodipodi:namedview
   pagecolor="#ffffff"
   bordercolor="#666666"
   borderopacity="1"
   objecttolerance="10"
   gridtolerance="10"
   guidetolerance="10"
   inkscape:pageopacity="0"
   inkscape:pageshadow="2"
   inkscape:window-width="1920"
   inkscape:window-height="1002"
   id="namedview34"
   showgrid="true"
   inkscape:pagecheckerboard="false"
   inkscape:zoom="41.7193"
   inkscape:cx="4.4877198"
   inkscape:cy="9.699007"
   inkscape:window-x="0"
   inkscape:window-y="0"
   inkscape:window-maximized="1"
   inkscape:current-layer="svg32">
  <inkscape:grid
     type="xygrid"
     id="grid845" />
</sodipodi:namedview>
/&amp;amp;gt;<path
   style="fill:#922e9b;fill-rule:evenodd;stroke-width:0.75"
   d="M 4.7832031,5 C 4.1047301,5.0000678 3.687407,5.4004177 3.4277344,5.7578125 3.1680617,6.1152073 3.0000501,6.496016 3,7 v 9 a 1.0001,1.0001 0 0 0 1,1 h 0.75 9.113281 a 1.0001,1.0001 0 0 0 0.935547,-0.644531 l 1.994141,-5.25586 a 1.0001,1.0001 0 0 0 0.02148,-0.06836 c 0.05585,-0.18617 0.1053,-0.333674 0.142578,-0.537109 0.03728,-0.203435 0.101085,-0.5971133 -0.203125,-1.0019535 C 16.449697,9.0873473 16.060292,9.0398724 15.855469,9.0175781 15.650646,8.9952839 15.494168,9 15.298828,9 H 15 V 8.75 C 14.999906,7.7954324 14.204566,7.0000954 13.25,7 H 9.8925781 L 7.3535156,5.3789062 7.5214844,5.5136719 C 7.1936284,5.1857725 6.750162,5.0000899 6.2832031,5 Z"
   id="path847" />
<g
   transform="matrix(.75 0 0 .75 4 5.5)"
   id="g14"
   fill-rule="evenodd">
  <path
     d="m3.0451977.66666667c.265199.0000511.519519.1054325.707031.2929688l3.7138111 2.37369783h4.8672932c.552262.0000552.999945.4477379 1 1v8.3333337l-13.333333 1.333333v-12c.000055-.5522619.49293574-1.33327813 1.0451977-1.33333333z"
     id="path6"
     fill="#ed8733" />
  <path
     d="m2.6666667 2 4 2.6666667h5.3333333v8.0000003h-10.6666667v-10.666667z"
     id="path8"
     stroke-width=".941243"
     fill="#fafafa" />
  <path
     d="m0 14h1 12.151259l2.657335-7.0078125c.297854-.992847.298232-.9921875-.744141-.9921875h-1-1-9.0429686c-1.0211864 0-1.0208091-.0005516-1.2792969.9902344l-1.7421875 4.6757816z"
     id="path10"
     fill="#ed8733" />
  <path
     d="m4.2567275 7.3368089-2.0086806 5.3298581h9.7519531l2-5.3333337z"
     id="path12"
     stroke-width=".888889"
     fill="#f8db8f" />
</g>
</svg>
