<?xml version="1.0" encoding="UTF-8" standalone="no"?>
<svg
   xmlns:dc="http://purl.org/dc/elements/1.1/"
   xmlns:cc="http://creativecommons.org/ns#"
   xmlns:rdf="http://www.w3.org/1999/02/22-rdf-syntax-ns#"
   xmlns:svg="http://www.w3.org/2000/svg"
   xmlns="http://www.w3.org/2000/svg"
   xmlns:sodipodi="http://sodipodi.sourceforge.net/DTD/sodipodi-0.dtd"
   xmlns:inkscape="http://www.inkscape.org/namespaces/inkscape"
   viewBox="0 0 16 16"
   version="1.1"
   id="svg18"
   sodipodi:docname="sc_rename.svg"
   inkscape:version="0.92.3 (2405546, 2018-03-11)"><metadata
   id="metadata24">
  <rdf:RDF>
    <cc:Work
       rdf:about="">
      <dc:format>image/svg+xml</dc:format>
      <dc:type
         rdf:resource="http://purl.org/dc/dcmitype/StillImage" />
      <dc:title></dc:title>
    </cc:Work>
  </rdf:RDF>
</metadata>
<defs
   id="defs22">
  <linearGradient
     id="a"
     gradientUnits="userSpaceOnUse"
     x1="87.5"
     x2="87.5"
     y1="9"
     y2="-3">
    <stop
       offset="0"
       stop-color="#0040dd"
       id="stop2" />
    <stop
       offset="1"
       stop-color="#0a84ff"
       id="stop4" />
  </linearGradient>
</defs>
<sodipodi:namedview
   pagecolor="#fafafafff"
   bordercolor="#666666"
   borderopacity="1"
   objecttolerance="10"
   gridtolerance="10"
   guidetolerance="10"
   inkscape:pageopacity="0"
   inkscape:pageshadow="2"
   inkscape:window-width="1366"
   inkscape:window-height="704"
   id="namedview20"
   showgrid="true"
   showguides="false"
   inkscape:pagecheckerboard="true"
   inkscape:zoom="12.706336"
   inkscape:cx="12.322181"
   inkscape:cy="8.3319047"
   inkscape:window-x="0"
   inkscape:window-y="0"
   inkscape:window-maximized="1"
   inkscape:current-layer="svg18">
  <inkscape:grid
     type="xygrid"
     id="grid834" />
</sodipodi:namedview>

/&amp;amp;amp;amp;amp;gt;<path
   sodipodi:type="inkscape:offset"
   inkscape:radius="1"
   inkscape:original="M 10 2 C 9.4477381 2.0000552 9.0000552 2.4477381 9 3 L 9 4 C 9.0000552 4.5522619 9.4477381 4.9999448 10 5 L 11 5 L 11 13 L 10 13 C 9.4477381 13.000055 9.0000552 13.447738 9 14 L 9 15 C 9.0000552 15.552262 9.4477381 15.999945 10 16 L 12 16 C 12.175608 15.999755 12.348056 15.95328 12.5 15.865234 C 12.651944 15.953274 12.824392 15.999755 13 16 L 15 16 C 15.552262 15.999945 15.999945 15.552262 16 15 L 16 14 C 15.999945 13.447738 15.552262 13.000055 15 13 L 14 13 L 14 5 L 15 5 C 15.552262 4.9999448 15.999945 4.5522619 16 4 L 16 3 C 15.999945 2.4477381 15.552262 2.0000552 15 2 L 13 2 C 12.824392 2.0002451 12.651944 2.0467252 12.5 2.1347656 C 12.348056 2.0467252 12.175608 2.0002451 12 2 L 10 2 z "
   style="fill:#922e9b;fill-opacity:1"
   id="path862"
   d="M 10,1 C 8.9073687,1.0001092 8.0001092,1.9073687 8,3 v 1 c 1.092e-4,1.0926313 0.9073687,1.9998908 2,2 v 6 c -1.0926316,1.09e-4 -1.9998908,0.907369 -2,2 v 1 c 1.092e-4,1.092631 0.9073684,1.999891 2,2 h 2 a 1.0001,1.0001 0 0 0 0.002,0 C 12.176878,16.999756 12.332449,16.910223 12.5,16.865234 12.667546,16.910223 12.823111,16.999756 12.998047,17 A 1.0001,1.0001 0 0 0 13,17 h 2 c 1.092632,-1.09e-4 1.999891,-0.907368 2,-2 v -1 c -1.09e-4,-1.092632 -0.907368,-1.999891 -2,-2 V 6 c 1.092631,-1.092e-4 1.999891,-0.9073684 2,-2 V 3 C 16.999891,1.9073684 16.092631,1.0001092 15,1 h -2 a 1.0001,1.0001 0 0 0 -0.002,0 C 12.823112,1.0002442 12.667546,1.0897775 12.5,1.1347656 12.332454,1.0897775 12.176888,1.0002442 12.001953,1 A 1.0001,1.0001 0 0 0 12,1 Z" />
<path
   style="fill:#3a3a38;fill-opacity:1"
   d="M 10,2 C 9.4477381,2.0000552 9.0000552,2.4477381 9,3 v 1 c 5.52e-5,0.5522619 0.4477381,0.9999448 1,1 h 1 v 8 h -1 c -0.5522619,5.5e-5 -0.9999448,0.447738 -1,1 v 1 c 5.52e-5,0.552262 0.4477381,0.999945 1,1 h 2 c 0.175608,-2.45e-4 0.348056,-0.04672 0.5,-0.134766 0.151944,0.08804 0.324392,0.134521 0.5,0.134766 h 2 c 0.552262,-5.5e-5 0.999945,-0.447738 1,-1 v -1 c -5.5e-5,-0.552262 -0.447738,-0.999945 -1,-1 H 14 V 5 h 1 c 0.552262,-5.52e-5 0.999945,-0.4477381 1,-1 V 3 C 15.999945,2.4477381 15.552262,2.0000552 15,2 H 13 C 12.824392,2.0002451 12.651944,2.0467252 12.5,2.1347656 12.348056,2.0467252 12.175608,2.0002451 12,2 Z"
   id="path39"
   inkscape:connector-curvature="0"
   sodipodi:nodetypes="ccccccccccccccccccccccccccc" />
<path
   inkscape:connector-curvature="0"
   style="fill:#fafafa"
   d="m 10,3 v 1 h 2 V 3 Z m 2,1 v 10 h 1 V 4 Z m 1,0 h 2 V 3 h -2 z m 0,10 v 1 h 2 v -1 z m -1,0 h -2 v 1 h 2 z"
   id="path41" />
</svg>
