<?xml version="1.0" encoding="UTF-8" standalone="no"?>
<svg
   xmlns:dc="http://purl.org/dc/elements/1.1/"
   xmlns:cc="http://creativecommons.org/ns#"
   xmlns:rdf="http://www.w3.org/1999/02/22-rdf-syntax-ns#"
   xmlns:svg="http://www.w3.org/2000/svg"
   xmlns="http://www.w3.org/2000/svg"
   xmlns:sodipodi="http://sodipodi.sourceforge.net/DTD/sodipodi-0.dtd"
   xmlns:inkscape="http://www.inkscape.org/namespaces/inkscape"
   viewBox="0 0 16 16"
   version="1.1"
   id="svg12"
   sodipodi:docname="sc_style.svg"
   inkscape:version="0.92.3 (2405546, 2018-03-11)"><metadata
   id="metadata18">
  <rdf:RDF>
    <cc:Work
       rdf:about="">
      <dc:format>image/svg+xml</dc:format>
      <dc:type
         rdf:resource="http://purl.org/dc/dcmitype/StillImage" />
      <dc:title></dc:title>
    </cc:Work>
  </rdf:RDF>
</metadata>
<defs
   id="defs16" />
<sodipodi:namedview
   pagecolor="#ffffff"
   bordercolor="#666666"
   borderopacity="1"
   objecttolerance="10"
   gridtolerance="10"
   guidetolerance="10"
   inkscape:pageopacity="0"
   inkscape:pageshadow="2"
   inkscape:window-width="1366"
   inkscape:window-height="704"
   id="namedview14"
   showgrid="true"
   inkscape:snap-global="true"
   inkscape:zoom="22.627417"
   inkscape:cx="6.821284"
   inkscape:cy="8.5609694"
   inkscape:window-x="0"
   inkscape:window-y="0"
   inkscape:window-maximized="1"
   inkscape:current-layer="svg12">
  <inkscape:grid
     type="xygrid"
     id="grid828" />
</sodipodi:namedview>
/&amp;amp;gt;<path
   sodipodi:type="inkscape:offset"
   inkscape:radius="1.0257775"
   inkscape:original="M 15.271484 3 C 15.093596 3.00524 14.900794 3.0968934 14.75 3.1914062 C 10.613241 5.7768807 10 7 7.5 10.5 C 7.3774382 10.647438 7.3075069 10.825021 7.2832031 11.009766 C 7.2655021 11.010339 7.2480987 11.009108 7.2304688 11.009766 C 6.9692751 11.019466 6.7161345 11.038671 6.5 11.056641 C 4.443308 11.550741 4.7628668 12.393655 3.21875 14.378906 C 2.7023035 15.044072 3.1578878 16.006515 4 16.007812 C 6.7115807 15.834461 7.7401211 16.536699 9.578125 14.773438 C 9.649765 14.702117 9.7103315 14.620491 9.7578125 14.53125 C 9.9209177 14.179558 10.019705 13.848638 10.017578 13.519531 C 10.015678 13.22233 9.951601 12.939207 9.8671875 12.677734 C 10.018824 12.676234 10.152522 12.679122 10.339844 12.669922 C 10.564882 12.658832 10.779592 12.572122 10.949219 12.423828 C 14.523792 9.3084782 13.862112 9.9934537 15.830078 7.0742188 C 15.940988 6.9090527 16.000148 6.714575 16 6.515625 L 16 4.015625 C 15.999853 3.451858 15.83502 2.9838719 15.271484 3 z M 7.2441406 11.988281 C 6.7538793 11.984621 6.313797 12.11082 5.8671875 12.427734 L 5.8515625 12.421875 C 6.3039896 12.095733 6.747732 11.984575 7.2441406 11.988281 z "
   style="fill:#922e9b;stroke:none;stroke-width:1px;stroke-linecap:butt;stroke-linejoin:miter;stroke-opacity:1"
   id="path906"
   d="M 15.242188,1.9746094 C 14.734221,1.9895724 14.436399,2.1772811 14.205078,2.3222656 10.016027,4.940679 9.1493094,6.4259313 6.7109375,9.84375 c -0.001,0.00121 -9.522e-4,0.0027 -0.00195,0.00391 -0.043388,0.052455 -0.037441,0.1185382 -0.074219,0.1738278 -0.069682,0.0053 -0.1578718,0.0084 -0.2207031,0.01367 a 1.02588,1.02588 0 0 0 -0.1542969,0.02344 C 5.0908639,10.339411 4.3016368,10.904023 3.8320312,11.564453 3.3624257,12.224884 3.1160128,12.839978 2.4082031,13.75 c -0.4948026,0.637289 -0.5440925,1.485862 -0.234375,2.134766 0.3097175,0.648903 1.0126648,1.147187 1.8242188,1.148437 a 1.02588,1.02588 0 0 0 0.068359,-0.002 c 1.2595385,-0.08052 2.1367845,0.05874 3.1328126,-0.02148 0.996028,-0.08023 2.0527712,-0.501194 3.0898432,-1.496094 A 1.02588,1.02588 0 0 0 10.302734,15.5 c 0.144107,-0.143465 0.265774,-0.306732 0.361328,-0.486328 a 1.02588,1.02588 0 0 0 0.02344,-0.05078 c 0.199923,-0.43108 0.358951,-0.910411 0.355469,-1.449219 -1.92e-4,-0.02992 -0.01267,-0.0487 -0.01367,-0.07813 0.199493,-0.08331 0.428629,-0.0943 0.59375,-0.238281 l 0.002,-0.002 c 3.561919,-3.104288 3.105354,-2.655279 5.054688,-5.5468745 a 1.02588,1.02588 0 0 0 0.002,-0.00195 C 16.906189,7.3120895 17.02569,6.918423 17.025391,6.515625 v -2.5 C 17.025291,3.633844 16.997476,3.2116336 16.726562,2.7617188 16.455649,2.3118039 15.810417,1.958347 15.242188,1.9746094 Z" />
<path
   style="fill:#3a3a38;stroke:none;stroke-width:1px;stroke-linecap:butt;stroke-linejoin:miter;stroke-opacity:1"
   d="M 15.272029,3 C 15.094141,3.00524 14.901339,3.0963941 14.750545,3.1909069 10.613786,5.7763812 10,7 7.5,10.5 c -0.210813,0.253601 -0.283141,0.594786 -0.193359,0.91211 0.124699,0.438291 0.05849,0.586853 0.729808,0.897431 0.67132,0.310578 1.030176,0.423588 2.302734,0.361328 0.225038,-0.01109 0.439749,-0.0978 0.609376,-0.246094 3.574573,-3.115338 2.913553,-2.4320307 4.881519,-5.3512657 0.11091,-0.165166 0.17007,-0.359644 0.169922,-0.558594 v -2.5 C 15.999853,3.4511483 15.835565,2.9838719 15.272029,3 Z"
   id="path830"
   inkscape:connector-curvature="0"
   sodipodi:nodetypes="ccccscccccc" />
<path
   style="fill:#fafafa;stroke:none;stroke-width:1px;stroke-linecap:butt;stroke-linejoin:miter;stroke-opacity:1"
   d="m 15,4.2729381 c -3.629717,2.3517184 -4.226438,3.3663405 -6.6855469,6.8090929 -0.014286,0.01941 -0.02927,0.03831 -0.044922,0.05664 h -0.00195 c 0.083056,0.291924 0.1130843,0.342522 0.042969,0.232422 -0.070116,-0.1101 -0.1231235,-0.09544 0.1464843,0.0293 0.6319655,0.292371 0.6295827,0.330409 1.8339846,0.271484 6.66e-4,-6.68e-4 0.0013,-0.0013 0.002,-0.002 C 12.043068,10.144662 12.673061,9.3784685 13.144531,8.625 13.615785,7.8718784 13.977585,8.0340199 15,6.5170787 v -0.00195 z"
   id="path846"
   inkscape:connector-curvature="0"
   sodipodi:nodetypes="cccccccccccc" />
<path
   style="fill:#0063b1;stroke:none;stroke-width:1px;stroke-linecap:butt;stroke-linejoin:miter;stroke-opacity:1"
   d="M 7.2304688 11.009766 C 6.9692752 11.019506 6.7161345 11.038663 6.5 11.056641 C 4.443308 11.550741 4.7628668 12.393655 3.21875 14.378906 C 2.7023038 15.044067 3.1578878 16.006513 4 16.007812 C 6.7115807 15.834461 7.7401211 16.536701 9.578125 14.773438 C 9.649765 14.702116 9.7103315 14.620491 9.7578125 14.53125 C 9.9209177 14.179558 10.019705 13.848638 10.017578 13.519531 C 10.013878 12.951272 9.785328 12.420996 9.6152344 12.033203 C 9.1736249 11.452447 8.7352455 11.162709 8.0117188 11.011719 C 7.7615569 10.999419 7.4916621 11.000025 7.2304688 11.009766 z M 7.2441406 11.988281 C 7.4549749 11.989855 7.6753881 12.009788 7.9101562 12.041016 C 8.555936 12.267104 8.9492955 12.703832 8.9941406 13.548828 C 8.9946193 13.622897 8.9779968 13.726245 8.9453125 13.845703 L 5.8515625 12.421875 C 6.3039896 12.095733 6.747732 11.984575 7.2441406 11.988281 z M 5.1855469 13.214844 L 8.2070312 14.605469 C 7.8042704 14.87542 7.4770004 14.962614 7.0371094 14.998047 C 6.1329021 14.988868 4.6181617 14.989258 4.0019531 14.988281 C 4.6056865 14.21207 4.9295505 13.650556 5.1855469 13.214844 z "
   id="path839" />
<path
   style="fill:#83beec;stroke:none;stroke-width:1px;stroke-linecap:butt;stroke-linejoin:miter;stroke-opacity:1"
   d="M 5.1855469 13.214844 C 4.9295505 13.650556 4.6056865 14.21207 4.0019531 14.988281 C 4.6181617 14.989258 6.1329021 14.988868 7.0371094 14.998047 C 7.4770004 14.962614 7.8042705 14.87542 8.2070312 14.605469 L 5.1855469 13.214844 z "
   id="path855" />
<path
   id="path871"
   d="M 7.2441406,11.988281 C 6.7538793,11.984621 6.313797,12.11082 5.8671875,12.427734 l 3.078125,1.417969 c 0.032685,-0.119484 0.049307,-0.222806 0.048828,-0.296875 C 8.9492955,12.703832 8.555936,12.267104 7.9101562,12.041016 7.6753881,12.009788 7.4549749,11.989855 7.2441406,11.988281 Z"
   style="fill:#fafafa;stroke:none;stroke-width:1px;stroke-linecap:butt;stroke-linejoin:miter;stroke-opacity:1"
   inkscape:connector-curvature="0"
   sodipodi:nodetypes="sccccs" />
</svg>
