<?xml version="1.0" encoding="UTF-8" standalone="no"?>
<svg
   xmlns:dc="http://purl.org/dc/elements/1.1/"
   xmlns:cc="http://creativecommons.org/ns#"
   xmlns:rdf="http://www.w3.org/1999/02/22-rdf-syntax-ns#"
   xmlns:svg="http://www.w3.org/2000/svg"
   xmlns="http://www.w3.org/2000/svg"
   xmlns:sodipodi="http://sodipodi.sourceforge.net/DTD/sodipodi-0.dtd"
   xmlns:inkscape="http://www.inkscape.org/namespaces/inkscape"
   viewBox="0 0 32 32"
   version="1.1"
   id="svg12"
   sodipodi:docname="style.svg"
   inkscape:version="0.92.3 (2405546, 2018-03-11)">
  <metadata
     id="metadata18">
    <rdf:RDF>
      <cc:Work
         rdf:about="">
        <dc:format>image/svg+xml</dc:format>
        <dc:type
           rdf:resource="http://purl.org/dc/dcmitype/StillImage" />
        <dc:title></dc:title>
      </cc:Work>
    </rdf:RDF>
  </metadata>
  <defs
     id="defs16" />
  <sodipodi:namedview
     pagecolor="#ffffff"
     bordercolor="#666666"
     borderopacity="1"
     objecttolerance="10"
     gridtolerance="10"
     guidetolerance="10"
     inkscape:pageopacity="0"
     inkscape:pageshadow="2"
     inkscape:window-width="1366"
     inkscape:window-height="704"
     id="namedview14"
     showgrid="true"
     inkscape:snap-global="false"
     inkscape:zoom="15.969076"
     inkscape:cx="19.56119"
     inkscape:cy="13.15802"
     inkscape:window-x="0"
     inkscape:window-y="0"
     inkscape:window-maximized="1"
     inkscape:current-layer="svg12">
    <inkscape:grid
       type="xygrid"
       id="grid828" />
  </sodipodi:namedview>
  <g
     id="g840"
     transform="matrix(1.2642017,0,0,1.2642017,-0.07997352,-10.227257)">
    <path
       sodipodi:type="inkscape:offset"
       inkscape:radius="1.0027012"
       inkscape:original="M 27.691406 10 C 27.465986 10.0066 27.247727 10.07359 27.056641 10.193359 C 21.81453 13.469678 19.832916 16.586739 15.984375 21.228516 C 15.864392 21.520722 15.809623 21.776827 15.791016 22.011719 C 15.592048 22.013919 15.388517 22.005366 15.15625 22.009766 C 15.10021 22.009959 15.04563 22.014568 14.990234 22.023438 C 14.129093 22.164607 13.166361 22.464071 12.357422 23.152344 C 11.557928 23.832582 11.200674 24.466894 10.693359 25.134766 C 10.691159 25.138466 10.6897 25.140731 10.6875 25.144531 L 9.2421875 27.091797 C 8.6673585 27.866822 9.1935499 28.994578 10.130859 28.996094 L 13.470703 28.996094 C 13.488113 28.995737 13.504104 28.995513 13.521484 28.994141 C 15.514297 28.896271 17.32673 28.117716 18.494141 26.904297 C 18.573871 26.821197 18.640511 26.727027 18.693359 26.623047 C 19.007004 26.007548 19.025187 25.406673 18.962891 24.837891 C 18.930221 24.539618 18.871391 24.249177 18.773438 23.966797 C 19.301883 24.000617 19.813113 23.996266 20.214844 23.978516 C 20.500012 23.964456 20.773329 23.853937 20.988281 23.666016 C 25.517989 19.718253 26.287438 18.209027 28.78125 14.509766 C 28.921795 14.300467 28.996281 14.052891 28.996094 13.800781 L 28.996094 11.267578 C 28.99595 10.55317 28.40552 9.9795629 27.691406 10 z "
       style="fill:#922e9b;stroke:none;stroke-width:1.2672025px;stroke-linecap:butt;stroke-linejoin:miter;stroke-opacity:1"
       id="path864"
       d="m 27.662109,8.9980469 c -0.404893,0.011855 -0.799021,0.132817 -1.138671,0.3457031 -5.387094,3.367292 -7.49519,6.642387 -11.310547,11.244141 a 1.0028014,1.0028014 0 0 0 -0.15625,0.259765 c -0.02493,0.06071 -0.01981,0.111965 -0.04102,0.171875 -0.06181,0.0044 -0.124362,0.0042 -0.183594,0.01367 a 1.0028014,1.0028014 0 0 0 -0.0039,0 c -0.966803,0.158491 -2.122436,0.505777 -3.121094,1.355469 -0.921522,0.784064 -1.353008,1.533758 -1.8124998,2.138672 a 1.0028014,1.0028014 0 0 0 -0.027344,0.04102 L 8.4375,26.494141 c -1.026504,1.384005 -0.049583,3.50109 1.691406,3.503906 a 1.0028014,1.0028014 0 0 0 0.002,0 h 3.339844 a 1.0028014,1.0028014 0 0 0 0.02149,0 c 0.0098,-2e-4 0.04433,-1.88e-4 0.07812,-0.002 0.0015,-7.2e-5 0.0024,-0.0019 0.0039,-0.002 2.221579,-0.110098 4.26515,-0.962819 5.642578,-2.394532 a 1.0028014,1.0028014 0 0 0 0,-0.002 c 0.148487,-0.154763 0.274778,-0.330026 0.371094,-0.519531 h -0.002 c 0.381382,-0.748428 0.378636,-1.473754 0.333984,-2.101563 0.104477,-0.0025 0.245174,0.0081 0.339844,0.0039 a 1.0028014,1.0028014 0 0 0 0.0039,0 c 0.511201,-0.0252 0.997656,-0.222427 1.382812,-0.558594 4.582733,-3.993975 5.490207,-5.677848 7.966797,-9.351563 a 1.0028014,1.0028014 0 0 0 0,-0.002 c 0.253151,-0.376991 0.3851,-0.817482 0.384766,-1.267578 V 11.267578 C 29.997792,10.000816 28.928304,8.9618099 27.662109,8.9980469 Z"
       transform="matrix(0.79101302,0,0,0.79101302,0.0632601,8.0898934)" />
    <path
       sodipodi:nodetypes="ccccccccc"
       inkscape:connector-curvature="0"
       id="path830"
       d="m 21.96826,16.000001 c -0.17831,0.0052 -0.351993,0.05797 -0.503145,0.152706 -4.146578,2.591611 -5.714115,5.057001 -8.758361,8.728707 -0.884211,2.153413 1.99576,2.23573 3.347109,2.176021 0.225572,-0.01112 0.440793,-0.09803 0.610823,-0.246678 3.583058,-3.122732 4.192351,-4.317551 6.164989,-7.243715 C 22.940848,19.401484 23.000148,19.206544 23,19.007122 v -2.004747 c -1.47e-4,-0.565106 -0.466867,-1.01854 -1.03174,-1.002374 z"
       style="fill:#3a3a38;stroke:none;stroke-width:1.0023737px;stroke-linecap:butt;stroke-linejoin:miter;stroke-opacity:1" />
    <path
       style="fill:#fafafa;stroke:none;stroke-width:1.0023737px;stroke-linecap:butt;stroke-linejoin:miter;stroke-opacity:1"
       d="m 21.992188,16.792969 c -0.03818,0.0011 -0.07545,0.01243 -0.105469,0.03125 a 0.79311708,0.79311708 0 0 1 -0.002,0 c -3.972775,2.482984 -5.472141,4.814817 -8.453125,8.425781 -0.102128,0.293846 -0.09942,0.450445 -0.06641,0.511719 0.03744,0.06947 0.164639,0.188556 0.447266,0.291015 0.564264,0.204559 1.568097,0.23872 2.203125,0.210938 0.04859,-0.0024 0.09036,-0.01879 0.126953,-0.05078 3.540457,-3.085604 4.044021,-4.142862 6.029297,-7.087891 v -0.002 c 0.02317,-0.03513 0.03519,-0.07299 0.03516,-0.115235 v -2.005859 c -3.3e-5,-0.129029 -0.08592,-0.212674 -0.214843,-0.208984 z"
       id="path842" />
    <path
       style="fill:#0063b1;stroke:none;stroke-width:1.13881004px;stroke-linecap:butt;stroke-linejoin:miter;stroke-opacity:1"
       d="M 15.15625 22.009766 C 15.100208 22.009959 15.04563 22.014588 14.990234 22.023438 C 14.129093 22.164608 13.166361 22.464071 12.357422 23.152344 C 11.557928 23.832582 11.200674 24.466894 10.693359 25.134766 C 10.691172 25.138432 10.689662 25.140739 10.6875 25.144531 L 9.2421875 27.091797 C 8.6673585 27.866822 9.1935486 28.994578 10.130859 28.996094 L 13.470703 28.996094 C 13.488111 28.995737 13.504102 28.995466 13.521484 28.994141 C 15.514297 28.896266 17.32673 28.117716 18.494141 26.904297 C 18.573874 26.821201 18.640511 26.727027 18.693359 26.623047 C 19.007004 26.007548 19.025187 25.406673 18.962891 24.837891 C 18.900591 24.269112 18.750749 23.726195 18.394531 23.220703 C 18.393792 23.219186 18.393463 23.216361 18.392578 23.214844 C 17.934367 22.571877 17.252787 22.125885 16.595703 22.015625 C 16.048392 21.98287 15.682963 21.999715 15.15625 22.009766 z "
       transform="matrix(0.79101302,0,0,0.79101302,0.0632601,8.0898934)"
       id="path839" />
    <path
       style="fill:#83beec;stroke:none;stroke-width:1.13881004px;stroke-linecap:butt;stroke-linejoin:miter;stroke-opacity:1"
       d="M 11.53125 25.683594 C 11.525882 25.69074 11.522996 25.695939 11.517578 25.703125 A 0.99948558 0.99948558 0 0 1 11.490234 25.744141 L 10.042969 27.685547 C 9.9182499 27.853702 9.9961073 27.993919 10.132812 27.994141 L 13.470703 27.994141 A 0.99948558 0.99948558 0 0 1 13.472656 27.994141 C 14.652862 27.936174 15.745266 27.599034 16.628906 27.085938 L 11.53125 25.683594 z "
       transform="matrix(0.79101302,0,0,0.79101302,0.0632601,8.0898934)"
       id="path847" />
    <path
       id="path859"
       transform="matrix(0.79101302,0,0,0.79101302,0.0632601,8.0898934)"
       d="m 15.146484,23.009766 c -0.753286,0.123841 -1.52266,0.37685 -2.142578,0.904296 -0.340375,0.289605 -0.582615,0.567665 -0.808594,0.863282 l 5.472657,1.527344 c 0.03333,-0.03256 0.07156,-0.06248 0.103515,-0.0957 0.01201,-0.01279 0.0216,-0.02393 0.0293,-0.03906 v -0.002 c 0.202079,-0.396561 0.223324,-0.752911 0.171875,-1.222657 -0.05066,-0.462489 -0.157358,-0.811056 -0.396484,-1.15039 -0.308606,-0.433039 -0.791414,-0.716625 -1.126953,-0.779297 -0.448951,-0.02291 -0.769348,-0.01545 -1.271485,-0.0059 -0.0059,5.2e-5 -0.01172,5.2e-5 -0.01758,0 -0.01909,6.5e-5 -0.02444,0.0018 -0.01367,0 z m 2.429688,0.785156 c -0.01829,-0.02715 -0.03524,-0.05517 -0.05078,-0.08398 0.0038,0.0067 -0.0029,-4.19e-4 0.002,0.0078 z"
       style="fill:#fafafa;stroke:none;stroke-width:1.13881004px;stroke-linecap:butt;stroke-linejoin:miter;stroke-opacity:1"
       inkscape:connector-curvature="0"
       sodipodi:nodetypes="ccccccccccccccccc" />
  </g>
</svg>
