<svg viewBox="0 0 24 24" xmlns="http://www.w3.org/2000/svg"><path d="m3 2h18v19h-18z" fill="#fafafa"/><path d="m2 1v21h9v-1h-2-1-5v-3-1-3-1-3-1-3-1-3h5 1 6 1 5v3 1 3 1 2h1v-11z"/><path d="m15 14v2h5v-2z" fill="#fafafa"/><path d="m14 13v3h1v-2h5v2h1v-3h-1-5zm-1 3c-.554 0-1 .446-1 1v4c0 .554.446 1 1 1h1v2h1 5 1v-2h1c.554 0 1-.446 1-1v-4c0-.554-.446-1-1-1v3h-9zm2 6h5v1h-5z" fill="#3a3a38"/><path d="m14 16h7v2h-7z" fill="#1e8bcd"/><path d="m15 22v1h5v-1z" fill="#fafafa" stroke-width=".707107"/><path d="m8 2v3h-5v1h5v3h-5v1h5v3h-5v1h5v3h-5v1h5v3h1v-3h2v-1h-2v-3h4v-1h-4v-3h6v2h1v-2h5v-1h-5v-3h5v-1h-5v-3h-1v3h-6v-3zm1 4h6v3h-6z" fill="#797774"/><path d="m3 2h12v7h-12z" fill="#1e8bcd" opacity=".5"/><path d="m2 1v9h1 5 1 6 1v-9h-1-6-1-5zm1 1h5v3h-5zm6 0h6v3h-6zm-6 4h5v3h-5zm6 0h6v3h-6z" fill="#0063b1"/><path d="m8 2v3h-5v1h5v3h-5v1h13v-8h-1v3h-6v-3zm1 4h6v3h-6z" fill="#1e8bcd"/></svg>