<svg viewBox="0 0 24 24" xmlns="http://www.w3.org/2000/svg"><g fill="#3a3a38" transform="matrix(0 -1 -1 0 0 0)"><path d="m-21.5-5h19c.277 0 .5.223.5.5s-.223.5-.5.5h-19c-.277 0-.5-.223-.5-.5s.223-.5.5-.5z"/><path d="m-19.5-22c.277 0 .5.223.5.5v19c0 .277-.223.5-.5.5s-.5-.223-.5-.5v-19c0-.277.223-.5.5-.5z"/></g><path d="m6.8300781 2c-.4601014 0-.8300781.3699767-.8300781.8300781v4.7089844c.0351426-.3638881.1173905-.8239488.3574219-1.3339844a2.027396 2.027396 0 0 1 .1464843-.2617187c.3401106-.5103492.7598904-1.0548044 1.4257813-1.4433594s1.346303-.4797068 1.9238281-.5214844a2.027396 2.027396 0 0 1 .1562504-.0058594l3.957031.0195313h.005859a2.027396 2.027396 0 0 1 .322266-1.0878906 2.027396 2.027396 0 0 0 .001953-.0019531c.122036-.3222686.293278-.6199011.486328-.9023438zm5.7714839 10.734375c-1.003889 1.34687-2.255769 2.301851-3.6367182 3.048828a2.027396 2.027396 0 0 1 -2.9648438-1.462891v2.84961c0 .460101.3699767.830078.8300781.830078h14.3398439c.460101 0 .830078-.369977.830078-.830078v-2.904297l-5.09375 2.546875a2.027396 2.027396 0 0 1 -2.71875-.90625z" fill="#1e8bcd"/><g transform="translate(-2 2)"><path d="m7 4-1.0197613.018687-3.9802387-.018687c-.931826.0674074-1.26108412.24659-1.80891038 1.0686251-.23536957.5001291-.18812052 1.0060873-.18554966 1.1134571l-.00553996 5.8179178c1.2308966-.665811 2.1877407-1.400014 3-2.5.0025999-.9507136-.0122883-.9878477.007811-2.8527291-.0087902-.7429187.5557234-.8771154.992189-1.1472709z" fill="#0063b1" fill-rule="evenodd" transform="translate(10)"/><path d="m2.0605469 4.9941406c-.3933227.0298039-.5371223.0742138-.6074219.1152344-.0623055.036356-.1932771.1836649-.3769531.4433594-.0369594.0978716-.0676512.2049334-.0761719.3046875-.0102171.1196148-.00388037.1387207 0 .3007812a.99433536.99433536 0 0 1 0 .025391l-.003906 3.7246093c.3212554-.2755246.7352629-.48896 1.0117185-.8378909-.0012383-.6195262-.0106929-.8583307.0058594-2.4121094-.0073824-.6239362.3322038-1.2339661.6914062-1.5292969.0984394-.0809353.1245173-.075221.2109375-.1308593z" fill="#83beec" fill-rule="evenodd" transform="translate(10)"/><path d="m20.5 3-6 3 3.5 7 6-3z" fill="#3a3a38"/><path d="m20.177734 3.9667969-4.710937 2.3554687 2.855469 5.7109374 4.710937-2.3554686z" fill="#fafafa"/><path d="m18.5 8v-5.5c0-2.82779209 4-2.4999999 4 0v3.5" fill="none" stroke="#3a3a38"/></g></svg>