<svg viewBox="0 0 24 24" xmlns="http://www.w3.org/2000/svg"><path d="m3 2c-.554 0-1 .446-1 1v6.3164062 9.6835938c0 .554.446 1 1 1h9.525391 1.345703l1-1h-1.357422-10.513672v-9.0234375-6.9765625h7.486328 10.513672v9.023438.847656l.578125-.578125c.117684-.117071.262673-.20299.421875-.25v-9.042969c0-.554-.446-1-1-1h-9.525391z" fill="#3a3a38"/><path d="m3 3v6.9765625 9.0234375h10.513672 1.357422l1-1-3.578125-3.578125c-.390668-.390406-.390668-1.023657 0-1.414063l.714843-.714843c.183634-.183805.431621-.288884.691407-.292969.270614-.0042.531368.101504.722656.292969l3.578125 3.578125 3-3v-.847656-9.023438h-10.513672z" fill="#fafafa"/><path d="m22.285683 12.999968-4.285715 4.285714-4.285715-4.285714-.714285.714285 4.285714 4.285715-4.285714 4.285715.714285.714285 4.285715-4.285714 4.285715 4.285714.714285-.714285-4.285714-4.285715 4.285714-4.285715z" fill="#ed3d3b"/></svg>