<svg height="24" viewBox="0 0 6.3499999 6.3500002" width="24" xmlns="http://www.w3.org/2000/svg" xmlns:xlink="http://www.w3.org/1999/xlink"><linearGradient id="a" gradientUnits="userSpaceOnUse" x1="18.25624977" x2="18.25624977" xlink:href="#b" y1="299.11666603083" y2="295.14791608083"/><linearGradient id="b" gradientUnits="userSpaceOnUse" x1="63" x2="63" y1="35" y2="20"><stop offset="0" stop-color="#e9e9e9"/><stop offset=".2857143" stop-color="#f2f2f2"/><stop offset="1" stop-color="#fbfbfb"/></linearGradient><linearGradient id="c" gradientUnits="userSpaceOnUse" x1="16.66874979" x2="16.66874979" xlink:href="#b" y1="299.91041655" y2="295.9416666"/><g transform="translate(0 -290.64998)"><path d="m2.38125 292.2375h3.175v3.175h-3.175z" fill="url(#a)" stroke-width=".264583"/><path d="m.79375 293.03125h3.175v3.175h-3.175z" fill="url(#c)" stroke-width=".264583"/><path d="m2.38125 291.17917c-.1465791 0-.2645833.118-.2645833.26458v.52917h-1.3229167c-.14657916 0-.26458333.118-.26458333.26458v3.96875c0 .14658.11800417.26458.26458333.26458h3.175c.1465792 0 .2645834-.118.2645834-.26458v-.52917h1.3229166c.1465792 0 .2645834-.118.2645834-.26458v-3.96875c0-.14658-.1180042-.26458-.2645834-.26458zm1.8520834 1.05833h1.3229166v3.175h-1.3229166zm-3.4395834.79375h1.3229167v2.38125c0 .14658.1180042.26458.2645833.26458h1.5875v.52917h-3.175zm1.5875 0h1.5875v2.38125h-1.5875z" fill="#3a3a38" stroke-width=".264583"/><g fill="#98989d" stroke-width=".26458333"><g fill="#797774"><rect height=".26458333" rx=".132291665" width="1.05833332" x="4.23333328" y="294.08958329"/><rect height=".26458333" rx=".132291665" width="1.05833332" x="4.23333328" y="293.2958333"/><rect height=".26458333" rx=".132291665" width="1.05833332" x="4.23333328" y="292.50208331"/><rect fill="#797774" height=".26458333" rx=".132291665" width="1.05833332" x="1.05833332" y="293.2958333"/><rect height=".26458333" rx=".132291665" width="1.05833332" x="1.05833332" y="294.08958329"/><rect height=".26458333" rx=".132291665" width="1.05833332" x="1.05833332" y="294.88333328"/></g><g fill="#1e8bcd"><rect height=".26458333" rx=".132291665" width="1.05833332" x="2.6458333" y="294.88333328"/><rect height=".26458333" rx=".132291665" width="1.05833332" x="2.6458333" y="293.2958333"/><rect height=".26458333" rx=".132291665" width="1.05833332" x="2.6458333" y="294.08958329"/></g><g fill="#797774"><rect height=".26458333" rx=".132291665" width="1.05833332" x="1.05833332" y="295.67708327"/><rect height=".26458333" rx=".132291665" width="1.05833332" x="4.23333328" y="294.88333328"/></g></g><g stroke-width=".264583"><path d="m.79375 291.97292c-.14657916 0-.26458333.118-.26458333.26458v.52917.26458h.26458333 3.175.2645834v-.26458-.52917c0-.14658-.1180042-.26458-.2645834-.26458z" fill="#922e9b"/><path d="m.79375 292.2375v.52917h1.3229167v-.52917zm1.5875 0v.52917h1.5875v-.52917z" fill="#d492d8"/><path d="m2.38125 291.17917c-.1465791 0-.2645833.118-.2645833.26458v.52917.26458h.2645833 3.175.2645834v-.26458-.52917c0-.14658-.1180042-.26458-.2645834-.26458z" fill="#922e9b"/><path d="m2.38125 291.44375h3.175v.52917h-3.175z" fill="#d492d8"/></g></g></svg>