<svg height="24" viewBox="0 0 6.3499999 6.3500002" width="24" xmlns="http://www.w3.org/2000/svg"><g transform="translate(0 -290.64998)"><g stroke-width=".264583"><path d="m.74879151 291.17917c-.12173516 0-.21962483.0979-.21962483.21962v4.27829c0-.14658.11800417-.26458.26458333-.26458v-3.96875c0-.14658.11800417-.26458.26458329-.26458zm.57412519 0c.1465791 0 .2645833.118.2645833.26458v3.96875h3.96875c.1465792 0 .2645834.118.2645834.26458v-4.27829c0-.12173-.09789-.21962-.2196248-.21962zm-.79375002 4.7625v.30954c0 .12173.0978897.21962.21962483.21962h.30954179c-.14657912 0-.26458329-.118-.26458329-.26458-.14657916 0-.26458333-.118-.26458333-.26458zm5.29166672 0c0 .14658-.1180042.26458-.2645834.26458h-3.96875c0 .14658-.1180042.26458-.2645833.26458h4.2782919c.121735 0 .2196248-.0979.2196248-.21962z" fill="#1e8bcd"/><g fill="#fff" fill-opacity=".784314"><path d="m1.0583333 291.17917h.2645834c.1465791 0 .2645833.118.2645833.26458v4.7625c0 .14658-.1180042.26458-.2645833.26458h-.2645834c-.14657912 0-.26458329-.118-.26458329-.26458v-4.7625c0-.14658.11800417-.26458.26458329-.26458z"/><path d="m.79375001 295.4125h4.76249999c.1465792 0 .2645834.118.2645834.26458v.26459c0 .14658-.1180042.26458-.2645834.26458h-4.76249999c-.14657916 0-.26458333-.118-.26458333-.26458v-.26459c0-.14658.11800417-.26458.26458333-.26458z"/></g></g><g fill="#3a3a38" transform="matrix(0 -.26458333 -.26458333 0 0 290.65)"><path d="m-21.5-5h19c.277 0 .5.223.5.5s-.223.5-.5.5h-19c-.277 0-.5-.223-.5-.5s.223-.5.5-.5z"/><path d="m-19.5-22c.277 0 .5.223.5.5v19c0 .277-.223.5-.5.5s-.5-.223-.5-.5v-19c0-.277.223-.5.5-.5z"/></g><g transform="matrix(.26458333 0 0 .26458333 0 290.65)"><g fill="#3a3a38"><path d="m8 12c-.554 0-1 .446-1 1v6c0 .554.446 1 1 1h3c.554 0 1-.446 1-1v-6c0-.554-.446-1-1-1zm0 1h3v6h-3z"/><path d="m15 10c-.554 0-1 .446-1 1v8c0 .554.446 1 1 1h3c.554 0 1-.446 1-1v-8c0-.554-.446-1-1-1zm0 1h3v8h-3z"/><path d="m12 6h2c.554 0 1 .446 1 1v12c0 .554-.446 1-1 1h-2c-.554 0-1-.446-1-1v-12c0-.554.446-1 1-1z"/></g><g fill="#fff"><path d="m15 11h3v8h-3z"/><path d="m8 13h3v6h-3z"/></g></g></g></svg>