<svg viewBox="0 0 24 24" xmlns="http://www.w3.org/2000/svg" xmlns:xlink="http://www.w3.org/1999/xlink"><linearGradient id="a" gradientUnits="userSpaceOnUse" x1="12" x2="12" y1="3" y2="21"><stop offset="0" stop-color="#efefef"/><stop offset=".08333334" stop-color="#fff"/><stop offset=".8888889" stop-color="#fff"/><stop offset="1" stop-color="#f5f5f5"/></linearGradient><path d="m3 2h19v19h-19z" fill="url(#a)"/><path d="m7 2v4h-4v1h4v4h-4v1h4v4h-4v1h4v4h1v-4h4v4h1v-4h4v4h1v-4h4v-1h-4v-4h4v-1h-4v-4h4v-1h-4v-4h-1v4h-4v-4h-1v4h-4v-4zm1 5h4v4h-4zm5 0h4v4h-4zm-5 5h4v4h-4zm5 0h4v4h-4z" fill="#797774"/><path d="m3 1c-.554 0-1 .446-1 1v19c0 .554.446 1 1 1h19c.554 0 1-.446 1-1v-19c0-.554-.446-1-1-1zm0 1h19v19h-19z" fill="#3a3a38"/><path d="m22 7v4h-19v-4z" fill="#1e8bcd" opacity=".5" stroke-width="1.224745"/><path d="m3 6v1h4v4h-4v1h19v-1h-4v-4h4v-1zm5 1h4v4h-4zm5 0h4v4h-4z" fill="#1e8bcd"/><path d="m2 6v6h1v-6zm20 0v6h1v-6z" fill="#0063b1"/></svg>