<svg viewBox="0 0 24 24" xmlns="http://www.w3.org/2000/svg"><path d="m2 2v18h2v-16h18v-2z" fill="#3a3a38"/><path d="m3 3v16h1v-15h17v-1z" fill="#fafafa"/><path d="m4 4v16h1v-1-14h16 1v-1z" fill="#1e8bcd"/><path d="m12.97458 11h-5c-1 0-1 .217546-1 2.276478v5.723522c0 1 2 1 2 0v-6z" fill="#1e8bcd" fill-rule="evenodd"/><path d="m8.883671 12.932687 4.078179 7.170615c.313245.500364.816851.692704 1.302323.437273l5.918596-3.468868c.450197-.311153.658977-.895553.371476-1.407367l-4.082837-7.1787998z" fill="#fafafa" stroke="#3a3a38"/><path d="m14.462824 11.806359v-3.2189991c0-2.7660536 4.990814-2.785277 5.011756.014335l.02542 3.3983051" fill="none" stroke="#3a3a38"/><ellipse cx="5.660698" cy="18.903843" fill="#fafafa" rx="1.515379" ry="1.505583" stroke="#797774" stroke-width=".864789" transform="matrix(.86821741 -.49618397 .50382625 .86380502 0 0)"/></svg>