<svg viewBox="0 0 24 24" xmlns="http://www.w3.org/2000/svg"><path d="m4.5 2c-.277 0-.5.223-.5.5v17c0 .277.223.5.5.5h7.5v-3c0-1.090703.909297-2 2-2v-1c0-2.197294 1.802706-4 4-4s4 1.802706 4 4v-11.5c0-.277-.223-.5-.5-.5z" fill="#fafafa"/><rect fill="#1e8bcd" height="20" ry=".5" width="1" x="4" y="2"/><path d="m2.5 19c-.277 0-.5.223-.5.5s.223.5.5.5h9.5v-1zm11.5 0v1h7.5c.277 0 .5-.223.5-.5s-.223-.5-.5-.5z" fill="#1e8bcd"/><path d="m18 11c-1.656854 0-3 1.343146-3 3v2h-1c-.554 0-1 .446-1 1v5c0 .554.446 1 1 1h8c.554 0 1-.446 1-1v-5c0-.554-.446052-1.007599-1-1h-1v-2c0-1.656854-1.343146-3-3-3zm0 1c1.104569 0 2 .895431 2 2v2h-4v-2c0-1.104569.895431-2 2-2z" fill="#ed8733"/><path d="m14 17h8v5h-8z" fill="#f8db8f"/><path d="m18 17c-1.104569 0-2 .895431-2 2v3h3v-1h1v-1-1c0-1.104569-.895431-2-2-2z" fill="#ed8733"/><path d="m18 18c-.552285 0-1 .447715-1 1v2h1v-1l1-.0038v-.9962c0-.552285-.447715-1-1-1z" fill="#fafafa"/></svg>