<svg viewBox="0 0 24 24" xmlns="http://www.w3.org/2000/svg"><g transform="matrix(0 -1 1 0 1 25)"><path d="m4 2v11.992188c.00934.000014.017981-.0021.027344-.002l4.1386718.0039-1.5566408-1.556588c-.42597-.408182-.6534969-.942581-.6230469-1.537109.027506-.53727.2740242-.9994419.5957031-1.3203129.3224931-.321681.7872843-.5628737 1.3164063-.5898437.5082912-.0259035.9653165.15535 1.3457031.4746094.0583879.0371924.1127206.0803967.1621094.1289062h.00195l.00586-.00586c.712893.710272 1.642181 1.640159 2.58594 2.583985v.01367c.873906.873402 1.830028 1.827024 2.326172 2.324219.002.0019.0039.0039.0059.0059.400943.408635.66716.958613.65625 1.535156-.01092.576544-.301442 1.111618-.710937 1.476563-.506394.510747-1.412398 1.41182-2.277385 2.275351v.0098c-.42388.42298-.758379.759376-1.1875 1.187466h1.1875 2 1v-19h-1-2zm0 15.984375v3.015625h2.0136719c-.0007232-.07241.011002-.144562.017578-.216797.0079-.07842.013812-.155027.03125-.232422.031881-.153547.084785-.302703.1542969-.447265.011587-.02304.02258-.04565.035156-.06836.090048-.169345.1990554-.331645.3476563-.476562l1.5722656-1.56836-4.1445312-.0039c-.00936.000131-.01801-.002-.027344-.002z" fill="#fafafa"/><path d="m16 2v19h6v-19z" fill="#83beec"/><path d="m3 1v13h.9863281l.041016-.0098c-.00936-.000131-.018009.002-.027344.002v-.9922-3-1-3-1-3h5 .9999999 5v-1h-6-5zm0 17v3c.066928.644139.4326593.939675 1 1h2v-.884766c-.0009653-.01341-.00517-.02556-.00586-.03906-.00134-.02609.00425-.05032.00391-.07617h-1.99805v-3.000004zm7.8125 3-.8125.8125v.1875h5v-1z" fill="#3a3a38"/><path d="m23 1v19.5.5.5c0 .277-.223.5-.5.5h-6.5-.5-.5v-.5-.5-20zm-1 1h-6v7h6zm0 8h-6v3h6zm0 4h-6v3h6zm0 4h-6v3h6v-.5z" fill="#0063b1"/><path d="m8.0239204 21.988127c-.431173.0118-.800553-.263693-.947402-.609409s-.08821-.802293.220735-1.103576l3.2917296-3.283187-8.5751646-.0059c-.294233.0041-.580072-.12096-.757921-.318376-.177849-.197417-.255896-.44202-.255896-.679725s.07805-.482309.255896-.679726c.177849-.197416.463688-.322496.757921-.318376l8.5712576.0059-3.2840066-3.279789c-.213432-.204519-.330105-.497094-.316451-.763714.01365-.26662.13405-.495796.302777-.664099.168728-.168303.39593-.285275.662206-.2988454.266275-.01357.558718.1015524.763781.3144704l-.0059-.0078c1.3543476 1.349362 3.8690606 3.864437 4.9170456 4.914642.514037.5239.480336 1.141229-.0078 1.576259-1.055988 1.065871-3.6697296 3.668076-4.9052456 4.900414-.181347.185168-.428604.293605-.687562.300796z" fill="#3a3a38"/><path d="m8.9902344 2v3h-5v1h5v3h-.9394532c.5178977.01438 1.0080129.2289193 1.3691407.5976562.1439703.1435977.3942894.3948126.5703125.5703128v-.167969h4.9999996v-1h-4.9999996v-3h4.9999996v-1h-4.9999996v-3zm-5 7v1h2.2675781c.05506-.093526.1250146-.1694187.1894531-.2519531.011985-.015088.020793-.032143.033203-.046875.032022-.03851.057028-.086413.091797-.1210938.077103-.076909.1635542-.1489642.2558594-.2148437.021128-.015079.046465-.024778.068359-.039063.1670248-.1089759.3520132-.1995656.5546875-.2578125.00343-.0009685.00633-.00296.00977-.00391h.00195c.1148604-.0322183.2339864-.0536438.357421-.0644489zm0 4v.992188c.00934.000014.017981-.0021.027344-.002l3.9726563.0039v-.165963l-.8281253-.828125zm8.8339846 0c.352536.352555.727896.724699 1.001953 1h1.164062v-1zm1.855469 4c-.09923.165957-.212155.32479-.347657.462891-.0019.002-.0039.0039-.0059.0059-.113357.113597-.387003.386841-.53125.53125h1.195312v-1.000041zm-10.6894536.976562v.023438h4.171875l.023437-.02344-4.1582031.0039c-.012689.000178-.024471-.0039-.037109-.0039z" fill="#797774"/><path d="m15 2v19h1v-3h6v-1h-6v-3h6v-1h-6v-3h6v-1h-6v-3h6v-1h-6v-3z" fill="#1e8bcd"/></g></svg>