<svg viewBox="0 0 24 24" xmlns="http://www.w3.org/2000/svg" xmlns:xlink="http://www.w3.org/1999/xlink"><linearGradient id="a" gradientUnits="userSpaceOnUse" x1="13.756857" x2="13.830509" y1="23" y2="10.694916"><stop offset="0" stop-color="#2a9240"/><stop offset="1" stop-color="#32d74b"/></linearGradient><path d="m3 3v18h7.242188l-1.242188-1.214844-.3691406-.361328c-.098059-.09588-.1817556-.199313-.2578125-.30664-.048358-.069121-.0878751-.141965-.1269531-.214844-.019167-.03504-.0395827-.0697-.0566407-.105469-.041773-.08969-.076758-.182022-.1054687-.275391-.00621-.01967-.0139103-.038803-.0195313-.058593-.0292214-.105662-.0512361-.212183-.0644531-.320313-.0057996-.04731-.0110789-.095058-.0136719-.142578-.022894-.424763.083474-.852824.3144531-1.230469.01221-.01976.0202922-.041077.0332032-.060547.083878-.127517.1821647-.249168.296875-.361328.1148388-.112263.2405116-.210207.3691406-.292968.8501139-.545662 1.954293-.44884 2.712891.292968l1.886718 1.84375.97461-1.091797.089843-.099609 2.679688-3 .863281-.964844 2.046875-2.291015-.019531.02539c.211478-.252385.473644-.443458.765625-.576172v-7.193359zm18 13.375-.560547.625-3.578125 4h4.138672z" fill="#fafafa"/><path d="m8 3v6h-5v1h5v3h-5v1h5v3h-5v1h4.9863281c-.022894-.424763.083474-.852824.3144531-1.230469.01221-.01976.0202922-.041077.0332032-.060547.083878-.127517.1821647-.249168.296875-.361328.1148388-.112263.2405116-.210207.3691406-.292968v-2.054688h6v2.623047l1-1.119141v-1.503906h1.34375l.863281-.964844.03125-.035156h-2.238281v-3h5v-1h-5v-6h-1v6h-6v-6zm1 7h6v3h-6zm3.380859 7 1.023438 1h.365234l.804688-.900391.089843-.099609zm8.058594 0-.894531 1h1.455078v-1zm-12.439453 1.142578v2.857422h1v-1.214844l-.3691406-.361328c-.098059-.09588-.1817556-.199313-.2578125-.30664-.048358-.069121-.0878751-.141965-.1269531-.214844-.019167-.03504-.0395827-.0697-.0566407-.105469-.041773-.08969-.076758-.182022-.1054687-.275391-.00621-.01967-.0139103-.038803-.0195313-.058593-.0292214-.105662-.0512361-.212183-.0644531-.320313z" fill="#797774"/><path d="m3 2c-.4155 0-.7704688.2502188-.921875.609375-.0504687.1197188-.078125.252125-.078125.390625v18c0 .554.446 1 1 1h8.265625l-1.023437-1h-1.242188-1-5v-3-1-3-1-3-1-6h5 1 6 1 5v6 1 .193359c.144002-.06545.293178-.120913.451172-.154297l.011719-.001953c.123152-.02472.238377-.001353.359375-.001953.05534-.01123.111528-.017731.167968-.019531.0033-.000071.006466.000039.009766 0v-7.015625c0-.554-.446-1-1-1zm19 13.255859-1 1.119141v.625 1 3h-4.138672l-.894531 1h5.033203c.554 0 1-.446 1-1z" fill="#3a3a38"/><path d="m3 3h18v2h-18z" fill="#83beec" stroke-width=".67082"/><path d="m3 2c-.554 0-1 .446-1 1v2 1h1 18 1v-1-2c0-.554-.446-1-1-1zm0 1h5v2h-5zm6 0h6v2h-6zm7 0h5v2h-5z" fill="#0063b1"/><path d="m22.008379 11.015652c-.11263-.02069-.229582-.02189-.349814.0022-.256226.05414-.492352.195183-.658476.393444l-7.352978 8.22655-2.633903-2.575268c-.440541-.430791-1.2421489-.430757-1.6827719 0-.440564.430768-.440599 1.214497 0 1.645311l3.5118709 3.433689.91455.858422.804804-.929957 8.194364-9.156507c.581205-.618654.04074-1.75309-.747646-1.897919z" fill="url(#a)"/></svg>