<svg viewBox="0 0 24 24" xmlns="http://www.w3.org/2000/svg"><path d="m12 2c-2.7614237 0-5 2.2385763-5 5v5h-2c-.554 0-1 .446-1 1v8c0 .554.446 1 1 1h5.1875c-.113559-.314895-.1875-.648146-.1875-1h-4-1v-1-6-1h1 12 1v1h1v-1c0-.554-.446-1-1-1h-2v-5c0-2.7614237-2.238576-5-5-5zm0 1c2.209139 0 4 1.790861 4 4v5h-8v-5c0-2.209139 1.790861-4 4-4z" fill="#3a3a38"/><path d="m5 13v8h5v-4c0-1.645014 1.354986-3 3-3h2v3h4v-2-1-1z" fill="#fff"/><path d="m13 15c-1.104522 0-2 .895478-2 2v4c0 1.104597.895431 2 2 2h1v-1h-1c-.552284 0-1-.447701-1-1v-.28125-3.71875c0-.552299.426767-1 1-1h1v-1zm7 0v1h1c.573233 0 1 .447701 1 1v3.71875.28125c0 .552299-.447716 1-1 1h-1v1h1c1.104569 0 2-.895403 2-2v-4c0-1.104522-.895478-2-2-2zm-6.039062 3c-.532873 0-.960938.428065-.960938.960938v.078124c0 .532873.428065.960938.960938.960938h6.078124c.532873 0 .960938-.428065.960938-.960938v-.078124c0-.532873-.428065-.960938-.960938-.960938z" fill="#1e8bcd"/></svg>