<svg viewBox="0 0 24 24" xmlns="http://www.w3.org/2000/svg"><path d="m12 2a5 5 0 0 0 -5 5v5h-2c-.554 0-1 .446-1 1v8c0 .554.446 1 1 1h5v-1h-4-1v-1-6-1h1 4v-1h-2v-5a4 4 0 0 1 4-4 4 4 0 0 1 4 4v2.5703125l1 .4863285v-3.056641a5 5 0 0 0 -5-5zm8 15.025391-1 .376953v2.597656 1h-1-4v1h5c.554 0 1-.446 1-1z" fill="#3a3a38"/><path d="m5 13v8h5v-8zm14 4.402344-3.996094 1.505859c-1.003906.318989-.687987.461844-1.003906.318359v1.773438h5z" fill="#fff"/><path d="m14.507927 10.000201c-.254427-.0030999-.462142.225115-.462277.507799v6.9842c.000328.347953.3.6.604651.480457l8.087202-3.048752c.393157-.150748.415773-.75902.03515-.945289l-8.085442-3.935448c-.05655-.02763-.117518-.04225-.179286-.04297z" fill="#1e8bcd"/><path d="m12 10c-.554 0-1 .446-1 1v11c0 .554.446 1 1 1s1-.446 1-1v-11c0-.554-.446-1-1-1z" fill="#3a3a38"/></svg>