<svg viewBox="0 0 24 24" xmlns="http://www.w3.org/2000/svg"><path d="m5.1289062 3 .8710938.8710938.8710938-.8710938zm5.9999998 0-2.9999998 3 3.5781248 3.578125a.99955814.99955814 0 0 1 0 1.414063l-.714843.714843a.99955814.99955814 0 0 1 -1.414063 0l-3.578125-3.5781248-1 1v11.8710938h11.400391c.052413-.071025.104191-.142764.167968-.205078l1.830079-1.783203h-6.398438c-1.092909 0-2.0039062-.910998-2.0039062-2.003907-.0000003-1.092908.9109972-2.003906 2.0039062-2.003906h6.398438l-1.81836-1.773437c-.537158-.508338-.727035-1.350554-.457031-2.039063s.983138-1.17982 1.722656-1.1875c.415695-.0041482.824504.144026 1.154297.396485v-3.6718754l-4-3.7285156z" fill="#fafafa"/><path d="m5 2c-.2434514 0-.4578027.0966631-.6308594.2402344l.7597656.7597656h1.7421876l1-1zm6.957031 0a.99955814.99955814 0 0 1 -.25.421875l-.578125.578125h2.871094v4c0 .554.446 1 1 1h4v2.400391c.065377.050046.133362.09775.191406.15625l.808594.787109v-.453125-3.640625-.2089844c0-.4506799.098038-.4254121-.605469-1.0664062l-3.30664-3.2382813c-.709525-.7368575-.710169-.7363281-1.09375-.7363281h-.332032-.662109zm-6.957031 7.1289062-1 .9999998v10.871094c0 .554.446 1 1 1h11.044922c.024216-.360859.142341-.71119.355469-1h-11.400391z" fill="#3a3a38"/><path d="m15 7h4l-4-4z" fill="#fafafa" fill-rule="evenodd"/><path d="m9.1289062 5-1 1h3.3710938c.277 0 .5-.223.5-.5s-.223-.5-.5-.5z" fill="#797774"/><path d="m7.09375 9.2226562c-.0548333.0802555-.09375.1723924-.09375.2773438 0 .277.223.5.5.5h.3710938z" fill="#797774"/><rect fill="#fb983b" height="1" ry=".5" width="5" x="12" y="9"/><rect fill="#fb983b" height="1" ry=".5" width="7" x="7" y="12"/><path d="m7.5 15c-.277 0-.5.223-.5.5s.223.5.5.5h2.783203c.167904-.281816.399067-.518663.677735-.691406-.074874-.181425-.251856-.308594-.460938-.308594z" fill="#797774"/><path d="m7.4746094 18c-.2629151 0-.4746094.211694-.4746094.474609v.050782c0 .262915.2116943.474609.4746094.474609h4.0507816c.042843 0 .081666-.012891.121093-.023438-.58417-.107528-1.079011-.476609-1.371093-.976562z" fill="#fb983b"/><path d="m17.855469 11.008022a.86553194.86553194 0 0 0 -.585938 1.494141l3.599611 3.505859h-8.869142c-.554 0-1 .446-1 1s.446 1 1 1h8.867188l-3.597657 3.50586a.86600073.86600073 0 0 0 1.208985 1.240235l5.259766-5.126954a.86553194.86553194 0 0 0 0-1.238281l-5.259766-5.125a.86553194.86553194 0 0 0 -.623047-.25586z" fill="#1e8bcd" fill-rule="evenodd"/><path d="m10.285747 1.000121-4.285715 4.285714-4.285715-4.285714-.714285.714285 4.285714 4.285715-4.285714 4.285715.714285.714285 4.285715-4.285714 4.285715 4.285714.714285-.714285-4.285714-4.285715 4.285714-4.285715z" fill="#ed3d3b"/></svg>