<?xml version="1.0" encoding="UTF-8" standalone="no"?>
<svg
   xmlns:dc="http://purl.org/dc/elements/1.1/"
   xmlns:cc="http://creativecommons.org/ns#"
   xmlns:rdf="http://www.w3.org/1999/02/22-rdf-syntax-ns#"
   xmlns:svg="http://www.w3.org/2000/svg"
   xmlns="http://www.w3.org/2000/svg"
   xmlns:sodipodi="http://sodipodi.sourceforge.net/DTD/sodipodi-0.dtd"
   xmlns:inkscape="http://www.inkscape.org/namespaces/inkscape"
   viewBox="0 0 24 24"
   version="1.1"
   id="svg22"
   sodipodi:docname="lc_saveas.svg"
   inkscape:version="0.92.5 (2060ec1f9f, 2020-04-08)">
  <metadata
     id="metadata28">
    <rdf:RDF>
      <cc:Work
         rdf:about="">
        <dc:format>image/svg+xml</dc:format>
        <dc:type
           rdf:resource="http://purl.org/dc/dcmitype/StillImage" />
      </cc:Work>
    </rdf:RDF>
  </metadata>
  <defs
     id="defs26" />
  <sodipodi:namedview
     pagecolor="#ffffff"
     bordercolor="#666666"
     borderopacity="1"
     objecttolerance="10"
     gridtolerance="10"
     guidetolerance="10"
     inkscape:pageopacity="0"
     inkscape:pageshadow="2"
     inkscape:window-width="1360"
     inkscape:window-height="702"
     id="namedview24"
     showgrid="false"
     inkscape:zoom="19.666667"
     inkscape:cx="11.296045"
     inkscape:cy="15.056534"
     inkscape:window-x="0"
     inkscape:window-y="0"
     inkscape:window-maximized="1"
     inkscape:current-layer="svg22" />
  <path
     style="fill:#922e9b"
     d="M 3 2 A 1.0001 1.0001 0 0 0 2 3 L 2 19 A 1.0001 1.0001 0 0 0 2.2929688 19.707031 L 4.2929688 21.707031 A 1.0001 1.0001 0 0 0 5 22 L 10.212891 22 L 10.861328 19.361328 L 10.998047 19.013672 C 11.011879 18.812184 11.086959 18.613306 11.222656 18.447266 C 11.244186 18.421396 11.266996 18.396627 11.291016 18.373047 L 11.998047 17.666016 L 12.710938 16.958984 L 17.513672 12.175781 L 19.1875 10.507812 C 19.52303 10.172692 19.977322 9.9960938 20.419922 9.9960938 C 20.862568 9.9960938 21.31561 10.169569 21.654297 10.507812 L 22 10.853516 L 22 3 A 1.0001 1.0001 0 0 0 21 2 L 3 2 z M 22 16.234375 L 21.763672 16.460938 C 21.712904 16.50892 21.657266 16.551471 21.597656 16.587891 L 16.208984 22 L 21 22 A 1.0001 1.0001 0 0 0 22 21 L 22 16.234375 z "
     id="path828" />
  <path
     style="fill:#d492d8"
     d="M 3 3 L 3 19 L 5 21 L 6 21 L 6 14 L 15.681641 14 L 17.513672 12.175781 L 19.1875 10.507812 C 19.52303 10.172693 19.977322 9.9960937 20.419922 9.9960938 C 20.615158 9.9960938 20.811423 10.034815 21 10.101562 L 21 3 L 19 3 L 19 10 L 5 10 L 5 3 L 3 3 z M 21 17.1875 L 18 20.201172 L 18 21 L 21 21 L 21 17.1875 z "
     id="path4" />
  <path
     style="opacity:1;fill:#fafafa;fill-opacity:1;stroke:none;stroke-width:0;stroke-miterlimit:4;stroke-dasharray:none;stroke-opacity:1"
     d="M 6 3 L 6 9 L 18 9 L 18 3 L 6 3 z M 7 15 L 7 21 L 9 21 L 9 16 L 11 16 L 11 19.005859 C 11.015248 18.807111 11.088755 18.611109 11.222656 18.447266 C 11.244186 18.421396 11.266996 18.396627 11.291016 18.373047 L 11.998047 17.666016 L 12.710938 16.958984 L 14.677734 15 L 7 15 z "
     id="rect833" />
  <g
     transform="translate(-1 -1)"
     id="g20"
     fill="#fb983b">
    <path
       d="m20.419922 11c-.189562 0-.378184.07172-.523438.216797l-1.673828 1.669922 2.847656 2.849609 1.710938-1.638672c.290506-.290127.290506-.756747 0-1.046875l-1.835938-1.833984c-.145254-.145064-.335828-.216797-.52539-.216797zm0 .990234 1.582031 1.580078-.917969.88086-1.5625-1.5625z"
       transform="translate(1 1)"
       id="path10"
       fill="#0063b1" />
    <path
       d="m21.419922 12.990234-.898438.898438 1.5625 1.5625.917969-.88086z"
       id="path12"
       fill="#83beec" />
    <g
       transform="translate(1 1)"
       id="g18">
      <path
         d="m12.708984 18.376953-.002-.002-.706984.707078.002.002-.05078.05078-.95122 3.865189 3.806641-1.011719 6.24414-6.271484-2.828125-2.830078zm5.511719-4.191406 1.53125 1.533203-4.841797 4.861328-1.550781-1.552734zm-5.509765 5.708984 1.34375 1.341797-1.791016.476563z"
         id="path14"
         fill="#0063b1" />
      <path
         d="m18.220703 14.185547 1.53125 1.533203-4.841797 4.861328-1.550781-1.552734zm-5.509765 5.708984 1.34375 1.341797-1.791016.476563z"
         id="path16"
         fill="#83beec" />
    </g>
  </g>
</svg>
