<svg viewBox="0 0 24 24" xmlns="http://www.w3.org/2000/svg"><path d="m3 9h5v11h-5z" fill="#fafafa"/><path d="m3 4h18v4h-18z" fill="#1e8bcd" opacity=".5"/><path d="m2 9v11c0 .554.446 1 1 1h6v-1-3-1-3-1-3h-1v3h-5v-3zm1 4h5v3h-5zm0 4h5v3h-5z" fill="#3a3a38"/><path d="m3 3c-.554 0-1 .446-1 1v5h1 5 1 13v-5c0-.554-.446-1-1-1zm0 1h5v4h-5zm6 0h6v4h-6zm7 0h5v4h-5z" fill="#0063b1"/><path d="m11.5 9.5 9.85125 8h-4.576441l2.034843 4.198667c.570475 1.618275-1.996658 2.225126-2.424513 1.011422l-1.711421-3.641118-3.173718 3.431029z" fill="#fafafa" fill-rule="evenodd" stroke="#3a3a38" stroke-linejoin="round"/></svg>