<svg viewBox="0 0 24 24" xmlns="http://www.w3.org/2000/svg"><path d="m9.4667969 2c-.328956.00161-.6570803.0256825-.9824219.0703125-.0432629.3242882-.4701352.7684876-1.0390625 1.2714844a6.5 6.5 0 0 1 2.0546875-.3417969 6.5 6.5 0 0 1 6.5 6.5 6.5 6.5 0 0 1 -6.5 6.5 6.5 6.5 0 0 1 -5.5175781-3.074219c-.5640971-.47971-1.1806416-1.086055-1.8398438-1.849609.7323127 3.421649 3.7637969 5.919796 7.3242188 5.923828 1.6424201-.003 3.2384431-.545088 4.5429691-1.542969l6.25 6.25c.942508.981667 2.395729-.471553 1.414062-1.414062l-6.248047-6.248047c.997587-1.305306 1.538988-2.902058 1.541016-4.544922 0-4.1421357-3.357864-7.5000001-7.5000001-7.5z" fill="#3a3a38"/><path d="m9.5 3a6.5 6.5 0 0 0 -2.2480469.40625l-1.6308593 1.5878906h6.3769532c1.097598 0 2.013672.9160743 2.013672 2.0136719s-.916074 2.0136719-2.013672 2.0136719h-6.3769532l1.8144531 1.7675776c.7029197.687052.71931 1.95241.0332031 2.65625-.6861069.703843-1.9495355.720318-2.6542969.035157a1.012948 1.012948 0 0 0 -.0019531-.001953l-1.1445312-1.115235a6.5 6.5 0 0 0 5.8320312 3.636719 6.5 6.5 0 0 0 6.5-6.5 6.5 6.5 0 0 0 -6.5-6.5z" fill="#fafafa"/><path d="m6.1435216 1.0080223a.86553194.86553194 0 0 1 .5859382 1.4941407l-3.5996103 3.5058595h8.8691415c.554 0 1 .4460001 1 1s-.446 1.0000001-1 1.0000001h-8.8671884l3.5976572 3.5058594a.86600073.86600073 0 0 1 -1.2089852 1.240235l-5.25976523-5.1269538a.86553194.86553194 0 0 1 0-1.2382813l5.25976523-5.1250002a.86553194.86553194 0 0 1 .623047-.2558594z" fill="#1e8bcd" fill-rule="evenodd"/><rect fill="none" height="4" ry="1.16835" transform="scale(-1 1)" width="10.000001" x="-13.998991" y="5"/></svg>