<svg viewBox="0 0 16 16" xmlns="http://www.w3.org/2000/svg">
/&amp;amp;gt;<path d="m4 0h5l-3 3h2l-8 6 3-5h-2z" fill="#ed8733" fill-rule="evenodd"/><path d="m4.5 1-1.5 2a1.0001 1.0001 0 0 1 .8574219 1.5136719l-.3730469.6230469 1.8515625-1.3886719a1.0001 1.0001 0 0 1 -.0429687-1.4550781l1.2929687-1.2929688z" fill="#f8db8f" fill-rule="evenodd"/><path d="m9 1v4h6v-4zm1 1h4v2h-4zm-1 4v4h6v-4zm1 1h4v2h-4zm-1 4v4h6v-4zm1 1h4v2h-4z" fill="#3a3a38"/><path d="m10 2v2h4v-2zm0 5v2h4v-2zm0 5v2h4v-2z" fill="#fafafa"/></svg>