<svg viewBox="0 0 16 16" xmlns="http://www.w3.org/2000/svg"><path d="m6 1v1h8.5c.277 0 .5-.223.5-.5s-.223-.5-.5-.5zm-4.5 6c-.277 0-.5.223-.5.5s.223.5.5.5h4c.277 0 .5-.223.5-.5s-.223-.5-.5-.5zm0 3c-.277 0-.5.223-.5.5s.223.5.5.5h4c.277 0 .5-.223.5-.5s-.223-.5-.5-.5zm0 4c-.277 0-.5.223-.5.5s.223.5.5.5h13c.277 0 .5-.223.5-.5s-.223-.5-.5-.5z" fill="#3a3a38"/><g fill="#fb983b"><path d="m.4999293 4.5000003 4-3.99999998v3.99999998z" fill-rule="evenodd" stroke="#fb983b" stroke-linecap="round" stroke-linejoin="round"/><rect height="1" ry=".5" width="3"/><rect height="3" rx=".5" width="1"/></g><rect fill="#1e8bcd" height="10" ry="1" width="8" x="7" y="3"/></svg>