<svg viewBox="0 0 16 16" xmlns="http://www.w3.org/2000/svg">/&amp;amp;amp;amp;gt;<path d="m1.9785156 0c.5662767 0 1.0214844.45520763 1.0214844 1.0214844v11.9785156h11.978516c.566277 0 1.021484.455207 1.021484 1.021484v-12.9999996c0-.56627892-.455205-1.0214844-1.021484-1.0214844z" fill="#1e8bcd"/><g fill="#3a3a38"><path d="m4 7c-.554 0-1 .446-1 1v6c0 .554.446 1 1 1h3c.554 0 1-.446 1-1v-6c0-.554-.446-1-1-1zm0 1h3v6h-3z"/><path d="m11 5c-.554 0-1 .446-1 1v8c0 .554.446 1 1 1h3c.554 0 1-.446 1-1v-8c0-.554-.446-1-1-1zm0 1h3v8h-3z"/><path d="m8 1h2c.554 0 1 .446 1 1v12c0 .554-.446 1-1 1h-2c-.554 0-1-.446-1-1v-12c0-.554.446-1 1-1z"/></g><path d="m11 6h3v8h-3z" fill="#fafafa"/><path d="m4 8h3v6h-3z" fill="#fafafa"/><g fill="#3a3a38"><path d="m.5 14h15c.277 0 .5.223.5.5s-.223.5-.5.5h-15c-.277 0-.5-.223-.5-.5s.223-.5.5-.5z"/><path d="m1.5 0c.277 0 .5.223.5.5v14.999998c0 .277-.223.5-.5.5s-.5-.223-.5-.5v-14.999998c0-.277.223-.5.5-.5z"/></g></svg>