<svg viewBox="0 0 16 16" xmlns="http://www.w3.org/2000/svg">


/&amp;amp;amp;gt;<path d="m.5 14h15c.277 0 .5.223.5.5s-.223.5-.5.5h-15c-.277 0-.5-.223-.5-.5s.223-.5.5-.5z" fill="#3a3a38"/><path d="m1.5 0c.277 0 .5.223.5.5v14.999998c0 .277-.223.5-.5.5s-.5-.223-.5-.5v-14.999998c0-.277.223-.5.5-.5z" fill="#3a3a38"/><path d="m3.8300781 0c-.4601014 0-.8300781.36997671-.8300781.83007812v11.33984388c0 .460101.3699767.830078.8300781.830078h11.3398439c.460101 0 .830078-.369977.830078-.830078v-5.4687501l-3.945312 2.6308593c-.471027.3143531-1.108853.1752714-1.40625-.3066406l-2.632813-4.2636718-.0078125 2.3164062c.053561.1844353.0528809.3803923-.0019531.5644531v-.2558593c-.000723.1329475-.0279461.2644165-.0800782.3867187-.0090879.040433-.0197568.070136-.0292968.109375l-.1054688.4160156c-.026761.0905526-.0519579.2177349-.0761718.2949219-.0433626.138227-.0812946.2539946-.1015626.3222656-.01132.0381307-.0070731-.0689334-.0019531-.0839844-.0075543.5522833-.4613885.9938782-1.0136719.9863282-.552144-.0087139-1.1576975-.1562824-1.6816406-.5449219-.4282749-.3176767-.6794968-.8152708-.796875-1.3671875-.1519329-.239233-.195234-.5316933-.1191406-.8046875v-4.078125c.0013246.0553183-.0165852-.2319472.0078125-.5175781.0243977-.285631.0894686-.6540126.2734375-1.0449219.3170758-.67374414.9697901-1.22280833 1.8300781-1.4609375zm4.9257813 0 .2675781.01953125.9765625-.01171875v-.0078125zm6.2441406 0v2.0664062l1 1.5703126v-2.80664068c0-.46010141-.369977-.83007812-.830078-.83007812zm-10.3261719 8.328125.0683594.0332031.1699219.0078125c-.0807936-.003985-.1608053-.0177576-.2382813-.0410156z" fill="#1e8bcd"/><g transform="translate(-.000001 -4.5)"><path d="m10.794702 5.4999999-1.8027609.018682-2.0251138-.1447114h-.00781c-.9356626.0347179-1.5380972.5124434-1.7734667 1.0125724-.2353696.5001291-.1881205 1.0060873-.1855496 1.1134571v4.392179l.00195-.04297c-.044035.459305.1865186.881152.5097732 1.120929s.7136644.341366 1.101579.347488c-.00674-.12688.270944-.789588.390585-1.466232l.00195.0355.013672-3.945675z" fill="#0063b1"/><g fill="#fafafa"><path d="m8.000001 7.3339509 3.5 5.6660491 4.5-3-3.5-5.5z" fill="#3a3a38"/><path d="m12.251953 5.609375-3.1464842 1.9804688 2.6425782 4.2773442 3.148437-2.0996099z" fill="#fafafa"/></g><path d="m6.9863281 6.3261719c-.6161992.027578-.872971.319428-.9414062.4648437-.05475.1163356-.085168.2575185-.095703.3808594s-.00376.1475066 0 .3046875a.94957167.94957167 0 0 1 0 .023437v4.3925785l-.9902344-.02148.9882812.06836c-.00872.09091.062254.218643.1308594.269531.000994.000738.00291.0012.00391.002.00211-.0015.00376-.0063.00586-.0078-.058639.04168-.00682.04787-.03125-.28125l.9960893-.064517-.9960938.02539.0136719-3.945312a.94957167.94957167 0 0 1 .4335937-.7929688l1.1855469-.7675781z" fill="#83beec"/></g><g fill="none" stroke="#3a3a38"><path d="m13.5 0v3"/><path d="m11.5 0v4"/></g></svg>