<svg viewBox="0 0 16 16" xmlns="http://www.w3.org/2000/svg"><path d="m1 2c-.554 0-1 .446-1 1v.2773438 2.6191406 2.6699218 4.4335938c0 .554.446 1 1 1h5.0292969.8066406l1-1h-1.1074219-5.7285156v-3.4824219-4.7285156-.4941406-1.2949219h8.2714844 5.7285156v3.0332031c.3425-.088668.706366.010095.957031.2597657l.042969.0429687v-3.3359375c0-.554-.446-1-1-1h-5.0292969zm10.5 11.664062-.335938.335938h.671876z" fill="#3a3a38"/><path d="m1 3v1.2949219.4941406 4.7285156 3.4824219h5.7285156 1.1074219l1.5-1.5-3.0429687-3.0429688c-.3900151-.3906761-.3900151-1.0233863 0-1.4140624l.75-.75c.1837045-.1836993.4316466-.2887595.6914062-.2929688.2705891-.0040708.5312915.1016194.7226562.2929688l3.0429688 3.0429687 3.042969-3.0429687c.126472-.1257699.28426-.2154529.457031-.2597657v-3.0332031h-5.7285156z" fill="#fafafa"/><path d="m15.25 7-3.75 3.75-3.75-3.75-.75.75 3.75 3.75-3.75 3.75.75.75 3.75-3.75 3.75 3.75.75-.75-3.75-3.75 3.75-3.75z" fill="#ed3d3b"/></svg>