<svg height="16" viewBox="0 0 16 16" width="16" xmlns="http://www.w3.org/2000/svg"><path d="m0 0v16h2v-14h14v-2z" fill="#3a3a38"/><path d="m1 1v14h1v-13h13v-1z" fill="#fafafa"/><path d="m2 2v14h1v-1-12h12 1v-1z" fill="#1e8bcd"/><g transform="translate(-.000001 1.5)"><path d="m10.794702 5.4999999-1.8027609.018682-3.0251138.061335h-.00781c-.9356626.0347179-1.5380972.5124434-1.7734667 1.0125724-.2353696.5001291-.1881205 1.0060873-.1855496 1.1134571v4.3921786l.00195-.04297c-.044035.459305.1865186.881152.5097732 1.120929s.7136644.341366 1.101579.347488c.3879147.0061-.3059782-.10633.024956-.341566.3309345-.235246.4001213-.659979.365629-1.124666l.00195.0355.013672-3.9456746z" fill="#1e8bcd"/><path d="m6.3298526 7.944613 3.1543027 5.382729c.2422812.375607.6317997.519988 1.0072917.328246l4.57779-2.603959c.348206-.233576.50969-.672261.287321-1.0564598l-3.157908-5.3888759z" fill="#fafafa" stroke="#3a3a38"/><ellipse cx="4.800237" cy="12.570596" fill="#fafafa" rx="1.550014" ry="1.539994" stroke="#797774" stroke-width="1.00002" transform="matrix(.86821741 -.49618397 .50382626 .86380501 0 0)"/><path d="m10.5 6.4999997v-2.4775496c0-1.844045 3.000001-1.9860023 3.000001-.1195328v1.5970826" fill="none" stroke="#3a3a38"/></g></svg>