<svg viewBox="0 0 16 16" xmlns="http://www.w3.org/2000/svg">

/&amp;amp;amp;gt;<path d="m1.5 1c-.277 0-.5.223-.5.5v12.5h-.5c-.277 0-.5.223-.5.5s.223.5.5.5h.5v.5c0 .277.223.5.5.5s.5-.223.5-.5v-.5h5.0722656c-.0429495-.161147-.0722656-.326788-.0722656-.5v-.5h-5v-12.5c0-.277-.223-.5-.5-.5z" fill="#1e8bcd"/><path d="m2 2v12h5v-3c0-.70348.4387688-1.222827 1-1.5800781v-.4199219c0-1.0471976.4313945-2.0876445 1.171875-2.828125s1.780927-1.171875 2.828125-1.171875c.701833 0 1.392499.2078743 2 .5585938v-3.5585938z" fill="#fafafa"/><path d="m12 6c-1.656854 0-3 1.3431458-3 3v1c-.554 0-1 .446-1 1v4c0 .554.446 1 1 1h6c.554 0 1-.446 1-1v-4c0-.554-.461794-.86866-1-1v-1c0-1.6568542-1.343146-3-3-3zm0 1c1.104569 0 2.058841.8969989 2 2v1h-4v-1c0-1.1045695.895431-2 2-2z" fill="#ed8733"/><path d="m9 11h6v4h-6z" fill="#f8db8f"/></svg>