<svg viewBox="0 0 16 16" xmlns="http://www.w3.org/2000/svg">/&amp;amp;gt;<path d="m2 2v12h4v-4c0-1.0907028.9092972-2 2-2v-1c0-1.6450096 1.3549904-3 3-3 1.64501 0 3 1.3549904 3 3v-5z" fill="#fafafa"/><path d="m1.5 1c-.277 0-.5.223-.5.5v12.5h-.5c-.277 0-.5.223-.5.5s.223.5.5.5h.5v.5c0 .277.223.5.5.5s.5-.223.5-.5v-.5h4.2832031c-.1754644-.296519-.2832031-.636031-.2832031-1h-4v-12.5c0-.277-.223-.5-.5-.5z" fill="#1e8bcd"/><path d="m11 5c-1.1045695 0-2 .8954305-2 2v2h-1c-.554 0-1 .446-1 1v4c0 .554.446 1 1 1h6c.554 0 1-.446 1-1v-4c0-.554-.461794-.8686602-1-1h-1v-2c0-1.1045695-.895431-2-2-2zm0 1c.552285 0 1 .4477153 1 1v2h-2v-2c0-.5522847.447715-1 1-1z" fill="#ed8733"/><path d="m8 10h6v4h-6z" fill="#f8db8f"/></svg>