<svg viewBox="0 0 16 16" xmlns="http://www.w3.org/2000/svg" xmlns:xlink="http://www.w3.org/1999/xlink"><linearGradient id="a" gradientUnits="userSpaceOnUse" x1="-19.118644" x2="-19.118644" y1="22.61017" y2="13.61017"><stop offset="0" stop-color="#2a9240"/><stop offset="1" stop-color="#32d74b"/></linearGradient>








     /&amp;amp;amp;amp;amp;amp;gt;
 <path d="m0 5v9.5c-.00038442.276301.22369855.500384.5.5h6.0878906l-1.0214844-.998047h-4.56835932v-9.001953zm15.001953 0v1.03125c.02139.00103.042653.0006982.064453 0 .05662-.011461.114125-.0180013.171875-.0195312.066761-.0014558.133501.0037786.199219.015625.212154.0389808.394713.1162916.5625.2109374v-1.2382812zm.998047 4.7285156-.998047 1.1152344v3.158203h-2.826172l-.892578.998047h4.216797c.276301.000384.500384-.223699.5-.5zm-6.9296875 4.7460934c-.0526.0049-.1055001.005454-.1582031.001953l.0820312.080079z" fill="#3a3a38"/><path d="m1 5v9h4.5644531l-.515625-.503906c-.018694-.01828-.0310491-.039824-.0488281-.058594-.6909858-.729624-.6909749-1.81728 0-2.546875.017779-.01877.0301351-.040327.0488281-.058594.1240781-.121303.259825-.215465.4003907-.296875.0367711-.02147.0737131-.041777.1113281-.060547.1422096-.070246.2893053-.127956.4394531-.160156.5928585-.127158 1.2244837.0438 1.7089844.517578l1.2285156 1.201172 1.0625-1.189453 1.539062-1.7226562.109376-.1210938 2.085937-2.3339844c.274243-.3272968.638446-.5433213 1.052734-.6308594.0033-.0006599.006466-.0013183.009766-.0019531.069382-.013905.135745-.0052931.203125-.0019531v-1.03125zm14 5.845703-2.822266 3.154297h2.822266z" fill="#fafafa"/><path d="m1 2h14v2h-14z" fill="#83beec" stroke-width=".661438"/><path d="m.50195312 1.0019531c-.27630145-.000384-.50038441.223699-.49999999.5v3.4980469h.99804687 14v-1h-4v-2h4.003906v3h.998047v-3.4980469c.000384-.276301-.223699-.500384-.5-.5zm.49804688.9980469h4v2h-4zm5 0h4v2h-4z" fill="#0063b1"/><path d="m5 5v4h-4v1h4v.890625c.017779-.01877.0301351-.040327.0488281-.058594.1240781-.121303.259825-.215465.4003907-.296875.0367711-.02147.0737131-.041777.1113281-.060547.1422096-.070246.2893053-.127956.4394531-.160156v-.314453h4v.84375l1.539062-1.7226562.109376-.1210938h-.648438v-4h-1v4h-4v-4zm0 8.4375v.5625h.5644531l-.515625-.503906c-.018694-.01828-.0310491-.039824-.0488281-.058594z" fill="#797774"/><path d="m15.256286 7.0117709c-.08447-.015517-.172185-.016417-.262359.00165-.192169.040605-.369263.1463867-.493855.2950819l-5.5147136 6.1698912-1.9754202-1.931445c-.3304046-.323092-.9316084-.323066-1.2620744 0-.3304218.323075-.3304481.91087 0 1.233979l2.6338937 2.575258.6859101.643814.6036008-.697465 6.1457506-6.8673562c.435902-.4639888.030555-1.3148128-.560733-1.4234341z" fill="url(#a)"/></svg>