<svg viewBox="0 0 16 16" xmlns="http://www.w3.org/2000/svg">/&amp;amp;amp;gt;<path d="m3 1v14h4v-.294922l-.0117188-.019531s-.0019531-.001953-.0019531-.001953c.0009646-.033304.0115409-.061115.0136719-.09375v-3.589844c0-1.0907028.9092972-2 2-2v-1c0-1.6450096 1.35499-3 3-3 .351851 0 .685106.0739423 1 .1875v-1.4824219l-2.695312-2.7050781z" fill="#fafafa"/><path d="m3 0c-.554 0-1 .446-1 1v14c0 .554.446 1 1 1h2 1.0292969 1.2539062c-.1754644-.296519-.2832031-.636031-.2832031-1h-.7988281-1.2011719-2v-14h6v3.5c0 .277.223.5.5.5h2.5 1v.1875c.372977.1345038.710808.3377285 1 .5996094v-1.2871094-.8632812l-3.636719-3.6367188h-.863281zm7 1 3 3h-3z" fill="#3a3a38"/><path d="m4.5 4c-.277 0-.5.223-.5.5s.223.5.5.5h3c.277 0 .5-.223.5-.5s-.223-.5-.5-.5zm0 6c-.277 0-.5.223-.5.5s.223.5.5.5h2.0957031l-.0175781-.015625c.238059-.038619.421875-.235075.421875-.484375 0-.277-.223-.5-.5-.5h-.3886719zm0 3c-.277 0-.5.223-.5.5s.223.5.5.5h1.9628906.5371094v-1h-.8886719z" fill="#797774"/><path d="m4.5 7c-.277 0-.5.223-.5.5s.223.5.5.5h2.6699219 1.8300781c0-.351851.0739423-.6851061.1875-1h-2.0175781z" fill="#fb983b"/><path d="m12 6c-1.104569 0-2 .8954305-2 2v2h-1c-.554 0-1 .446-1 1v4c0 .554.446 1 1 1h6c.554 0 1-.446 1-1v-4c0-.554-.461794-.86866-1-1h-1v-2c0-1.1045695-.895431-2-2-2zm0 1c.552285 0 1 .4477153 1 1v2h-2v-2c0-.5522847.447715-1 1-1z" fill="#ed8733"/><path d="m9 11h6v4h-6z" fill="#f8db8f"/></svg>