<svg viewBox="0 0 16 16" xmlns="http://www.w3.org/2000/svg"><path d="m5.5371094 1c-.2826966 0-.5135219.2542462-.5371094.5722656v7.8554688c.0238019.3914471.3658925.6671776.6953125.5410156l3.3359375-1.2734375c.1567394-1.5024376 1.427908-2.6953132 2.96875-2.6953125.773057 0 1.475333.3069644 2.009766.7949219l.669922-.2558594c.43684-.1695915.461972-.8529474.039062-1.0625l-8.9824219-4.4277344c-.0628333-.0310838-.1305876-.0480181-.1992187-.0488281z" fill="#1e8bcd"/><path d="m2.9771752 1c-.554 0-1 .446-1 1v13c0 .554.446 1 1 1s1-.446 1-1v-13c0-.554-.446-1-1-1z" fill="#3a3a38"/><path d="m12 7a2 2 0 0 0 -2 2v2h-1c-.554 0-1 .446-1 1v3c0 .554.446 1 1 1h6c.554 0 1-.446 1-1v-3c0-.554-.446-1-1-1h-1v-2a2 2 0 0 0 -2-2zm0 1a1 1 0 0 1 1 1v2h-2v-2a1 1 0 0 1 1-1z" fill="#fb983b"/></svg>