<svg viewBox="0 0 16 16" xmlns="http://www.w3.org/2000/svg"><path d="m3 2c-1.104522 0-2 .895478-2 2v4c0 1.104597.8954308 2 2 2h1v-1h-1c-.5522842 0-1-.447701-1-1v-.28125-3.71875c0-.552299.4267669-1 1-1h1v-1zm5 0v1h1c.573233 0 1 .447701 1 1v2.7871094c.289192-.2618809.627023-.4651056 1-.5996094v-2.1875c0-1.104522-.895478-2-2-2zm-4.0390625 3c-.5328727 0-.9609375.4280648-.9609375.9609375v.078125c0 .5328727.4280648.9609375.9609375.9609375h4.078125c.5328727 0 .9609375-.4280648.9609375-.9609375v-.078125c0-.5328727-.4280648-.9609375-.9609375-.9609375zm4.0390625 4v1h1v-1z" fill="#1e8bcd"/><path d="m12 7a2 2 0 0 0 -2 2v2h-1c-.554 0-1 .446-1 1v3c0 .554.446 1 1 1h6c.554 0 1-.446 1-1v-3c0-.554-.446-1-1-1h-1v-2a2 2 0 0 0 -2-2zm0 1a1 1 0 0 1 1 1v2h-2v-2a1 1 0 0 1 1-1z" fill="#fb983b"/></svg>