<svg viewBox="0 0 16 16" xmlns="http://www.w3.org/2000/svg"><path d="m1 2v4 5h2.5c.2761309.000028.4999724.223869.5.5v2.886719l3.6679688-3.259766c.0913925-.081553.2095407-.12673.3320312-.126953h7v-9z" fill="#f8db8f"/><path d="m.5 1c-.27614237 0-.5.2238576-.5.5.00000895.02947.0026233.058881.0078125.087891h-.0078125v4.412109 5.5c.00002761.276131.22386906.499972.5.5h2.5v3.5c.0007774.430893.5097988.659116.8320312.373047l4.3574219-3.873047h7.3105469c.276131-.000028.499972-.223869.5-.5v-10c-.000028-.2761309-.223869-.4999724-.5-.5zm.5 1h14v9h-7c-.1224905.000223-.2406387.0454-.3320312.126953l-3.6679688 3.259766v-2.886719c-.0000276-.276131-.2238691-.499972-.5-.5h-2.5v-5z" fill="#ed8733"/></svg>