<svg viewBox="0 0 16 16" xmlns="http://www.w3.org/2000/svg"><path d="m1 1v4h4v-1.5a1.5001719 1.5001719 0 0 1 1.453125-1.5 1.5001719 1.5001719 0 0 1 .9765625.3222656l3.3906245 2.6777344h4.179688v-4z" fill="#1e8bcd" opacity=".5"/><path d="m1 6v9h4v-.201172-8.798828z" fill="#fafafa"/><path d="m0 5v11h5.6035156a1.5001719 1.5001719 0 0 1 -.6035156-1.15625v.066406.089844h-4v-4h4 1v-1h-1-4v-4h4v-1z" fill="#3a3a38"/><path d="m1 0c-.554 0-1 .446-1 1v4 1h1 4v-1h-4v-4h4v2.5a1.5001719 1.5001719 0 0 1 1-1.4160156v-1.0839844h4v3.3515625l2.087891 1.6484375h2.912109 1v-1-4c0-.554-.446-1-1-1zm10 1h4v4h-4z" fill="#0063b1"/><path d="m6.5 3.4999998v11.2993812l2.8225023-2.84437 1.5213707 3.01775c.380365 1.005777 2.662692.502254 2.155535-.838784l-1.702594-3.633977h4.068964z" fill="#fafafa" fill-rule="evenodd" stroke="#3a3a38" stroke-linejoin="round"/></svg>