<svg viewBox="0 0 16 16" xmlns="http://www.w3.org/2000/svg">
/&amp;amp;amp;amp;amp;gt;<path d="m1 2v2 1 9h14v-9l.0039-3h-4.0039-1-4-1z" fill="#fafafa"/><path d="m5 2v2h-4v1h4v4h-4v1h3.7089844a9.6271191 9.6271191 0 0 1 1.2910156-2.2441406v-2.7558594h3.3300781a9.6271191 9.6271191 0 0 1 3.8242189-1h-2.154297v-2h-1v2h-4v-2zm8.972656 2a9.6271191 9.6271191 0 0 1 1.027344.09375v-.09375z" fill="#797774"/><path d="m.50195312 1.0019531c-.27630145-.000384-.50038441.223699-.49999999.5v3.4980469h-.00195313v9.5c-.00038442.276301.22369855.500384.5.5h15c.276301.000384.500384-.223699.5-.5v-9.5l.001953-3.4980469c.000384-.276301-.223699-.500384-.5-.5zm.49804688.9980469h4 1 4 1 4.003906l-.003906 3h.001953v9.001953h-14.00390612v-9.001953h.00195312v-1z" fill="#3a3a38"/></svg>