<svg height="16" viewBox="0 0 16 16" width="16" xmlns="http://www.w3.org/2000/svg"><g fill="#3a3a38"><path d="m.5 8c-.277 0-.5.223-.5.5v.7402344.2597656c0 .277.223.5.5.5h2.4394531.1054688 2.2050781c-.4517998-.0556601-.9193121-.2085424-1.3359375-.5175781-.4434128-.3289054-.7038706-.8537726-.8105469-1.4375a1.0040143 1.0040143 0 0 1 -.0214844-.0449219zm6.4472656 0c-.0282576.2694779-.1036796.5314473-.2402344.8085938.0105171.0546654.0292744.1324738.0292969.1328124.0000517.0007778-.0505378.3899057-.0507812.390625-.0002434.0007194-.1830392.3255109-.1835938.3261719-.0005545.000661-.1428054.1429845-.2050781.1855469-.1908825.1304654-.2860745.1476595-.359375.15625h1.0175781.1054688 2.2246093c-.2668545-.1586306-.4843001-.378548-.6445312-.6269531a1.0040143 1.0040143 0 0 1 -.0234375-.0371094l-.7832031-1.3359375zm-.4941406 1.1679688c-.0907628.1067271-.1065442.2425506-.2324219.3320312.0415282-.0295192.1361191-.0957793.2265625-.2675781.0086668-.0164627-.0017804-.0459266.0058594-.0644531z"/><rect height="1" rx=".5" ry=".428091" width="2" y="14"/><rect height="1" rx=".5" ry=".428091" width="2" x="4" y="14"/><rect height="1" rx=".5" ry=".428091" width="2" x="8" y="14"/><rect height="1" rx=".5" ry=".428091" width="2" x="12" y="14"/><rect height="2" rx=".5" width="16" y="11"/></g><g transform="translate(-.000001 -4.5)"><path d="m10.794702 5.4999999-1.8027609.018682-3.0251138.061335h-.00781c-.9356626.0347179-1.5380972.5124434-1.7734667 1.0125724-.2353696.5001291-.1881205 1.0060873-.1855496 1.1134571v4.3921786l.00195-.04297c-.044035.459305.1865186.881152.5097732 1.120929s.7136644.341366 1.101579.347488c.3879147.0061-.3059782-.10633.024956-.341566.3309345-.235246.4001213-.659979.365629-1.124666l.00195.0355.013672-3.9456746z" fill="#1e8bcd"/><g fill="#fafafa"><path d="m6.3298526 7.944613 3.1543027 5.382729c.2422812.375607.6317997.519988 1.0072917.328246l4.57779-2.603959c.348206-.233576.50969-.672261.287321-1.0564598l-3.157908-5.3888759z" stroke="#3a3a38"/><ellipse cx="4.800237" cy="12.570596" rx="1.550014" ry="1.539994" stroke="#797774" stroke-width="1.00002" transform="matrix(.86821741 -.49618397 .50382626 .86380501 0 0)"/></g></g></svg>