<?xml version="1.0" encoding="UTF-8" standalone="no"?>
<svg
   xmlns:dc="http://purl.org/dc/elements/1.1/"
   xmlns:cc="http://creativecommons.org/ns#"
   xmlns:rdf="http://www.w3.org/1999/02/22-rdf-syntax-ns#"
   xmlns:svg="http://www.w3.org/2000/svg"
   xmlns="http://www.w3.org/2000/svg"
   xmlns:sodipodi="http://sodipodi.sourceforge.net/DTD/sodipodi-0.dtd"
   xmlns:inkscape="http://www.inkscape.org/namespaces/inkscape"
   height="16"
   viewBox="0 0 16 16"
   width="16"
   version="1.1"
   id="svg24"
   sodipodi:docname="sc_borderdialog.svg"
   inkscape:version="0.92.3 (2405546, 2018-03-11)">
  <metadata
     id="metadata30">
    <rdf:RDF>
      <cc:Work
         rdf:about="">
        <dc:format>image/svg+xml</dc:format>
        <dc:type
           rdf:resource="http://purl.org/dc/dcmitype/StillImage" />
        <dc:title></dc:title>
      </cc:Work>
    </rdf:RDF>
  </metadata>
  <defs
     id="defs28" />
  <sodipodi:namedview
     pagecolor="#ffffff"
     bordercolor="#666666"
     borderopacity="1"
     objecttolerance="10"
     gridtolerance="10"
     guidetolerance="10"
     inkscape:pageopacity="0"
     inkscape:pageshadow="2"
     inkscape:window-width="1366"
     inkscape:window-height="704"
     id="namedview26"
     showgrid="false"
     inkscape:zoom="19.492727"
     inkscape:cx="1.7421059"
     inkscape:cy="4.8358536"
     inkscape:window-x="0"
     inkscape:window-y="0"
     inkscape:window-maximized="1"
     inkscape:current-layer="svg24" />
  <path
     style="fill:#3a3a38"
     d="M 1 0 C 0.446 0 0 0.446 0 1 L 0 2 C 0 2.554 0.446 3 1 3 L 15 3 C 15.554 3 16 2.554 16 2 L 16 1 C 16 0.446 15.554 0 15 0 L 1 0 z M 0.5 4 C 0.223 4 0 4.223 0 4.5 L 0 5.5 C 0 5.777 0.223 6 0.5 6 L 10.5 6 L 12.5 6 L 15.5 6 C 15.777 6 16 5.777 16 5.5 L 16 4.5 C 16 4.223 15.777 4 15.5 4 L 0.5 4 z M 0.5 8 C 0.223 8 0 8.223 0 8.5 C 0 8.777 0.223 9 0.5 9 L 4.5 9 C 4.777 9 5 8.777 5 8.5 C 5 8.223 4.777 8 4.5 8 L 0.5 8 z M 6.5 8 C 6.223 8 6 8.223 6 8.5 C 6 8.777 6.223 9 6.5 9 L 6.59375 9 L 6.9863281 8.3164062 A 1.0001 1.0001 0 0 0 6.9882812 8.3144531 L 7.1699219 8 L 6.5 8 z M 0.5 11 C 0.223 11 0 11.190572 0 11.427734 L 0 11.572266 C 0 11.809428 0.223 12 0.5 12 L 1.5 12 C 1.777 12 2 11.809428 2 11.572266 L 2 11.427734 C 2 11.190572 1.777 11 1.5 11 L 0.5 11 z M 4.5 11 C 4.223 11 4 11.190572 4 11.427734 L 4 11.572266 C 4 11.809428 4.223 12 4.5 12 L 5.5 12 C 5.777 12 6 11.809428 6 11.572266 L 6 11.427734 C 6 11.190572 5.777 11 5.5 11 L 4.5 11 z M 0.5 14 C 0.223 14 0 14.223 0 14.5 L 0 15.5 C 0 15.777 0.223 16 0.5 16 L 9.4804688 16 L 9.3300781 15.255859 L 8.4238281 15.5625 A 1.0001 1.0001 0 0 1 7.2382812 15.117188 L 6.9882812 14.685547 A 1.0001 1.0001 0 0 0 6.9863281 14.683594 L 6.59375 14 L 0.5 14 z M 16 14.705078 L 15.761719 15.117188 A 1.0001 1.0001 0 0 1 14.576172 15.5625 L 13.669922 15.255859 L 13.519531 16 L 15.5 16 C 15.777 16 16 15.777 16 15.5 L 16 14.705078 z "
     id="rect2" />
  <path
     style="opacity:1;fill:#1e8bcd;fill-opacity:1;stroke:none;stroke-width:3;stroke-linecap:round;stroke-linejoin:round;stroke-miterlimit:4;stroke-dasharray:none;stroke-dashoffset:0;stroke-opacity:1;paint-order:normal"
     d="m 10.5,7 -0.412109,2.056641 -1.9843754,-0.6718754 -0.25,0.4316406 -0.5,0.8671878 -0.25,0.43164 1.5742188,1.384766 -1.5742188,1.384766 0.25,0.43164 0.5,0.867188 0.25,0.43164 L 10.087891,13.943359 10.5,16 h 0.5 1 0.5 l 0.412109,-2.056641 1.984375,0.671875 0.25,-0.43164 0.5,-0.867188 0.25,-0.43164 L 14.322266,11.5 l 1.574218,-1.384766 -0.25,-0.43164 -0.5,-0.8671878 -0.25,-0.4316406 L 12.912109,9.056641 12.5,7 H 12 11 Z m 0.875,1 h 0.25 L 12,9.5 h 0.654297 l 0.328125,0.566406 1.486328,-0.423828 0.125,0.214844 -1.111328,1.076172 0.328125,0.566406 -0.328125,0.566406 1.111328,1.076172 -0.125,0.214844 L 12.982422,12.933594 12.654297,13.5 H 12 L 11.625,15 h -0.25 L 11,13.5 H 10.345703 L 10.017578,12.933594 8.53125,13.357422 8.40625,13.142578 9.5175781,12.066406 9.1894531,11.5 9.5175781,10.933594 8.40625,9.857422 8.53125,9.642578 10.017578,10.066406 10.345703,9.5 H 11 Z M 11.5,10 A 1.5,1.5 0 0 0 10,11.5 1.5,1.5 0 0 0 11.5,13 1.5,1.5 0 0 0 13,11.5 1.5,1.5 0 0 0 11.5,10 Z m 0,1 A 0.5,0.5 0 0 1 12,11.5 0.5,0.5 0 0 1 11.5,12 0.5,0.5 0 0 1 11,11.5 0.5,0.5 0 0 1 11.5,11 Z"
     id="path1464"
     inkscape:connector-curvature="0" />
  <path
     inkscape:connector-curvature="0"
     id="path1482"
     d="m 11.375,8 h 0.25 L 12,9.5 h 0.654297 l 0.328125,0.566406 1.486328,-0.423828 0.125,0.214844 -1.111328,1.076172 0.328125,0.566406 -0.328125,0.566406 1.111328,1.076172 -0.125,0.214844 L 12.982422,12.933594 12.654297,13.5 H 12 L 11.625,15 h -0.25 L 11,13.5 H 10.345703 L 10.017578,12.933594 8.53125,13.357422 8.40625,13.142578 9.5175781,12.066406 9.1894531,11.5 9.5175781,10.933594 8.40625,9.857422 8.53125,9.642578 10.017578,10.066406 10.345703,9.5 H 11 Z M 11.5,10 C 10.671573,10 10,10.671573 10,11.5 10,12.328427 10.671573,13 11.5,13 12.328427,13 13,12.328427 13,11.5 13,10.671573 12.328427,10 11.5,10 Z"
     style="opacity:1;fill:#fafafa;fill-opacity:1;stroke:none;stroke-width:3;stroke-linecap:round;stroke-linejoin:round;stroke-miterlimit:4;stroke-dasharray:none;stroke-dashoffset:0;stroke-opacity:1;paint-order:normal"
     sodipodi:nodetypes="cccccccccccccccccccccccccccccccsssss" />
</svg>
