<svg viewBox="0 0 32 32" xmlns="http://www.w3.org/2000/svg"><g transform="matrix(1.3331382 0 0 1.3691939 .002855 .254072)"><path d="m11.307716 20.638247 9.438078-5.638247-5.708126-10.3752563-9.9336041 5.8220523z" fill="#fafafa" fill-rule="evenodd"/><path d="m8.9991758 7.848361h-5c-1 0-1 .217546-1 2.276478v5.723522c0 1 1.9944819.999986 2 0v-6z" fill="#1e8bcd" fill-rule="evenodd"/><g fill="none" stroke="#3a3a38"><ellipse cx="4.962672" cy="16.187546" rx="1.752345" ry="1.741017" stroke-linecap="round" stroke-width=".740182" transform="matrix(.86821741 -.49618397 .50382625 .86380502 0 0)"/><g stroke-width=".740167"><path d="m12.37467 9.6742529v-5.2263907c0-2.8972803 5.250768-2.6079462 5.250768.320694v4.9056967" stroke-linecap="round"/><path d="m5.1040639 10.446796 5.3390121 9.387521c.410089.65506 1.069393.906864 1.704955.572463l7.748423-4.541322c.589382-.407352.86271-1.172428.486324-1.842477l-5.34511-9.3982373z"/></g></g></g></svg>