<svg viewBox="0 0 32 32" xmlns="http://www.w3.org/2000/svg"><path d="m16 4a13 24.5 0 0 0 -13 24.5 13 24.5 0 0 0 .0136719.5h1.9941406a11 22.5 0 0 1 -.0078125-.5 11 22.5 0 0 1 11-22.5 11 22.5 0 0 1 11 22.5 11 22.5 0 0 1 -.011719.5h2.001953a13 24.5 0 0 0 .009766-.5 13 24.5 0 0 0 -13-24.5z" fill="#3a3a38"/><rect fill="#1e8bcd" height="2" ry="1" width="26" x="3" y="4"/><path d="m14 2c-.554 0-1 .446-1 1v4c0 .554.446 1 1 1h4c.554 0 1-.446 1-1v-4c0-.554-.446-1-1-1zm0 1h4v4h-4z" fill="#1e8bcd"/><path d="m14 3h4v4h-4z" fill="#fafafa"/><circle cx="5" cy="5" fill="#1e8bcd" r="3"/><circle cx="5" cy="5" fill="#fafafa" r="2"/><circle cx="27" cy="5" fill="#1e8bcd" r="3"/><circle cx="27" cy="5" fill="#fafafa" r="2"/></svg>