<svg viewBox="0 0 32 32" xmlns="http://www.w3.org/2000/svg"><path d="m6 3v26h8v-12c0-.554.446-1 1-1h10v-6l-6-7z" fill="#fafafa"/><path d="m5.9980469 2c-.554 0-1 .446-1 1v26c0 .554.446 1 1 1h8.0019531v-1h-8.0019531v-26h13.0000001v6c0 .6726441.491378 1 1 1h5v6h1v-7.6152344l-5.507813-6.3847656z" fill="#3a3a38"/><path d="m15 7h4l-4-4z" fill="#fafafa" fill-rule="evenodd"/><path d="m15 17h15v13h-15z" fill="#3a3a38"/><g fill="#fafafa"><path d="m16 20h6v4h-6z"/><path d="m23 20h6v4h-6z"/><path d="m16 25h6v4h-6z"/><path d="m23 25h6v4h-6z"/></g><path d="m15 17h15v3h-15z" fill="#1e8bcd"/></svg>