<svg viewBox="0 0 32 32" xmlns="http://www.w3.org/2000/svg"><path d="m9.8125 9.875-1.6875 5.625h-5.625l4.5 3.375-1.125 5.625 3.9375-3.375 5.0625 3.375-1.6875-5.625 3.9375-3.375h-5.0625z" fill="#f8db8f" stroke="#ed8733" stroke-linecap="round" stroke-linejoin="round"/><g fill="#fb983b" transform="translate(-1)"><path d="m14 9 .5 1h15.5v-1z"/><path d="m15 11 .5 1h15.5v-1z"/><path d="m16 13 .5 1h13.5v-1z"/><path d="m20 17 1.5-1h9.5v1z"/><path d="m18 19 1-1h11v1z"/><path d="m18.5 20 .5 1h11v-1z"/><path d="m19.5 22 .5 1h11v-1z"/></g></svg>