<svg viewBox="0 0 32 32" xmlns="http://www.w3.org/2000/svg"><g fill="#3a3a38" transform="matrix(0 -1 -1 0 0 0)"><path d="m-29.593145-5h25.18629c.2253977 0 .406855.1814573.406855.406855v.18629c0 .2253977-.1814573.406855-.406855.406855h-25.18629c-.225398 0-.406855-.1814573-.406855-.406855v-.18629c0-.2253977.181457-.406855.406855-.406855z"/><path d="m-27.5-29c.277 0 .5.223.5.5v26c0 .277-.223.5-.5.5s-.5-.223-.5-.5v-26c0-.277.223-.5.5-.5z"/></g><path d="m6.8300781 5c-.4601014 0-.8300781.3699767-.8300781.8300781v19.3398439c0 .460101.3699767.830078.8300781.830078h19.3398439c.460101 0 .830078-.369977.830078-.830078v-8.552734l-4.552734 2.277343c-.494035.247028-1.094785.04678-1.341797-.447265l-3.097657-6.197266c-.01073 1.647193-.0055 3.404813-.0078 4.251953-.000412.213033-.06884.420368-.195312.591797-.908875 1.230825-2.017388 2.076159-3.328126 2.785156-.666227.360995-1.476269-.121173-1.476574-.878906l.0059-7.794922c.0013.05532-.01658-.231947.0078-.517578.0244-.285631.08947-.654012.273437-1.0449219.02088-.044692.04503-.087778.07227-.1289062.306568-.4600165.624023-.8562814 1.087891-1.1269531.463867-.270672.959497-.3470794 1.480468-.3847657.02601-.00167.05207-.00232.07813-.00195l3.96676.0195281 1.007813-.0195312c.0065-.0000636.01302-.0000636.01953 0v-.5-.5c0-.7366867.5-1.8223235 1.279297-2z" fill="#1e8bcd"/><g transform="matrix(1 0 0 -1 14 21)"><g fill-rule="evenodd" transform="matrix(1 0 0 -1 0 16)"><path d="m7 4-1.0197613.018687-3.9802387-.018687c-.931826.0674074-1.26108412.24659-1.80891038 1.0686251-.23536957.5001291-.18812052 1.0060873-.18554966 1.1134571l-.00553996 7.8179178c1.2308966-.665811 2.1877407-1.400014 3-2.5.0025999-.950714-.0122883-2.9878477.007811-4.8527291-.0087902-.7429187.5557234-.8771154.992189-1.1472709z" fill="#0063b1"/><path d="m2.0605469 4.9941406c-.3933227.0298039-.5371223.0742138-.6074219.1152344-.0623055.036356-.1932771.1836649-.3769531.4433594-.0369594.0978716-.0676512.2049334-.0761719.3046875-.0102171.1196148-.00388.1387207 0 .3007812.0001081.00846.0001081.016928 0 .025391l-.003906 5.7246089c.3212554-.275524.7352629-.48896 1.0117185-.83789-.00124-.619527-.010693-2.8583312.00586-4.4121099-.007383-.6239362.3322032-1.2339661.6914056-1.5292969.0984394-.0809353.1245173-.075221.2109375-.1308593z" fill="#83beec"/></g><path d="m10.5 13-6-3 3.5-7 6 3z" fill="#3a3a38"/><path d="m10.177734 3.9667969-4.7109371 2.3554687 2.8554687 5.7109374 4.7109374-2.3554686z" fill="#fafafa" transform="matrix(1 0 0 -1 0 16)"/><path d="m8.5 8v5.5c0 2.827792 4 2.5 4 0v-3.5" fill="none" stroke="#3a3a38"/></g></svg>