<svg height="32" viewBox="0 0 8.4666665 8.4666669" width="32" xmlns="http://www.w3.org/2000/svg"><g transform="translate(0 -288.53332)"><path d="m.81183677 289.32708c-.15651665 0-.28267009.12616-.28267009.28267v6.06733c0-.14658.11800417-.26458.26458333-.26458v-5.82083c0-.14658.11800417-.26459.26458329-.26459zm.51107993 0c.1465791 0 .2645833.11801.2645833.26459v5.82083h6.0854167c.1465792 0 .2645833.118.2645833.26458v-6.06733c0-.15651-.1261533-.28267-.28267-.28267zm-.79375002 6.61459v.24649c0 .15652.12615344.28267.28267009.28267h.24649653c-.14657912 0-.26458329-.118-.26458329-.26458-.14657916 0-.26458333-.118-.26458333-.26458zm7.40833332 0c0 .14658-.1180041.26458-.2645833.26458h-6.0854167c0 .14658-.1180042.26458-.2645833.26458h6.3319133c.1565167 0 .28267-.12615.28267-.28267z" fill="#1e8bcd" stroke-width=".264583"/><g fill="#3a3a38" transform="matrix(0 -.26458333 -.26458333 0 0 288.53333)"><path d="m-29.593145-5h25.18629c.2253977 0 .406855.1814573.406855.406855v.18629c0 .2253977-.1814573.406855-.406855.406855h-25.18629c-.225398 0-.406855-.1814573-.406855-.406855v-.18629c0-.2253977.181457-.406855.406855-.406855z"/><path d="m-27.5-29c.277 0 .5.223.5.5v26c0 .277-.223.5-.5.5s-.5-.223-.5-.5v-26c0-.277.223-.5.5-.5z"/></g><g transform="matrix(.26458333 0 0 .26458333 0 288.53333)"><g fill="#3a3a38"><path d="m10 17c-.554 0-1 .446-1 1v9c0 .554.446 1 1 1h3c.554 0 1-.446 1-1v-9c0-.554-.446-1-1-1zm0 1h3v9h-3z"/><path d="m22 14c-.554 0-1 .446-1 1v12c0 .554.446 1 1 1h3c.554 0 1-.446 1-1v-12c0-.554-.446-1-1-1zm0 1h3v12h-3z"/><path d="m16 9h3c.554 0 1 .446 1 1v17c0 .554-.446 1-1 1h-3c-.554 0-1-.446-1-1v-17c0-.554.446-1 1-1z"/></g><g fill="#fafafa"><path d="m22 15h3v12h-3z"/><path d="m10 18h3v9h-3z"/></g></g></g></svg>