<svg height="32" viewBox="0 0 32 32" width="32" xmlns="http://www.w3.org/2000/svg"><path d="m3 4v24h2v-22h24v-2z" fill="#3a3a38"/><path d="m4 5v22h1v-21h23v-1z" fill="#fafafa"/><path d="m5 6v22h1v-1-20h22 1v-1z" fill="#1e8bcd"/><path d="m17.001099 15.985162h-6.665691c-1.3331381 0-1.3331381.297863-1.3331381 3.11694v7.836612c0 1.369194 2.9977301 1.13891 2.9977301-.230286v-8.215162z" fill="#1e8bcd" fill-rule="evenodd" stroke-width="1.351046"/><ellipse cx="7.549964" cy="28.569502" fill="#fafafa" rx="2.351831" ry="2.368013" stroke="#797774" stroke-linecap="round" stroke-width="1.000051" transform="matrix(.86241676 -.50619891 .49382707 .86956013 0 0)"/><g fill="none" stroke="#3a3a38"><path d="m20.5 18.493267v-7.155943c0-3.966938 7-3.5707836 7 .439093v4.890526" stroke-linecap="round"/><path d="m11.736222 18.768984 6.481592 11.704733c.49785.816755 1.298249 1.130714 2.069825.713769l9.406632-5.6623c.715512-.507902 1.047334-1.461829.5904-2.297273l-6.488996-11.718094z"/></g></svg>