<svg viewBox="0 0 32 32" xmlns="http://www.w3.org/2000/svg"><path d="m7 3c-.554 0-1 .446-1 1v21c0 .554.446 1 1 1h9v-5c0-1.090703 1.02691-2 2-2h1v-2.5c0-2.473437 2.026563-4.5 4.5-4.5s4.5 2.026563 4.5 4.5v2.5h1v-15c0-.554-.446-1-1-1zm16.5 12c-.840272 0-1.5.659728-1.5 1.5v2.5h3v-2.5c0-.840272-.659728-1.5-1.5-1.5z" fill="#fafafa"/><path d="m5 3h1v26h-1z" fill="#1e8bcd"/><path d="m23.5 13c-1.932997 0-3.5 1.567003-3.5 3.5v3.5h-2c-.554 0-1 .446-1 1v8c0 .554.446 1 1 1h11c.554 0 1-.446 1-1v-8c0-.554-.446-1-1-1h-2v-3.5c0-1.932997-1.567003-3.5-3.5-3.5zm0 1c1.380712 0 2.5 1.119288 2.5 2.5v3.5h-5v-3.5c0-1.380712 1.119288-2.5 2.5-2.5z" fill="#ed8733"/><path d="m18 21h11v8h-11z" fill="#f8db8f"/><path d="m23.5 21a2.5 2.5 0 0 0 -2.5 2.5 2.5 2.5 0 0 0 1 1.996094v2.503906h3v-2.501953a2.5 2.5 0 0 0 1-1.998047 2.5 2.5 0 0 0 -2.5-2.5z" fill="#ed8733"/><path d="m23.5 22a1.5 1.5 0 0 0 -1.5 1.5 1.5 1.5 0 0 0 1 1.412109v2.087891h1v-2.087891a1.5 1.5 0 0 0 1-1.412109 1.5 1.5 0 0 0 -1.5-1.5z" fill="#fafafa"/><path d="m3 25h13v1h-13z" fill="#1e8bcd"/></svg>