<svg viewBox="0 0 32 32" xmlns="http://www.w3.org/2000/svg"><path d="m4 4v24h14v-8.5c0-.831.669-1.5 1.5-1.5h8.5v-14z" fill="#fafafa"/><path d="m3 3v26h15v-1h-14v-24h24v14h1v-15z" fill="#3a3a38"/><path d="m20 20h10v10h-10z" fill="#fafafa"/><path d="m26.498047 20.994141a.50005.50005 0 0 0 -.457031.308593l-.728516 1.697266h-3.8125c-.277 0-.5.223-.5.5s.223.5.5.5h3.384766l-.857422 2h-2.527344c-.277 0-.5.223-.5.5s.223.5.5.5h2.099609l-.558593 1.302734a.50005.50005 0 1 0 .917968.394532l.726563-1.697266h3.814453c.277 0 .5-.223.5-.5s-.223-.5-.5-.5h-3.384766l.857422-2h2.527344c.277 0 .5-.223.5-.5s-.223-.5-.5-.5h-2.099609l.558593-1.302734a.50005.50005 0 0 0 -.460937-.703125z" fill="#797774"/><path d="m20 19c-.554 0-1 .446-1 1v10c0 .554.446 1 1 1h10c.554 0 1-.446 1-1v-10c0-.554-.446-1-1-1zm0 1h10v10h-10z" fill="#3a3a38"/><path d="m7 4v5h-3v1h3v5h-3v1h3v5h-3v1h3v6h1v-6h10v-1h-10v-5h16v2h1v-2h3v-1h-3v-5h3v-1h-3v-5h-1v5h-16v-5zm1 6h16v5h-16z" fill="#797774"/><path d="m12 6.5a1.5 1.5 0 0 1 -1.5 1.5 1.5 1.5 0 0 1 -1.5-1.5 1.5 1.5 0 0 1 1.5-1.5 1.5 1.5 0 0 1 1.5 1.5z" fill="#18ab50"/><path d="m12 12.5a1.5 1.5 0 0 1 -1.5 1.5 1.5 1.5 0 0 1 -1.5-1.5 1.5 1.5 0 0 1 1.5-1.5 1.5 1.5 0 0 1 1.5 1.5z" fill="#ed3d3b"/><path d="m12 18.5a1.5 1.5 0 0 1 -1.5 1.5 1.5 1.5 0 0 1 -1.5-1.5 1.5 1.5 0 0 1 1.5-1.5 1.5 1.5 0 0 1 1.5 1.5z" fill="#18ab50"/><path d="m12 24.5a1.5 1.5 0 0 1 -1.5 1.5 1.5 1.5 0 0 1 -1.5-1.5 1.5 1.5 0 0 1 1.5-1.5 1.5 1.5 0 0 1 1.5 1.5z" fill="#ed3d3b"/><g fill="#797774"><path d="m14 6h8v1h-8z"/><path d="m14 12h8v1h-8z"/><path d="m14 18v1h4.091797c.206006-.581923.753963-1 1.408203-1z"/><path d="m14 24h4v1h-4z"/></g></svg>