<svg viewBox="0 0 32 32" xmlns="http://www.w3.org/2000/svg"><path d="m4 4v17h10.171875l-.585937-.585938c-.771155-.77115-.771155-2.056974 0-2.828124.386535-.386538.905202-.585938 1.414062-.585938s1.027527.1994 1.414062.585938l4 4c.359483.359481.585938.86698.585938 1.414062v-19zm17 19c0 .275974-.194191.471935-.298828.712891a1.0001 1.0001 0 0 1 -.283203.703125l-3.583985 3.583984h4.166016zm-17 2v3h9.28125c-.435133-.763015-.336902-1.766614.308594-2.412109l.58789-.587891z" fill="#fafafa" stroke-width="1.558387"/><path d="m21 4v24h7v-24z" fill="#83beec"/><path d="m3 3v1 5 12h1v-2-1-4-1-4-1-4h5 1 5 1 5v-1h-5-12zm0 22v3c0 .554.446 1 1 1h3v-1h-3v-3zm8 3v1h3.984375c-.50256-.005047-1.012953-.202404-1.394531-.583984-.125657-.125658-.223888-.267482-.308594-.416016zm5.833984 0-.416015.416016c-.381577.381575-.891971.578937-1.394531.583984h.976562 5v-1z" fill="#3a3a38"/><path d="m21 3v6 4 1 4 1 4 1 4 1h7c.554 0 1-.446 1-1v-19-5-1h-1zm1 1h6v4h-6zm0 5h6v4h-6zm0 5h6v4h-6zm0 5h6v4h-6zm0 5h6v4h-6z" fill="#0063b1"/><path d="m21 4v5 4 1 4 1 4 1 4h1v-4h6v-1h-6v-4h6v-1h-6v-4h6v-1h-6v-4h6v-1h-6v-4z" fill="#1e8bcd"/><path d="m9 4v3.2832031.7167969h-5v1h5v1.716797 2.283203h-5v1h5v1 2 1h-2-3v1h3 2v2h1v-2h1 2.007812c0-.347519.095396-.692191.271485-1h-2.279297-1v-1.283203-1.433594-1.283203h5v1.283203 1.716797c.344779 0 .690367.100032 1 .279297v-.279297-2-1h5v-1h-5v-2.283203-1.716797h5v-1h-5v-.7167969-3.2832031h-1v3 1h-5v-1-3zm1 5h5v2 2h-5v-2zm6.828125 9 1 1h.171875 3v-1h-3zm4.171875 5c0 .275974-.194191.471935-.298828.712891a1.0001 1.0001 0 0 1 -.041016.287109h.339844zm-12 2v3h1v-3z" fill="#797774" stroke-width="1.558387"/><path d="m15 18c-.255619 0-.511163.0971-.707031.292969-.391738.391737-.391738 1.022325 0 1.414062l2.294922 2.292969h-13.587891c-.554 0-1 .446-1 1s.446 1 1 1h16c.554 0 1-.446 1-1 0-.277-.112219-.526281-.292969-.707031l-4-4c-.195868-.195869-.451412-.292969-.707031-.292969zm4.710938 5.708984c-.180751.18075-.430032.292969-.707032.292969h-2.412109l-2.294922 2.292969c-.391737.391737-.391737 1.022325 0 1.414062.195868.195869.451412.292969.707031.292969s.511163-.0971.707032-.292969z" fill="#3a3a38"/></svg>