<svg viewBox="0 0 32 32" xmlns="http://www.w3.org/2000/svg" xmlns:xlink="http://www.w3.org/1999/xlink"><linearGradient id="a" gradientUnits="userSpaceOnUse" x1="-6.160697" x2="-6.063133" y1="37.650518" y2="25.56978"><stop offset="0" stop-color="#2a9240"/><stop offset="1" stop-color="#32d74b"/></linearGradient><path d="m4 3c-.554 0-1 .446-1 1v24c0 .554.446 1 1 1h14.240234l-1.021484-1h-1.21875-1-5-1-5v-4-1-4-1-4-1-9h24v9 1 4 1 .025391l.230469-.257813c.211541-.252464.474983-.444562.769531-.578125v-14.189453c0-.554-.446-1-1-1zm25 21.382812-1 1.117188v2.5h-2.236328l-.894531 1h3.130859c.554 0 1-.446 1-1z" fill="#3a3a38"/><path d="m4 4v24h13.21875l-.589844-.576172c-.8753-.855861-.875279-2.222307 0-3.078125a1.0039121 1.0039121 0 0 0 0-.001953c.876223-.856603 2.209732-.85486 3.085938.001953l1.882812 1.841797 6.402344-7.162109v-15.025391zm24 21.5-2.236328 2.5h2.236328z" fill="#fafafa"/><path d="m3 3h26v6h-26z" fill="#83beec"/><path d="m9 9v4h-5v1h5v4h-5v1h5v4h-5v1h5v4h1v-4h5v4h1v-1.839844c-.024199-.183585-.024201-.367197 0-.550781v-1.609375h1.095703c.672247-.385961 1.477836-.385825 2.150391 0h1.753906v1.603516l.597656.583984.402344-.449219v-1.738281h1.552734l.894532-1h-2.447266v-4h6v-1h-6v-4h6v-1h-6v-4h-1v4h-5v-4h-1v4h-5v-4zm1 5h5v4h-5zm6 0h5v4h-5zm-6 5h5v4h-5zm6 0h5v4h-5z" fill="#797774"/><path d="m4 3c-.554 0-1 .446-1 1v5h1 5 1 5 1 5 1 6 1v-5c0-.554-.446-1-1-1zm0 1h5v4h-5zm6 0h5v4h-5zm6 0h5v4h-5zm6 0h6v4h-6z" fill="#0063b1"/><path d="m30.008379 19.015652c-.11263-.02069-.229582-.02189-.349814.0022-.256226.05414-.492352.195183-.658476.393444l-7.352978 8.22655-2.633903-2.575268c-.440541-.430791-1.242149-.430757-1.682772 0-.440564.430768-.440599 1.214497 0 1.645311l3.511871 3.433689.91455.858422.804804-.929957 8.194364-9.156507c.581205-.618654.04074-1.75309-.747646-1.897919z" fill="url(#a)"/></svg>