<svg viewBox="0 0 32 32" xmlns="http://www.w3.org/2000/svg"><path d="m16 3c-3.313708 0-6 2.6862915-6 6v7h-4c-.554 0-1 .446-1 1v11c0 .554.446 1 1 1h10v-1h-9-1v-1-9-1h1 9v-1h-5v-7c0-2.7614237 2.238576-5 5-5s5 2.2385763 5 5v5.099609c.06565.02476.134328.045745.193359.078125h.001953l.804688.441407v-5.619141c0-3.3137085-2.686292-6-6-6zm2 12c-.554 0-1 .446-1 1v14c0 .554.446 1 1 1s1-.446 1-1v-14c0-.554-.446-1-1-1zm9 8.367188-1 .423828v3.208984 1h-1-5v1h6c.554 0 1-.446 1-1z" fill="#3a3a38"/><path d="m6 17v11h10v-11zm20 6.791016-4.9375 2.09375c-.364441.155082-.718555-.038173-1.0625-.181641v2.296875h6z" fill="#fff"/><path d="m20.513641 15.000039c-.282697-.0039-.513491.281395-.513641.634749v8.73025c.000364.434941.342414.740751.671834.600571l8.985781-3.810939c.436842-.188435.46197-.948776.03905-1.181612l-8.983823-4.919309c-.06283-.03454-.130575-.05281-.199206-.05371z" fill="#1e8bcd"/></svg>