<svg viewBox="0 0 32 32" xmlns="http://www.w3.org/2000/svg"><path d="m16 3a6 6 0 0 0 -6 6v7h-4c-.554 0-1 .446-1 1v11c0 .554.446 1 1 1h20c.554 0 1-.446 1-1v-11c0-.554-.446-1-1-1h-4v-7a6 6 0 0 0 -6-6zm0 1a5 5 0 0 1 5 5v7h-10v-7a5 5 0 0 1 5-5zm-10 13h1 18 1v1 9 1h-1-18-1v-1-9z" fill="#3a3a38"/><path d="m6 17h20v11h-20z" fill="#fafafa"/><path d="m15 19c-1.104522 0-2 .895478-2 2v4c0 1.104597.895431 2 2 2h1v-1h-1c-.552284 0-1-.447701-1-1v-.28125-3.71875c0-.552299.426767-1 1-1h1v-1zm7 0v1h1c.573233 0 1 .447701 1 1v3.71875.28125c0 .552299-.447716 1-1 1h-1v1h1c1.104569 0 2-.895403 2-2v-4c0-1.104522-.895478-2-2-2zm-6.039062 3c-.532873 0-.960938.428065-.960938.960938v.078124c0 .532873.428065.960938.960938.960938h6.078124c.532873 0 .960938-.428065.960938-.960938v-.078124c0-.532873-.428065-.960938-.960938-.960938z" fill="#1e8bcd"/></svg>