<svg viewBox="0 0 32 32" xmlns="http://www.w3.org/2000/svg"><path d="m6 3v.8652344l1.5 1.5 2.3652344-2.3652344zm8.138672 0-4.5019532 4.5019531 5.0703122 5.0703129a1.0013091 1.0013091 0 0 1 0 1.414062l-.722656.722656a1.0013091 1.0013091 0 0 1 -1.414063 0l-5.070312-5.0703121-1.5 1.5000001v17.861328h15.271484c-.436655-.763291-.339502-1.767919.306641-2.414062l1.585937-1.585938h-9.164062c-1.090703 0-2-.909297-2-2s.909297-2 2-2h9.169922l-1.583984-1.583984c-.771153-.771153-.771153-2.056973 0-2.828125.384189-.384197.900116-.587891 1.414062-.587891.514189 0 1.029949.203879 1.414062.587891l1.585938 1.585937v-9.814453l-6-5.359375zm11.861328 24.822266-1.177734 1.177734h1.177734z" fill="#fafafa"/><path d="m6 2c-.5137817 0-.9181598.3891313-.9765625.8867188l.9765625.9785156v-.8652344h3.8652344l.9999996-1zm8.960938 0a1.0013091 1.0013091 0 0 1 -.253907.4316406l-.568359.5683594h4.861328v6c0 .554.446 1 1 1h6v8.173828l1 1v-8.283203-1.640625-.2089844c0-.4506797.098038-.4254121-.605469-1.0664062l-5.30664-5.2382813c-.709525-.7368575-1.477331-.7363281-1.09375-.7363281h-.332032-.662109zm-9.960938 5.1386719v.7265625l.3632812-.3632813zm1 4.0000001-1 1v16.861328c0 .554.446 1 1 1h20c.554 0 1-.446 1-1v-2.179688l-1 1.001954v1.177734h-1.177734l-.414063.414062c-.772328.772329-2.05775.772329-2.830078 0-.125009-.125008-.222161-.266389-.306641-.414062h-15.271484z" fill="#3a3a38"/><path d="m20 9h6l-6-6z" fill="#fafafa" fill-rule="evenodd"/><g fill="#fb983b" transform="matrix(1.1667513 0 0 1.1666667 3.165736 3.166667)"><g stroke-width=".857112"><g fill="#fb983b"><rect height=".857143" ry=".428571" width="4.285403" x="13.571241" y="9.285714"/><rect height=".857143" ry=".428571" width="5.999565" x="4.143354" y="12.714285"/><rect height=".857143" ry=".428571" width="5.999565" x="4.143354" y="19.571428"/></g><g fill="#797774"><path d="m12.134766 10 .773437.773438c.053345-.079554.091797-.170054.091797-.273438 0-.277-.22298-.5-.5-.5zm-4.0449222.228516c-.0524174.079103-.0898438.169083-.0898438.271484 0 .277.2229802.5.5.5h.3613281z" stroke-width="1" transform="matrix(.85708068 0 0 .85714283 -2.713291 -2.714286)"/><path d="m8.5 14c-.2770198 0-.5.223-.5.5s.2229802.5.5.5h4.742188a1.0013091 1.0013091 0 0 1 -.671876-.291016l-.708984-.708984zm6.193359 0-.708984.708984a1.0013091 1.0013091 0 0 1 -.666016.291016h3.181641c.27702 0 .5-.223.5-.5s-.22298-.5-.5-.5z" stroke-width="1" transform="matrix(.85708068 0 0 .85714283 -2.713291 -2.714286)"/><rect height=".857143" ry=".406779" width="3.428323" x="4.143354" y="16.142857"/><rect height=".857143" ry=".406779" width="3.428323" x="9.285838" y="16.142857"/><rect height=".857143" ry=".406779" width="3.428323" x="11.85708" y="12.714285"/><rect height=".857143" ry=".428571" width="1.714161" x="10.14292" y="5.857142"/></g></g><path d="m8.6662429-1.8553977-4.952022 4.952381-4.952022-4.952381-.619002.619047 4.952022 4.952381-4.952022 4.952381.619002.619048 4.952022-4.952381 4.952022 4.952381.619003-.619048-4.952022-4.952381 4.952022-4.952381z" fill="#ed3d3b"/></g><path d="m23 17c-.255619 0-.511163.09905-.707031.294922-.391737.391737-.391737 1.022325 0 1.414062l3.291015 3.291016h-11.583984c-.554 0-1 .446-1 1s.446 1 1 1h11.580078l-3.294922 3.292969c-.391737.391737-.391737 1.022325 0 1.414062s1.024279.391737 1.416016 0l4.972656-4.972656c.01071-.0098.02478-.01306.03516-.02344.09486-.09486.163972-.20421.212891-.320313.103828-.246422.105083-.522891.002-.769531-.05003-.122658-.123198-.231775-.214844-.324219l-.002-.0039c-.001-.001-.0029-.000935-.0039-.002l-.002-.002-4.994141-4.99414c-.195831-.195779-.451375-.294832-.706994-.294832z" fill="#1e8bcd"/></svg>