<svg viewBox="0 0 32 32" xmlns="http://www.w3.org/2000/svg"><g fill-rule="evenodd" transform="translate(.000768 -1.997475)"><path d="m15.019531 19a1.0001 1.0001 0 0 0 -1.019531 1v8a1.0001 1.0001 0 0 0 1 1h14a1.0001 1.0001 0 0 0 .496094-1.869141l-14-8a1.0001 1.0001 0 0 0 -.476563-.130859z" fill="#3a3a38"/><path d="m15 20v8h14z" fill="#fafafa"/></g><g fill-rule="evenodd" transform="translate(.000768 -1.997475)"><path d="m10.9714 13c-.419745.01214-.787203.285198-.919922.683594l-8.0006968 14c-.2159644.647787.2663802 1.316717.9492188 1.316406h8c.552262-.000055.999945-.447738 1-1l.000697-14c.000184-.563907-.465631-1.016463-1.029297-1z" fill="#0063b1"/><path d="m3 28h8l.000697-14z" fill="#83beec"/></g><g transform="translate(.000768 .002525)"><path d="m23.485758 10.5h-8" fill="none" stroke="#1e8bcd" stroke-linecap="round"/><path d="m20.5 15.5-5-5 5-5" fill="none" stroke="#1e8bcd" stroke-linecap="round" stroke-linejoin="round"/><g fill="#1e8bcd"><rect height="6.5" rx=".5" ry="1" width="1" x="27" y="14.5"/><path d="m23 10v1a4 4 0 0 1 4 4h1a5 5 0 0 0 -5-5z"/></g></g></svg>