<svg viewBox="0 0 32 32" xmlns="http://www.w3.org/2000/svg"><path d="m3 11h7v17h-7z" fill="#fafafa"/><path d="m3 4h24v6h-24z" fill="#1e8bcd" opacity=".5"/><path d="m2 11v17c0 .554.4625411 1.134365 1 1h8v-1-5-1-5-1-5h-1v5h-7v-5zm1 6h7v5h-7zm0 6h7v5h-7z" fill="#3a3a38"/><path d="m3 3c-.554 0-1 .446-1 1v7h1 7 1 17v-7c0-.554-.446-1-1-1zm0 1h7v6h-7zm8 0h8v6h-8zm9 0h7v6h-7z" fill="#0063b1"/><path d="m15.513416 12.513357 12.973257 10.98728h-5.993968l2.594487 5.820425c.747176 2.119527-2.615112 2.914347-3.175492 1.324705l-2.241524-4.768935-4.15676 4.493771z" fill="#fafafa" fill-rule="evenodd" stroke="#3a3a38" stroke-linejoin="round" stroke-width="1.026832"/></svg>