<svg viewBox="0 0 32 32" xmlns="http://www.w3.org/2000/svg"><path d="m27.425781 25.832033h-2.753906q-.46875 0-.761719-.234375-.273437-.234375-.429687-.585937l-2.1875-6.171875h-10.585938l-2.1679685 6.152343q-.1171875.332032-.4492187.585938-.3125001.253906-.7617188.253906h-2.7539063l9.6289063-25.66406234h3.613281zm-15.820312-9.53125h8.789062l-3.632812-10.3320311q-.195313-.46875-.390625-1.09375-.195313-.625-.371094-1.3476562-.195312.7421875-.390625 1.3671875-.195312.625-.371094 1.09375z" fill="#3a3a38" transform="matrix(.62344003 0 0 .62344003 6.02496 2.89528)"/><g fill="none" stroke="#1e8bcd" stroke-linecap="round"><g transform="matrix(1 0 0 -1 13.971516 41.0101)"><path d="m4.528484 17.5101h10"/><path d="m9.514242 12.5101 5 5-5 5" stroke-linejoin="round"/></g><g transform="matrix(-1 0 0 -1 18.999999 41.010101)"><path d="m5.5 17.5101h10"/><path d="m10.485758 12.5101 5 5-5 5" stroke-linejoin="round"/></g></g></svg>