<svg height="32" viewBox="0 0 32 32" width="32" xmlns="http://www.w3.org/2000/svg"><path d="m4 4v11.892578l2.4550781-2.453125c.2845185-.284383.6720985-.441447 1.0742188-.435547a.98928622.98928622 0 0 0 .0019531 0c.6182058.009162 1.152715.423135 1.3574219.929688s.108167 1.179254-.3300781 1.615234l-.9570313.955078 4.8749995.00586c.819726-.012732 1.510352.670926 1.509766 1.490234.000586.819306-.690075 1.502944-1.509766 1.490234l-4.8749995.00586.9570313.955078.0019531.001953c.4365797.436146.5325263 1.105539.328125 1.611328-.2047075.506547-.7392424.92243-1.3574219.931641a.98928622.98928622 0 0 0 -.0019531 0c-.4021398.005948-.789713-.15119-1.0742188-.435547l-2.4550781-2.453125v7.892578h24v-7.894531l-2.457031 2.455078c-.284506.284357-.672079.441495-1.074219.435547a.98928622.98928622 0 0 1 -.001953 0c-.618129-.0092-1.152714-.425094-1.357422-.931641-.204401-.505789-.108455-1.175182.328125-1.611328l.001953-.001953.957031-.955078-4.875-.00586c-.819689.01271-1.510351-.670928-1.509765-1.490234-.000586-.819308.690041-1.502966 1.509765-1.490234l4.875-.00586-.957031-.955078c-.438245-.43598-.534785-1.108681-.330078-1.615234s.739216-.920526 1.357422-.929688a.98928622.98928622 0 0 1 .001953 0c.40212-.0059.7897.151164 1.074219.435547l2.457031 2.455078v-11.894531z" fill="#fafafa"/><path d="m9 4v4h-5v1h5v2.251953 1.748047h1v-.337891-3.662109h5v4h1v-4h5v4h1v-4h6v-1h-6v-4h-1v4h-5v-4h-1v4h-5v-4zm0 19v2 3h1v-4.636719-.363281zm6 0v5h1v-5zm6 0v5h1v-5z" fill="#797774"/><path d="m3 3v1 5 6.191406 1.705078c.038827-.035704.0723389-.075776.1152344-.107422l-.1113282.097657.9960938-.994141v-2.892578-4-1-4h5 1 5 1 5 1 6v4 1 4 1 .140625 1.753906l.994141.992188-.111329-.097657c.043648.032201.077755.072977.117188.109376v-1.757813-1-5.140625-5-1h-1-24zm26 16.101562c-.039433.036398-.07354.077175-.117188.109376l.111329-.097657-.994141.992188v1.734375.160156 1 5h-6-1-5-1-5-1-5v-5-2.892578l-.9960938-.994141.1113282.097657c-.0428955-.031646-.076407-.071719-.1152344-.107422v2.929687 5.966797c0 .554.446 1 1 1h24c.554 0 1-.446 1-1v-6-1.160156z" fill="#3a3a38"/><path d="m4 13v1h1.8945312l.5605469-.560547c.2845185-.284383.6720985-.441447 1.0742188-.435547a.98928622.98928622 0 0 0 .0019531 0c.6182058.009162 1.152715.423135 1.3574219.929688.0084031.020794.0082399.04508.015625.066406h14.1894531c.007385-.021326.007222-.045612.015625-.066406.204707-.506553.739216-.920526 1.357422-.929688a.98928622.98928622 0 0 1 .001953 0c.40212-.0059.7897.151164 1.074219.435547l.560547.560547h1.896484v-1zm0 9v1h24v-1h-1.896484l-.560547.560547c-.284506.284357-.672079.441495-1.074219.435547a.98928622.98928622 0 0 1 -.001953 0c-.618129-.0092-1.152714-.425094-1.357422-.931641-.008157-.020184-.008427-.043773-.015625-.064453h-14.1894531c-.0071977.02068-.0074682.044269-.015625.064453-.2047075.506547-.7392424.92243-1.3574219.931641a.98928622.98928622 0 0 0 -.0019531 0c-.4021398.005948-.789713-.15119-1.0742188-.435547l-.5605469-.560547z" fill="#83beec"/><g fill="#1e8bcd"><path d="m7.515625 13.992188c-.1352887-.002-.2656285.05083-.3613281.146484l-3.4511719 3.447266c-.1255479.092622-.2006712.238534-.203125.394531-.0001272.0065-.0001272.01302 0 .01953-.0001272.0065-.0001272.01303 0 .01953.00245.155997.077577.30191.203125.394531l3.4511719 3.447266c.0957.09565.2260394.148484.3613281.146484.4430021-.0066.6597663-.542952.3457031-.855468l-2.6464843-2.642578 7.2773442-.0078c.279943.00434.508912-.221989.507812-.501964.0011-.279975-.227869-.506301-.507812-.501953l-7.2773442-.0078 2.6464843-2.642578c.3140632-.312529.097299-.848915-.3457031-.855481z"/><path d="m24.482177 13.992188c.135289-.002.265628.05083.361328.146484l3.451172 3.447266c.125548.09262.200671.238534.203125.394531.000127.0065.000127.01302 0 .01953.000127.0065.000127.01303 0 .01953-.0024.155997-.07758.30191-.203125.394531l-3.451172 3.447266c-.0957.09565-.226039.148484-.361328.146484-.443002-.0066-.659766-.542952-.345703-.855468l2.646484-2.642578-7.277344-.0078c-.279943.00434-.508912-.221989-.507812-.501964-.0011-.279975.227869-.506301.507812-.501953l7.277344-.0078-2.646484-2.642578c-.314063-.312529-.0973-.848915.345703-.855481z"/></g></svg>