<svg height="32" viewBox="0 0 32 32" width="32" xmlns="http://www.w3.org/2000/svg"><path d="m9.5616349 6.9999999c.166154 0 .3078731.00904.4251581.027109.117286.00904.21991.036144.307874.081324.09773.036144.185701.090361.263891.1626507.08796.072289.185702.1671687.293213.2846385l10.236199 11.6837349c-.05864-.596384-.08797-1.161143-.08797-1.694277v-10.54518h3v18h-1.725339c-.302984 0-.557101-.04518-.76235-.135542-.195476-.0994-.390951-.257531-.586426-.474398l-10.013845-11.615964c.05865.560241.09495 1.079871.08796 1.558735v10.667169h-3v-18z" fill="#3a3a38" stroke-width=".9"/></svg>