<svg height="256" viewBox="0 0 46.566666 67.733335" width="176" xmlns="http://www.w3.org/2000/svg"><g transform="translate(286.84583 122.3271)"><path d="m19.5 2.5h-15v19h15z" fill="#fafafa" stroke="#fb983b" stroke-linecap="round" stroke-linejoin="round" transform="matrix(.52916667 0 0 .52916667 -268.98677 -83.829918)"/><path d="m6.5 5.5v3h3v-3zm6 0h5zm0 3h5zm-6 3h11zm0 3h11zm0 3h11z" fill="#f8db8f" stroke="#fb983b" stroke-linecap="round" stroke-linejoin="round" transform="matrix(.52916667 0 0 .52916667 -268.98677 -83.829918)"/><path d="m19.5 2.5h-15v19h15z" fill="#fafafa" stroke="#797774" stroke-linecap="round" stroke-linejoin="round" transform="matrix(.52916667 0 0 .52916667 -285.39093 -68.45215)"/><path d="m6.5 5.5v3h3v-3zm6 0h5zm0 3h5zm-6 3h11zm0 3h11zm0 3h11z" fill="none" stroke="#797774" stroke-linecap="round" stroke-linejoin="round" transform="matrix(.52916667 0 0 .52916667 -285.39093 -68.45215)"/><path d="m-241.47009-114.257h1.85208" fill="none" stroke="#797774" stroke-width=".264583"/><path d="m-246.76176-121.92992v1.85208" fill="none" stroke="#797774" stroke-width=".264583"/><path d="m-257.60968-111.08199h5.55625" fill="none" stroke="#797774" stroke-width=".264583"/><path d="m-278.24718-105.79033v5.55624" fill="none" stroke="#000" stroke-width=".264583"/><path d="m-286.84583-122.3271h46.566666v67.733337h-46.566666z" fill="#fff"/><path d="m2.5 2.5h19v19h-19z" fill="#fafafa" stroke="#3a3a38" stroke-linecap="round" stroke-linejoin="round" transform="matrix(.52916667 0 0 .52916667 -285.2586383325 -83.9622096675)"/><g fill="#797774" stroke="#797774" stroke-linecap="round" stroke-linejoin="round" transform="matrix(.52916667 0 0 .52916667 -285.2586383325 -83.9622096675)"><path d="m2.5 5.5h19zm0 4h19zm0 4h19zm0 4h19z"/><path d="m8.5 2.5v19zm7 0v19z"/></g><path d="m2.5 2.5h19v19h-19z" fill="none" stroke="#797774" stroke-linecap="round" stroke-linejoin="round" transform="matrix(.52916667 0 0 .52916667 -285.2586383325 -83.9622096675)"/><path d="m21.5 5.5v-3h-19v3z" fill="#d492d8" stroke="#922e9b" stroke-linecap="round" stroke-linejoin="round" transform="matrix(.52916667 0 0 .52916667 -285.2586383325 -83.9622096675)"/><path d="m-268.19301-96.000742h-2.91042v2.11667h-2.64583" fill="none" stroke="#797774" stroke-width=".264583"/><path d="m-274.01384-79.861165h2.91041v-11.90623h-2.64583" fill="none" stroke="#797774" stroke-width=".264583"/><g stroke="#0063b1" stroke-linecap="round" stroke-linejoin="round" transform="translate(16.139575 -26.458341)"><circle cx="-262.90134" cy="-88.327835" fill="#83beec" r="5.027083" stroke-width=".529167"/><g fill="none" stroke-width=".533979"><path d="m-267.92222-88.327808h10.04177"/><path d="m-266.667-91.466995c2.41176.776611 4.90705.895848 7.53133 0"/><path d="m-266.667-85.174777c2.41176-.776611 4.90705-.895848 7.53133 0"/><path d="m-263.21514-93.350507c-1.97986 3.24952-2.20177 6.586896 0 10.045398"/><path d="m-262.58753-93.350507c1.97986 3.24952 2.20177 6.586896 0 10.045398"/></g></g><path d="m-246.76176-109.75908v2.64583h-8.20208l-.00001-8.20208h-2.64583" fill="none" stroke="#797774" stroke-width=".264583"/><path d="m2.5 2.5h19v19h-19z" fill="#fafafa" stroke="#797774" stroke-linecap="round" stroke-linejoin="round" transform="matrix(.52916667 0 0 .52916667 -285.39093 -117.43199)"/><path d="m2.5 5.5h19v-3h-19z" fill="#83beec" stroke="#0063b1" stroke-linecap="round" stroke-linejoin="round" transform="matrix(.52916667 0 0 .52916667 -285.39093 -117.43199)"/><path d="m5.5 8.5v3h3v-3zm6 1h6zm-6 5v3h3v-3zm6 1h6z" fill="none" stroke="#797774" stroke-linecap="round" stroke-linejoin="round" transform="matrix(.52916667 0 0 .52916667 -285.39093 -117.43199)"/><path d="m2.5 2.5h19v19h-19z" fill="#fafafa" stroke="#797774" stroke-linecap="round" stroke-linejoin="round" transform="matrix(.52916667 0 0 .52916667 -269.25134 -117.43199)"/><path d="m2.5 5.5h19v-3h-19z" fill="#83beec" stroke="#0063b1" stroke-linecap="round" stroke-linejoin="round" transform="matrix(.52916667 0 0 .52916667 -269.25134 -117.43199)"/><path d="m5.5 8.5v3h3v-3zm6 1h6zm-6 5v3h3v-3zm6 1h6z" fill="none" stroke="#797774" stroke-linecap="round" stroke-linejoin="round" transform="matrix(.52916667 0 0 .52916667 -269.25134 -117.43199)"/><g fill="#fafafa" stroke="#797774" stroke-linecap="round" stroke-linejoin="round" transform="matrix(.50648644 0 0 .50648644 -265.09358 -81.214288)"><path d="m4.5 21.5h15v-14.5l-4.5-4.5h-10.5z"/><path d="m14.5 7.5h5v-.5l-4.5-4.5h-.5z"/></g><g fill="none" stroke="#fff" stroke-linecap="round" stroke-linejoin="round" stroke-width="3" transform="matrix(.50648644 0 0 .50648644 -266.63433302291 -81.214288)"><path d="m6.5.5v2zm-4 4h2zm6 0h2zm-2 2v2z"/><path d="m2.5.5 2.5 2.5zm8 0-2.5 2.5zm-5.5 5.5-2.5 2.5zm3 0 2.5 2.5z"/><path d="m8.5 4.5a2 2 0 0 1 -2 2 2 2 0 0 1 -2-2 2 2 0 0 1 2-2 2 2 0 0 1 2 2z"/></g><g fill="#f8db8f" stroke="#ed8733" stroke-linecap="round" stroke-linejoin="round" transform="matrix(.50648644 0 0 .50648644 -266.63433302291 -81.214288)"><path d="m6.5.5v2zm-4 4h2zm6 0h2zm-2 2v2z"/><path d="m2.5.5 2.5 2.5zm8 0-2.5 2.5zm-5.5 5.5-2.5 2.5zm3 0 2.5 2.5z"/><path d="m8.5 4.5a2 2 0 0 1 -2 2 2 2 0 0 1 -2-2 2 2 0 0 1 2-2 2 2 0 0 1 2 2z"/></g><path d="m-279.04093-106.05492v7.408336" fill="none" stroke="#797774" stroke-width=".264583"/><path d="m-262.90134-106.05492v7.408336" fill="none" stroke="#797774" stroke-width=".264583"/><g stroke-linecap="round" stroke-linejoin="round"><path d="m2.5 2.5h19v19h-19z" fill="#fafafa" stroke="#3a3a38" transform="matrix(.52916667 0 0 .52916667 -285.39093 -99.969473)"/><g fill="#797774" stroke="#797774" transform="matrix(.52916667 0 0 .52916667 -285.39093 -99.969473)"><path d="m2.5 5.5h19zm0 4h19zm0 4h19zm0 4h19z"/><path d="m8.5 2.5v19zm7 0v19z"/></g><path d="m2.5 2.5h19v19h-19z" fill="none" stroke="#797774" transform="matrix(.52916667 0 0 .52916667 -285.39093 -99.969473)"/><path d="m21.5 5.5v-3h-19v3z" fill="#d492d8" stroke="#922e9b" transform="matrix(.52916667 0 0 .52916667 -285.39093 -99.969473)"/><path d="m2.5 2.5h19v19h-19z" fill="#fafafa" stroke="#3a3a38" transform="matrix(.52916667 0 0 .52916667 -269.25134 -99.969473)"/><g fill="#797774" stroke="#797774" transform="matrix(.52916667 0 0 .52916667 -269.25134 -99.969473)"><path d="m2.5 5.5h19zm0 4h19zm0 4h19zm0 4h19z"/><path d="m8.5 2.5v19zm7 0v19z"/></g><path d="m2.5 2.5h19v19h-19z" fill="none" stroke="#797774" transform="matrix(.52916667 0 0 .52916667 -269.25134 -99.969473)"/><path d="m21.5 5.5v-3h-19v3z" fill="#d492d8" stroke="#922e9b" transform="matrix(.52916667 0 0 .52916667 -269.25134 -99.969473)"/><path d="m2.5 2.5h19v19h-19z" fill="#fafafa" stroke="#3a3a38" transform="matrix(.52916667 0 0 .52916667 -253.37633 -99.969473)"/><g fill="#797774" stroke="#797774" transform="matrix(.52916667 0 0 .52916667 -253.37633 -99.969473)"><path d="m2.5 5.5h19zm0 4h19zm0 4h19zm0 4h19z"/><path d="m8.5 2.5v19zm7 0v19z"/></g><path d="m2.5 2.5h19v19h-19z" fill="none" stroke="#797774" transform="matrix(.52916667 0 0 .52916667 -253.37633 -99.969473)"/><path d="m21.5 5.5v-3h-19v3z" fill="#d492d8" stroke="#922e9b" transform="matrix(.52916667 0 0 .52916667 -253.37633 -99.969473)"/></g><path d="m-257.87425-91.767406h2.91042v2.11667h2.64583" fill="none" stroke="#797774" stroke-width=".264583"/><path d="m2.5 2.5h19v19h-19z" fill="#fafafa" stroke="#3a3a38" stroke-linecap="round" stroke-linejoin="round" transform="matrix(.52916667 0 0 .52916667 -285.39093 -68.484081)"/><g fill="#797774" stroke="#797774" stroke-linecap="round" stroke-linejoin="round" transform="matrix(.52916667 0 0 .52916667 -285.39093 -68.484081)"><path d="m2.5 5.5h19zm0 4h19zm0 4h19zm0 4h19z"/><path d="m8.5 2.5v19zm7 0v19z"/></g><path d="m2.5 2.5h19v19h-19z" fill="none" stroke="#797774" stroke-linecap="round" stroke-linejoin="round" transform="matrix(.52916667 0 0 .52916667 -285.39093 -68.484081)"/><path d="m21.5 5.5v-3h-19v3z" fill="#d492d8" stroke="#922e9b" stroke-linecap="round" stroke-linejoin="round" transform="matrix(.52916667 0 0 .52916667 -285.39093 -68.484081)"/><path d="m-274.01383-62.398663h2.91041l-.00001-11.112504h-2.91041" fill="none" stroke="#797774" stroke-width=".264583"/><path d="m-274.01383-62.398657h2.91041l12.17083-.000009v-7.672917" fill="none" stroke="#797774" stroke-width=".264583"/></g></svg>