<?xml version="1.0" encoding="UTF-8" standalone="no"?>
<svg
   xmlns:dc="http://purl.org/dc/elements/1.1/"
   xmlns:cc="http://creativecommons.org/ns#"
   xmlns:rdf="http://www.w3.org/1999/02/22-rdf-syntax-ns#"
   xmlns:svg="http://www.w3.org/2000/svg"
   xmlns="http://www.w3.org/2000/svg"
   xmlns:sodipodi="http://sodipodi.sourceforge.net/DTD/sodipodi-0.dtd"
   xmlns:inkscape="http://www.inkscape.org/namespaces/inkscape"
   height="192"
   viewBox="0 0 134 192"
   width="134"
   version="1.1"
   id="svg24"
   sodipodi:docname="base_thumbnail_192.svg"
   inkscape:export-filename="/home/rizmut/Dokumen/Rizmut/Github/libreoffice-style-colibre/tmp/colibre/res/base_thumbnail_192.png"
   inkscape:export-xdpi="96"
   inkscape:export-ydpi="96"
   inkscape:version="0.92.5 (2060ec1f9f, 2020-04-08)">
  <metadata
     id="metadata30">
    <rdf:RDF>
      <cc:Work
         rdf:about="">
        <dc:format>image/svg+xml</dc:format>
        <dc:type
           rdf:resource="http://purl.org/dc/dcmitype/StillImage" />
      </cc:Work>
    </rdf:RDF>
  </metadata>
  <defs
     id="defs28" />
  <sodipodi:namedview
     pagecolor="#ffffff"
     bordercolor="#666666"
     borderopacity="1"
     objecttolerance="10"
     gridtolerance="10"
     guidetolerance="10"
     inkscape:pageopacity="0"
     inkscape:pageshadow="2"
     inkscape:window-width="1366"
     inkscape:window-height="711"
     id="namedview26"
     showgrid="false"
     inkscape:zoom="1.2291667"
     inkscape:cx="-31.033898"
     inkscape:cy="96"
     inkscape:window-x="0"
     inkscape:window-y="0"
     inkscape:window-maximized="1"
     inkscape:current-layer="svg24" />
  <path
     d="m0 0h134v192h-134z"
     fill="#fafafa"
     id="path2" />
  <path
     d="M 120,51.71875 V 144 c 0,6.62742 -23.281193,12 -52,12 -28.718807,0 -52,-5.37258 -52,-12 V 51.767578 C 22.518917,57.816122 43.776256,61.999085 68,62 92.276884,61.993 113.55146,57.786659 120,51.71875 Z"
     id="path4"
     inkscape:connector-curvature="0"
     style="fill:#f8db8f" />
  <ellipse
     cx="68"
     cy="48"
     rx="54"
     ry="14"
     id="ellipse6"
     style="fill:#ed8733" />
  <ellipse
     cx="68"
     cy="48"
     rx="52"
     ry="12"
     id="ellipse8"
     style="fill:#f8db8f" />
  <g
     id="g22"
     transform="translate(0,10)"
     style="fill:#ed8733">
    <path
       d="m 14,62 a 54,14 0 0 0 54,14 54,14 0 0 0 54,-14 h -2 A 52,12 0 0 1 68,74 52,12 0 0 1 16,62 Z"
       id="path10"
       inkscape:connector-curvature="0" />
    <path
       d="m 14,86 a 54,14 0 0 0 54,14 54,14 0 0 0 54,-14 h -2 A 52,12 0 0 1 68,98 52,12 0 0 1 16,86 Z"
       id="path12"
       inkscape:connector-curvature="0" />
    <path
       d="m 14,110 a 54,14 0 0 0 54,14 54,14 0 0 0 54,-14 h -2 A 52,12 0 0 1 68,122 52,12 0 0 1 16,110 Z"
       id="path14"
       inkscape:connector-curvature="0" />
    <path
       d="m 14,134 a 54,14 0 0 0 54,14 54,14 0 0 0 54,-14 h -2 A 52,12 0 0 1 68,146 52,12 0 0 1 16,134 Z"
       id="path16"
       inkscape:connector-curvature="0" />
    <path
       d="m 14,38 h 2 v 96 h -2 z"
       id="path18"
       inkscape:connector-curvature="0" />
    <path
       d="m 120,38 h 2 v 96 h -2 z"
       id="path20"
       inkscape:connector-curvature="0" />
  </g>
</svg>
