<?xml version="1.0" encoding="UTF-8" standalone="no"?>
<svg
   xmlns:dc="http://purl.org/dc/elements/1.1/"
   xmlns:cc="http://creativecommons.org/ns#"
   xmlns:rdf="http://www.w3.org/1999/02/22-rdf-syntax-ns#"
   xmlns:svg="http://www.w3.org/2000/svg"
   xmlns="http://www.w3.org/2000/svg"
   xmlns:sodipodi="http://sodipodi.sourceforge.net/DTD/sodipodi-0.dtd"
   xmlns:inkscape="http://www.inkscape.org/namespaces/inkscape"
   viewBox="0 0 24 24"
   version="1.1"
   id="svg20"
   sodipodi:docname="lc_editdoc.svg"
   inkscape:version="0.92.3 (2405546, 2018-03-11)">
  <metadata
     id="metadata26">
    <rdf:RDF>
      <cc:Work
         rdf:about="">
        <dc:format>image/svg+xml</dc:format>
        <dc:type
           rdf:resource="http://purl.org/dc/dcmitype/StillImage" />
        <dc:title></dc:title>
      </cc:Work>
    </rdf:RDF>
  </metadata>
  <defs
     id="defs24" />
  <sodipodi:namedview
     pagecolor="#ffffff"
     bordercolor="#666666"
     borderopacity="1"
     objecttolerance="10"
     gridtolerance="10"
     guidetolerance="10"
     inkscape:pageopacity="0"
     inkscape:pageshadow="2"
     inkscape:window-width="1366"
     inkscape:window-height="704"
     id="namedview22"
     showgrid="true"
     inkscape:pagecheckerboard="true"
     inkscape:zoom="11.313709"
     inkscape:cx="10.513813"
     inkscape:cy="12.116051"
     inkscape:window-x="0"
     inkscape:window-y="0"
     inkscape:window-maximized="1"
     inkscape:current-layer="svg20">
    <inkscape:grid
       type="xygrid"
       id="grid833" />
  </sodipodi:namedview>
  <path
     style="fill:#fafafa"
     d="M 5 3 L 5 21 L 6.7050781 21 L 6.8613281 20.361328 L 7.0449219 19.791016 C 7.0504039 19.773016 7.05598 19.756021 7.0625 19.738281 C 7.1001474 19.635839 7.1503273 19.535766 7.2226562 19.447266 C 7.2441832 19.421396 7.2669986 19.396627 7.2910156 19.373047 L 7.9980469 18.666016 L 8.7109375 17.958984 L 17.513672 9.1757812 L 19 7.6953125 L 19 6.7285156 L 15 3 L 5 3 z M 19 16.195312 L 14.208984 21 L 19 21 L 19 16.195312 z "
     id="path2" />
  <path
     style="fill:#3a3a38"
     d="M 5 2 C 4.446 2 4 2.446 4 3 L 4 21 C 4 21.554 4.446 22 5 22 L 6.4589844 22 L 6.7050781 21 L 5 21 L 5 3 L 14 3 L 14 7 C 14 7.554 14.446 8 15 8 L 18.693359 8 L 19.1875 7.5078125 C 19.416346 7.2792453 19.702052 7.1319883 20 7.0566406 L 20 7.0410156 C 20 6.5903357 20.098038 6.6156035 19.394531 5.9746094 L 16.087891 2.7363281 C 15.378366 1.9994706 15.377722 2 14.994141 2 L 14.662109 2 L 14 2 L 5 2 z M 20 15.193359 L 19 16.195312 L 19 21 L 14.208984 21 L 13.210938 22 L 19 22 C 19.554 22 20 21.554 20 21 L 20 15.193359 z "
     id="path4" />
  <path
     inkscape:connector-curvature="0"
     style="fill:#fafafa;fill-rule:evenodd"
     d="m 15,7 h 4 L 15,3 Z"
     id="path6" />
  <g
     transform="translate(-1,-4)"
     id="g18"
     style="fill:#fb983b">
    <path
       d="m 20.419922,11 c -0.189562,0 -0.378184,0.07172 -0.523438,0.216797 l -1.673828,1.669922 2.847656,2.849609 1.710938,-1.638672 c 0.290506,-0.290127 0.290506,-0.756747 0,-1.046875 L 20.945312,11.216797 C 20.800058,11.071733 20.609484,11 20.419922,11 Z m 0,0.990234 1.582031,1.580078 -0.917969,0.88086 -1.5625,-1.5625 z"
       transform="translate(1,1)"
       id="path8"
       inkscape:connector-curvature="0"
       style="fill:#0063b1" />
    <path
       d="m 21.419922,12.990234 -0.898438,0.898438 1.5625,1.5625 0.917969,-0.88086 z"
       id="path10"
       inkscape:connector-curvature="0"
       style="fill:#83beec" />
    <g
       transform="translate(1,1)"
       id="g16">
      <path
         d="m 8.708984,22.376953 -0.002,-0.002 L 8,23.082031 l 0.002,0.002 -0.05078,0.05078 L 7,27 10.806641,25.988281 21.050781,15.716797 18.222656,12.886719 Z m 9.511719,-8.191406 1.53125,1.533203 -8.841797,8.861328 -1.550781,-1.552734 z m -9.509765,9.708984 1.34375,1.341797 -1.791016,0.476563 z"
         id="path12"
         inkscape:connector-curvature="0"
         style="fill:#0063b1"
         sodipodi:nodetypes="ccccccccccccccccccc" />
      <path
         d="m 18.220703,14.185547 1.53125,1.533203 -8.841797,8.861328 -1.550781,-1.552734 z m -9.509765,9.708984 1.34375,1.341797 -1.791016,0.476563 z"
         id="path14"
         inkscape:connector-curvature="0"
         style="fill:#83beec"
         sodipodi:nodetypes="ccccccccc" />
    </g>
  </g>
</svg>
